<svg width="82" height="70" viewBox="0 0 82 70" fill="none" xmlns="http://www.w3.org/2000/svg">
<path fill-rule="evenodd" clip-rule="evenodd" d="M21.6497 55.4592C21.7074 55.367 21.7135 55.2454 21.6652 55.1406C21.6169 55.0399 21.5221 54.977 21.4191 54.977C19.2354 54.977 10.7271 54.977 5.11244 54.977C3.75584 54.977 2.4547 54.3775 1.49584 53.3125C0.536976 52.2475 -0.00113029 50.801 1.78263e-06 49.2915C0.00566213 41.4413 0.0158515 27.7047 0.0196251 22.9194C0.0203798 21.8045 0.28341 20.7093 0.782653 19.7424C2.5834 16.2553 7.12752 7.45573 9.49354 2.87378C10.4117 1.09601 12.115 0 13.9596 0H66.8178C67.9298 0 68.9547 0.670847 69.4936 1.75176C70.0328 2.8331 70.0012 4.15385 69.4113 5.20206C67.4495 8.68674 65.0008 13.0364 63.7272 15.2989C63.554 15.6066 63.5446 15.9945 63.7031 16.3119C63.8612 16.6293 64.1619 16.8263 64.4887 16.8263C67.3117 16.8263 73.2245 16.8263 77.3671 16.8263C79.8554 16.8263 81.8728 19.0678 81.8728 21.8326C81.8728 28.6418 81.8728 40.7084 81.8728 47.1364C81.8728 49.9624 81.2279 52.7464 79.9984 55.2202C78.4494 58.3397 75.9358 62.759 74.3506 65.9497C73.1102 68.4487 70.7453 70 68.1774 70C57.7118 70 30.5976 70 18.569 70C17.432 70 16.3882 69.304 15.8558 68.1845C15.3233 67.0692 15.3894 65.7191 16.0275 64.6751C18.1901 61.128 20.7867 56.8764 21.6497 55.4592ZM29.2953 52.8093C28.258 52.8093 27.2851 53.367 26.6874 54.3104C25.0387 56.91 21.6689 62.2223 19.9731 64.8931C19.775 65.2076 19.7501 65.6143 19.9086 65.9539C20.0667 66.2936 20.3818 66.5074 20.7259 66.5074C28.3199 66.5074 57.7808 66.5074 67.0306 66.5074C68.7359 66.5074 70.3106 65.4927 71.1608 63.8491C72.3713 61.5137 74.4506 58.1091 75.6973 55.7024C76.0064 55.107 76.0057 54.3691 75.6947 53.7737C75.3841 53.1741 74.8106 52.8093 74.1898 52.8093C64.8382 52.8093 36.4564 52.8093 29.2953 52.8093ZM16.2388 38.0727C14.4946 38.0794 12.8498 38.9742 11.7754 40.5012C10.2426 42.6803 7.97731 45.8995 6.29543 48.2894C5.87657 48.8848 5.79998 49.6941 6.0981 50.3733C6.39621 51.0525 7.01695 51.4844 7.69732 51.4844C13.3807 51.4844 23.7025 51.4844 23.7025 51.4844C24.2678 50.1595 25.4697 49.3125 26.7897 49.3125C33.1198 49.3125 51.5552 49.3125 57.7227 49.3125C58.9884 49.3125 60.1627 48.583 60.8234 47.3838C61.997 45.2538 63.8729 41.8488 65.0317 39.7457C65.2393 39.3688 65.2472 38.8962 65.0521 38.5113C64.857 38.126 64.4898 37.8878 64.0917 37.8895C56.0442 37.9205 25.6086 38.0367 16.2388 38.0727ZM65.4012 46.474C65.0804 47.0442 65.0642 47.7695 65.3593 48.3565C65.6544 48.9477 66.214 49.3125 66.8215 49.3125C69.4676 49.3125 73.2781 49.3125 75.7973 49.3125C76.4898 49.3125 77.1543 49.0064 77.6441 48.4656C78.1335 47.9205 78.409 47.1825 78.409 46.4111C78.409 40.8371 78.409 28.6929 78.409 23.1642C78.409 21.5936 77.263 20.3202 75.8494 20.3202C67.654 20.3202 42.1198 20.3202 33.9779 20.3202C32.4074 20.3202 30.9459 21.212 30.1032 22.685C28.618 25.2812 26.8886 29.4208 25.4259 31.9776C25.1663 32.4317 25.1497 33.0069 25.3829 33.479C25.6161 33.9507 26.0621 34.2438 26.5463 34.2438C33.9044 34.2438 55.5431 34.2438 66.3049 34.2438C67.5045 34.2438 68.6094 34.9663 69.1921 36.1315C69.7747 37.2962 69.7427 38.7205 69.1091 39.8522C67.8464 42.1071 66.4453 44.6081 65.4012 46.474ZM58.0899 16.8263C58.4337 16.8263 58.754 16.6334 58.942 16.3135C59.9348 14.6242 63.1393 9.17143 64.8902 6.19241C65.1223 5.79703 65.1412 5.29263 64.9389 4.87754C64.7366 4.46245 64.3461 4.20375 63.9212 4.20375C56.2054 4.20375 29.6648 4.20375 18.6241 4.20375C17.3301 4.20375 16.089 4.77481 15.1743 5.79158C14.2592 6.80792 13.7452 8.18695 13.7452 9.62426C13.7452 15.02 13.7452 23.2728 13.7452 28.7944C13.7452 30.3038 14.3018 31.7478 15.2852 32.7893C16.2682 33.8313 17.5928 34.3801 18.9497 34.3084C18.9501 34.3084 19.589 34.3084 19.589 34.3084C19.6059 34.1549 24.7523 24.2829 27.5931 19.4435C28.5516 17.8108 30.1874 16.8263 31.9417 16.8263C38.5756 16.8263 54.8865 16.8263 58.0899 16.8263Z" fill="#E27152"/>
</svg>
