<svg width="450" height="150" viewBox="0 0 450 150" fill="none" xmlns="http://www.w3.org/2000/svg">
<path fill-rule="evenodd" clip-rule="evenodd" d="M310.304 29.3882C312.461 25.5942 314.527 21.9872 315.496 20.3642C316.038 19.4582 316.456 18.8092 316.666 18.5462C316.875 18.2852 317.067 18.1562 317.171 18.0972C318.078 17.5812 319.854 17.1072 323.187 17.1072C325.414 17.1072 326.731 17.3192 327.515 17.5822C328.759 17.9992 329.351 18.6462 329.718 19.2532C330.102 19.8882 330.245 20.5872 330.248 21.3532C330.248 21.3562 330.248 21.3582 330.248 21.3612C330.248 21.3612 330.252 31.2372 330.255 40.7712C332.651 36.6682 334.922 32.8082 335.36 32.2282C336.297 30.9882 338.68 29.8442 341.75 29.8442H361.201C363.899 29.8442 365.982 30.7132 367.428 32.1602C368.24 32.9732 368.872 33.9882 369.272 35.2042C370.399 33.2962 371.211 31.9312 371.344 31.7362C372.33 30.2832 374.717 29.5212 376.837 29.5212C378.957 29.5212 393.838 29.5932 397.126 29.5932C400.544 29.5932 402.536 30.7182 403.763 32.0212C404.701 33.0172 405.202 34.1972 405.467 35.2952C406.622 33.3392 407.457 31.9342 407.592 31.7362C408.579 30.2832 410.966 29.5212 413.086 29.5212C415.206 29.5212 430.086 29.5932 433.375 29.5932C436.793 29.5932 438.784 30.7182 440.012 32.0212C441.865 33.9892 442.011 36.6722 442.011 38.0292C442.011 39.3372 441.898 40.7032 441.161 41.7802C440.974 42.0532 440.746 42.3252 440.462 42.5812C441.418 43.6132 442.011 45.0232 442.011 46.8692C442.011 48.7182 441.888 56.0702 441.828 59.6012C441.808 60.8512 441.356 62.0272 440.708 63.0962C438.81 66.2282 432.937 76.3612 432.921 76.3822C432.921 76.3822 432.188 77.7762 428.203 77.7762C423.978 77.7762 404.676 77.6632 400.264 77.6632C398.864 77.6632 397.747 77.1772 396.965 76.3822C396.687 76.1002 396.449 75.7762 396.259 75.4132C395.845 76.0172 395.598 76.3782 395.595 76.3822C395.595 76.3822 394.861 77.7762 390.877 77.7762C386.652 77.7762 368.428 77.6632 364.015 77.6632C362.616 77.6632 361.498 77.1772 360.716 76.3822C360.6 76.2642 360.491 76.1392 360.389 76.0062L360.254 76.2422C360.254 76.2422 359.521 77.6672 355.536 77.6672H327.394C325.995 77.6672 324.877 77.1712 324.095 76.3582C323.417 75.6542 322.977 74.6922 322.878 73.5232C321.55 75.0932 320.625 76.1732 320.597 76.1962C320.597 76.1962 318.846 77.6722 316.632 77.6722H308.228C307.017 77.6722 305.531 77.2772 304.521 76.1592C303.85 75.4152 303.355 74.3452 303.355 72.7992C303.355 72.0472 303.342 69.4882 303.324 66.1512L297.311 77.0042C297.066 77.4372 296.61 77.7032 296.116 77.7032H286.17C286.049 77.7032 285.926 77.7002 285.801 77.6912C285.729 77.8562 285.643 78.0172 285.543 78.1752C285.518 78.2152 277.707 87.6072 275.124 90.7122L288.965 106.374C289.417 106.812 289.516 107.501 289.204 108.048L280.887 122.66C280.641 123.089 280.185 123.355 279.69 123.355C279.69 123.355 279.667 123.425 278.213 123.425C277.906 123.425 277.168 123.308 276.474 122.567C275.529 121.559 265.352 109.872 265.352 109.872L260.935 122.66C260.715 123.16 260.22 123.484 259.673 123.484H249.983C248.772 123.484 247.285 123.088 246.276 121.97C245.794 121.436 245.403 120.734 245.221 119.809C244.457 121.135 243.971 121.986 243.971 121.986C243.879 122.167 243.092 123.46 239.544 123.46H212.665C209.711 123.46 208.139 122.713 207.311 121.723C207.004 121.356 206.78 120.943 206.631 120.486L205.255 122.853C205 123.242 204.567 123.476 204.102 123.476H199.123C198.781 123.476 197.144 123.352 196.904 123.145C196.175 123.312 195.265 123.476 194.507 123.476H172.017C170.618 123.476 169.5 122.985 168.718 122.181C168.63 122.09 168.546 121.995 168.466 121.896C168.403 121.995 168.365 122.051 168.357 122.058C168.357 122.058 166.606 123.534 164.393 123.534H154.378C153.167 123.534 151.681 123.138 150.671 122.02C150 121.276 149.505 120.207 149.505 118.661V118.594C148.091 120.606 147.021 122.108 147.015 122.117C147.015 122.117 146.281 123.51 142.297 123.51H115.45C114.051 123.51 112.933 123.025 112.151 122.23C111.378 121.445 110.914 120.331 110.914 118.965C110.914 113.924 110.899 99.3292 110.9 99.3612C110.9 99.3612 110.903 97.8462 111.851 96.3112C112.661 94.9982 122.276 78.5632 122.764 77.8452C122.8 77.7922 122.838 77.7402 122.878 77.6892C119.7 77.6742 117.022 77.6632 115.66 77.6632C114.261 77.6632 113.143 77.1772 112.361 76.3822C111.589 75.5972 111.124 74.4842 111.124 73.1172C111.124 68.0762 111.124 53.2202 111.124 53.2522C111.124 53.2522 111.128 51.7372 112.076 50.2022C112.886 48.8882 122.501 32.4542 122.989 31.7362C123.975 30.2832 126.362 29.5212 128.482 29.5212C130.602 29.5212 145.483 29.5932 148.771 29.5932C152.189 29.5932 154.181 30.7182 155.408 32.0212C156.982 33.6932 157.325 35.8812 157.392 37.3342C158.939 34.7032 160.173 32.6392 160.483 32.2282C161.42 30.9882 163.804 29.8442 166.874 29.8442H186.324C189.022 29.8442 191.106 30.7132 192.551 32.1602C192.914 32.5232 193.241 32.9272 193.528 33.3712C194.31 32.0672 195.552 30.3092 197.066 29.6562C197.926 29.2842 199.403 28.9802 201.919 28.9802C204.457 28.9802 205.935 29.3112 206.79 29.6962C207.679 30.0962 208.253 30.5802 208.617 31.1152C210.449 30.1242 212.978 29.3352 216.415 29.3352C217.789 29.3352 218.674 29.7532 219.323 30.3582C219.345 30.3792 219.367 30.4002 219.389 30.4212C219.727 30.2012 220.13 30.0022 220.607 29.8362C221.636 29.4782 223.269 29.2172 225.507 29.2172C227.497 29.2172 228.856 29.3452 229.787 29.5892C231.586 30.0602 232.451 30.9552 232.972 32.1092C233 32.1702 233.025 32.2312 233.048 32.2942L236.049 40.5262C236.049 40.5262 241.703 31.0152 241.836 30.9102C241.836 30.9102 243.101 29.9232 244.376 29.5892C245.307 29.3452 246.666 29.2172 248.656 29.2172C252.184 29.2172 254.326 30.0022 255.175 30.7242C255.529 31.0242 255.803 31.3412 256.004 31.6692C257.157 30.6652 259.264 29.8442 261.865 29.8442H281.316C284.014 29.8442 286.097 30.7132 287.543 32.1602C288.045 32.6632 288.479 33.2432 288.831 33.9002C289.789 32.3092 291.4 29.8312 292.458 29.6562C293.382 29.5032 294.796 28.9802 297.311 28.9802C299.849 28.9802 301.327 29.3112 302.183 29.6962C303.072 30.0962 303.646 30.5802 304.009 31.1152C305.563 30.2742 307.618 29.5792 310.304 29.3882ZM190.696 77.9282H208.852C212.343 77.9282 212.405 80.3082 212.405 81.3422V106.729C212.405 107.045 212.149 107.301 211.833 107.301C210.194 107.301 205.491 107.301 203.851 107.301C203.536 107.301 203.279 107.045 203.279 106.729V106.309C201.892 106.82 200.365 107.027 198.855 107.027H191.798C186.199 107.027 180.292 105.404 180.292 93.4722V90.7902C180.292 80.2272 184.524 77.9282 190.696 77.9282ZM283.077 76.4212L271.277 90.5822C271.277 90.5822 281.63 102.735 285.154 106.083C285.343 106.263 285.404 106.539 285.307 106.782C285.21 107.024 284.975 107.183 284.714 107.183C281.849 107.183 276.007 107.183 274.646 107.183C274.463 107.183 274.288 107.104 274.167 106.967C272.828 105.448 264.874 96.0992 264.874 96.0992V106.545C264.874 106.898 264.589 107.183 264.237 107.183C262.57 107.183 258.099 107.183 256.433 107.183C256.264 107.183 256.102 107.116 255.982 106.996C255.862 106.877 255.795 106.714 255.795 106.545C255.794 101.812 255.786 70.0372 255.795 69.9092L255.796 69.9032C255.796 69.0552 256.324 68.7242 260.181 68.7242C263.999 68.7242 264.856 69.1732 264.856 69.9032L264.874 85.9182L272.662 76.1712C273.369 75.2242 274.685 74.8872 277.995 74.8872C281.54 74.8872 283.439 75.8482 283.077 76.4212ZM146.221 96.6362C146.221 96.4482 146.146 96.2672 146.012 96.1342C145.879 96.0012 145.698 95.9272 145.51 95.9272C142.267 95.9352 129.024 95.9682 129.024 95.9682C126.548 95.9682 124.004 94.7502 124.004 92.2852C124.004 91.4482 123.939 84.0692 123.939 83.8132C123.939 79.7072 126.348 77.9902 129.096 77.9902H149.313C155.302 77.9902 155.29 83.2192 155.29 84.7972C155.29 85.8232 155.489 87.1992 151.549 87.1992C147.61 87.1992 147.213 86.6122 147.213 86.1452C147.213 85.6782 146.898 85.4182 146.575 85.4182C146.252 85.4182 136.719 85.4302 133.705 85.4302C133.482 85.4302 133.268 85.5192 133.111 85.6772C132.953 85.8342 132.864 86.0482 132.864 86.2712C132.864 86.7092 132.864 87.5732 132.864 88.0102C132.864 88.2332 132.953 88.4472 133.111 88.6052C133.268 88.7632 133.482 88.8512 133.705 88.8512C137.304 88.8512 151.224 88.8512 151.224 88.8512C153.701 88.8512 155.29 90.0692 155.29 92.5342V103.673C155.29 105.861 153.594 107.156 150.846 107.156H129.529C125.517 107.156 124.004 104.81 124.004 101.877V99.3632C124.004 98.8262 124.467 97.6332 128.407 97.6332C132.346 97.6332 132.532 98.1672 132.749 98.6002C132.963 99.0282 133.297 99.3632 133.705 99.3632C134.114 99.3632 142.735 99.3672 145.512 99.3682C145.7 99.3692 145.88 99.2942 146.013 99.1612C146.146 99.0282 146.221 98.8482 146.221 98.6602C146.221 98.0682 146.221 97.2282 146.221 96.6362ZM161.988 77.9882L161.935 74.0972C161.935 73.1352 162 72.2222 166.324 72.2222C170.587 72.2222 171.008 73.1782 171.011 74.0592L171.02 77.9882L174.353 77.9332C175.314 77.9332 175.984 77.7342 175.984 81.6742C175.984 85.2012 175.397 85.6282 174.629 85.6782V85.6832H171.02V97.7652C171.02 99.3412 171.915 99.3522 171.915 99.3522L173.6 99.3002C174.561 99.3002 175.231 99.1022 175.231 103.041C175.231 106.981 174.499 107.052 173.6 107.052C173.6 107.052 165.911 107.053 164.215 107.053C161.716 107.053 161.988 105.173 161.988 104.03V85.6832L160.696 85.6872C159.735 85.6872 159.065 85.8862 159.065 81.9462C159.065 78.0062 159.797 77.9352 160.696 77.9352L161.988 77.9882ZM246.72 94.5752C250.077 94.5752 251.221 95.2182 251.221 96.9072C251.221 106.079 245.893 106.899 240.753 106.899H229.89C223.955 106.899 217.693 105.575 217.693 93.5502V90.8472C217.693 80.2012 222.179 77.8842 228.721 77.8842H240.519C246.624 77.8842 251.143 81.5522 251.143 85.7252L251.208 87.4892C251.208 88.5682 250.441 89.5882 247.023 89.5882C243.606 89.5882 242.529 89.3052 242.529 87.4892C242.529 85.6742 238.515 85.8282 237.342 85.8282H232.179C228.441 85.8282 226.665 87.0412 226.665 90.1302V93.8812C226.665 97.5222 229.376 98.6252 232.179 98.6252H237.715C239.143 98.6252 242.529 99.1442 242.529 96.9072C242.529 96.9052 242.303 94.5752 246.72 94.5752ZM203.222 95.2782V89.6962C203.222 86.8502 202.032 85.8102 198.328 85.8102H193.958C190.431 85.8102 188.756 87.0142 188.756 90.0792V93.8012C188.756 97.4132 190.607 98.5082 193.253 98.5082H198.681C201.062 98.5082 203.222 97.8512 203.222 95.2782ZM228.695 95.0212C228.749 95.1552 228.817 95.2692 228.901 95.3582C229.478 95.9652 230.431 96.0332 231.355 96.0332H238.876C239.058 96.0332 239.278 96.0452 239.52 96.0582L239.516 96.0342C239.516 96.0342 239.408 95.0402 238.415 95.0402L228.695 95.0212ZM195.114 94.9362C195.04 94.5442 194.926 94.2292 194.703 94.0232C194.499 93.8352 194.21 93.7832 193.858 93.7862H190.605V93.8672C190.605 94.6922 190.633 95.2812 190.996 95.6132C191.342 95.9292 191.866 95.9152 192.443 95.9152H195.114V94.9362ZM209.942 57.8382C209.954 60.2262 209.951 62.5092 209.895 62.6092L202.621 75.7382H208.042C210.425 75.7382 211.818 76.5432 212.696 77.4362C214.058 78.8202 214.254 80.7162 214.254 81.8102V84.3892C215.115 83.0412 215.829 81.9492 216.225 81.4032C216.754 80.4372 217.373 79.6272 218.064 78.9482C218.559 78.4592 219.096 78.0342 219.67 77.6672C218.203 77.3562 216.981 76.2032 215.837 73.3942C214.893 71.0782 211.735 62.6462 209.942 57.8382ZM182.22 77.5832C181.765 77.6362 181.248 77.6672 180.66 77.6672H177.982C178.043 77.8202 178.099 77.9852 178.15 78.1642C178.346 78.8532 178.494 79.9582 178.494 81.7402C178.494 81.9592 178.492 82.1692 178.487 82.3692C179.661 80.3712 180.449 79.0272 180.456 79.0202C180.995 78.4622 181.584 77.9852 182.22 77.5832ZM243.047 65.8442C241.241 69.0122 238.699 73.4612 237.423 75.6942H241.679C242.396 75.6942 243.093 75.7342 243.766 75.8102C243.263 75.0672 242.972 74.1242 242.972 73.0202C242.972 71.2932 243.004 68.6262 243.047 65.8442ZM146.016 50.9092C146.016 50.7202 145.941 50.5402 145.808 50.4072C145.674 50.2742 145.494 50.2002 145.306 50.2002C142.062 50.2082 128.82 50.2402 128.82 50.2402C126.343 50.2402 123.8 49.0232 123.8 46.5582C123.8 45.7212 123.734 38.3412 123.734 38.0862C123.734 33.9802 126.144 32.2632 128.892 32.2632H149.109C155.097 32.2632 155.086 37.4912 155.086 39.0692C155.086 40.0962 154.459 41.1412 151.345 41.1412C148.23 41.1412 147.008 40.2232 147.008 39.7562C147.008 39.2892 146.694 39.3602 146.37 39.3602C146.047 39.3602 136.514 39.3722 133.501 39.3722C133.278 39.3722 133.064 39.4612 132.906 39.6192C132.748 39.7762 132.66 39.9902 132.66 40.2132C132.66 40.6512 132.66 41.5152 132.66 41.9522C132.66 42.1752 132.748 42.3892 132.906 42.5472C133.064 42.7052 133.278 42.7932 133.501 42.7932C137.1 42.7932 151.019 42.7932 151.019 42.7932C153.496 42.7932 155.086 44.0112 155.086 46.4762V57.9462C155.086 60.1342 153.39 61.4292 150.642 61.4292H129.324C125.313 61.4292 123.8 59.0822 123.8 56.1502V53.6362C123.8 53.0992 124.263 51.9062 128.202 51.9062C132.142 51.9062 132.327 52.7712 132.544 53.2042C132.758 53.6312 133.092 53.9672 133.501 53.9672C133.909 53.9672 142.53 53.9712 145.307 53.9722C145.495 53.9722 145.675 53.8972 145.808 53.7652C145.941 53.6322 146.016 53.4512 146.016 53.2632C146.016 52.6712 146.016 51.5012 146.016 50.9092ZM294.222 61.3762C293.91 61.3762 293.657 61.1242 293.656 60.8122C293.651 56.8352 293.615 33.2032 293.615 33.2032C293.615 32.2422 294.339 31.5722 298.279 31.5722C302.218 31.5722 302.243 32.3042 302.243 33.2032L302.246 36.4402L302.249 36.4882C302.249 36.4882 304.423 31.9242 312.114 31.9242C313.818 31.9242 313.745 32.8522 313.745 36.7702C313.745 40.6882 313.013 41.3512 312.114 41.3512L309.775 41.3562C305.034 41.4342 302.69 42.6672 302.69 43.5382V60.8112C302.69 61.1232 302.436 61.3762 302.124 61.3762C300.502 61.3762 295.843 61.3762 294.222 61.3762ZM198.407 61.3762C198.095 61.3762 197.842 61.1242 197.841 60.8122C197.835 56.8352 197.8 33.2032 197.8 33.2032C197.8 32.2422 198.524 31.5722 202.464 31.5722C206.403 31.5722 206.428 32.3042 206.428 33.2032L206.431 36.4402L206.433 36.4882C206.433 36.4882 208.608 31.9242 216.298 31.9242C218.003 31.9242 217.929 32.8522 217.929 36.7702C217.929 40.6882 217.197 41.3512 216.298 41.3512L213.959 41.3562C209.219 41.4342 206.874 42.6672 206.874 43.5382V60.8112C206.874 61.1232 206.621 61.3762 206.309 61.3762C204.686 61.3762 200.028 61.3762 198.407 61.3762ZM189.989 61.2102L167.226 61.1842C163.021 61.1842 160.936 59.6042 160.936 55.3992C160.936 39.3902 160.835 37.9612 160.835 37.9612C160.835 36.1562 161.627 32.1032 166.404 32.1032H186.337C190.09 32.1032 192.235 34.2082 192.235 37.9612V48.3532C192.235 49.6262 191.281 49.9982 190.479 49.9982H170.005V51.4792C170.005 53.0132 170.508 53.9442 173.041 53.9442C175.174 53.9442 189.989 53.9632 189.989 53.9632C190.95 53.9632 192.235 54.1672 192.235 57.3962C192.235 60.6262 190.888 61.2102 189.989 61.2102ZM285.16 61.2102L262.397 61.1842C258.192 61.1842 256.107 59.6042 256.107 55.3992C256.107 39.3902 256.006 37.9612 256.006 37.9612C256.006 36.1562 256.798 32.1032 261.575 32.1032H281.508C285.26 32.1032 287.406 34.2082 287.406 37.9612V48.3532C287.406 49.6262 286.452 49.9982 285.65 49.9982H265.176V51.4792C265.176 53.0132 265.679 53.9442 268.212 53.9442C270.345 53.9442 285.16 53.9632 285.16 53.9632C286.121 53.9632 287.406 54.1672 287.406 57.3962C287.406 60.6262 286.059 61.2102 285.16 61.2102ZM364.889 61.2102L342.126 61.1842C337.921 61.1842 335.836 59.6042 335.836 55.3992C335.836 39.3902 335.735 37.9612 335.735 37.9612C335.735 36.1562 336.527 32.1032 341.304 32.1032H361.237C364.99 32.1032 367.135 34.2082 367.135 37.9612V48.3532C367.135 49.6262 366.181 49.9982 365.379 49.9982H344.905V51.4792C344.905 53.0132 345.408 53.9442 347.941 53.9442C350.074 53.9442 364.889 53.9632 364.889 53.9632C365.85 53.9632 367.135 54.1672 367.135 57.3962C367.135 60.6262 365.788 61.2102 364.889 61.2102ZM394.296 50.6732C394.296 50.4842 394.221 50.3042 394.088 50.1712C393.955 50.0382 393.774 49.9642 393.586 49.9642C390.342 49.9722 377.1 50.0042 377.1 50.0042C374.623 50.0042 372.08 48.7872 372.08 46.3222C372.08 45.4852 372.015 38.1052 372.015 37.8502C372.015 33.7442 374.424 32.0272 377.172 32.0272H397.389C403.377 32.0272 403.366 37.2552 403.366 38.8332C403.366 39.8602 402.739 40.9052 399.625 40.9052C396.511 40.9052 395.288 40.3182 395.288 39.8512C395.288 39.3842 394.974 39.4552 394.65 39.4552C394.327 39.4552 384.794 39.4672 381.781 39.4672C381.558 39.4672 381.344 39.5562 381.186 39.7132C381.028 39.8712 380.94 40.0852 380.94 40.3082C380.94 40.7462 380.94 41.6102 380.94 42.0472C380.94 42.2702 381.028 42.4842 381.186 42.6422C381.344 42.7992 381.558 42.8882 381.781 42.8882C385.38 42.8882 399.299 42.8882 399.299 42.8882C401.776 42.8882 403.366 44.1062 403.366 46.5702V57.7102C403.366 59.8982 401.67 61.1932 398.922 61.1932H377.604C373.593 61.1932 372.08 58.8462 372.08 55.9142V53.4002C372.08 52.8632 372.543 51.6702 376.482 51.6702C380.422 51.6702 380.608 52.2042 380.824 52.6372C381.038 53.0652 381.372 53.4002 381.781 53.4002C382.19 53.4002 390.81 53.4042 393.587 53.4052C393.775 53.4052 393.955 53.3312 394.088 53.1982C394.221 53.0652 394.296 52.8852 394.296 52.6972C394.296 52.1052 394.296 51.2652 394.296 50.6732ZM430.611 50.6732C430.611 50.4842 430.536 50.3042 430.403 50.1712C430.269 50.0382 430.089 49.9642 429.9 49.9642C426.657 49.9722 413.415 50.0042 413.415 50.0042C410.938 50.0042 408.394 48.7872 408.394 46.3222C408.394 45.4852 408.329 38.1052 408.329 37.8502C408.329 33.7442 410.738 32.0272 413.487 32.0272H433.704C439.692 32.0272 439.681 37.2552 439.681 38.8332C439.681 39.8602 439.054 40.9052 435.94 40.9052C432.825 40.9052 431.603 40.3182 431.603 39.8512C431.603 39.3842 431.288 39.4552 430.965 39.4552C430.642 39.4552 421.109 39.4672 418.096 39.4672C417.873 39.4672 417.659 39.5562 417.501 39.7132C417.343 39.8712 417.255 40.0852 417.255 40.3082C417.255 40.7462 417.255 41.6102 417.255 42.0472C417.255 42.2702 417.343 42.4842 417.501 42.6422C417.659 42.7992 417.873 42.8882 418.096 42.8882C421.694 42.8882 435.614 42.8882 435.614 42.8882C438.091 42.8882 439.681 44.1062 439.681 46.5702V57.7102C439.681 59.8982 437.985 61.1932 435.236 61.1932H413.919C409.908 61.1932 408.394 58.8462 408.394 55.9142V53.4002C408.394 52.8632 408.858 51.6702 412.797 51.6702C416.737 51.6702 416.922 52.2042 417.139 52.6372C417.353 53.0652 417.687 53.4002 418.096 53.4002C418.504 53.4002 427.125 53.4042 429.902 53.4052C430.09 53.4052 430.27 53.3312 430.403 53.1982C430.536 53.0652 430.611 52.8852 430.611 52.6972C430.611 52.1052 430.611 51.2652 430.611 50.6732ZM318.396 58.1002L318.343 21.3342C318.343 20.3702 318.693 19.6992 323.017 19.6992C327.28 19.6992 327.417 20.4122 327.42 21.2962C327.42 21.2962 327.429 41.2572 327.429 51.8222C327.429 53.4012 328.779 53.3602 328.779 53.3602C329.74 53.3602 330.41 53.1622 330.41 57.1092C330.41 61.0562 329.678 61.1282 328.779 61.1282C328.779 61.1282 322.319 61.1282 320.624 61.1282C318.124 61.1282 318.396 59.2452 318.396 58.1002ZM237.276 52.6172L243.24 33.1312C243.695 32.1272 244.93 31.8092 248.284 31.8092C251.96 31.8092 253.667 32.5212 253.336 33.4402C253.336 33.4402 244.947 55.2552 243.072 60.1322C242.85 60.7102 242.294 61.0912 241.675 61.0912C239.596 61.0912 234.914 61.0912 232.848 61.0912C232.236 61.0912 231.687 60.7192 231.459 60.1522C229.519 55.3152 220.743 33.4402 220.743 33.4402C220.413 32.5212 222.12 31.8092 225.796 31.8092C229.149 31.8092 230.385 32.1272 230.84 33.1312L237.276 52.6172ZM356.63 39.6262C357.065 39.6262 358.032 39.8532 358.032 41.0412V42.9962C358.03 42.9952 344.577 42.9952 344.574 42.9962V41.0412C344.574 39.8532 345.542 39.6262 345.976 39.6262H356.63ZM181.73 39.6262C182.164 39.6262 183.132 39.8532 183.132 41.0412V42.9962C183.13 42.9952 169.677 42.9952 169.674 42.9962V41.0412C169.674 39.8532 170.642 39.6262 171.076 39.6262H181.73ZM276.901 39.6262C277.335 39.6262 278.303 39.8532 278.303 41.0412V42.9962C278.301 42.9952 264.847 42.9952 264.845 42.9962V41.0412C264.845 39.8532 265.813 39.6262 266.247 39.6262H276.901Z" fill="#E27152"/>
<path fill-rule="evenodd" clip-rule="evenodd" d="M32.7808 82.2873C32.8411 82.2005 32.8474 82.0862 32.7969 81.9877C32.7465 81.8931 32.6475 81.8339 32.5399 81.8339C30.2587 81.8339 21.3708 81.8339 15.5055 81.8339C14.0884 81.8339 12.7292 81.2702 11.7275 80.269C10.7259 79.2677 10.1638 77.9077 10.1649 76.4886C10.1708 69.1081 10.1815 56.1935 10.1854 51.6945C10.1862 50.6463 10.461 49.6167 10.9825 48.7077C12.8636 45.4292 17.6105 37.1562 20.0821 32.8484C21.0412 31.177 22.8206 30.1466 24.7474 30.1466H79.9644C81.1261 30.1466 82.1968 30.7773 82.7597 31.7935C83.323 32.8102 83.2899 34.0519 82.6738 35.0374C80.6243 38.3135 78.0664 42.4029 76.736 44.53C76.555 44.8193 76.5452 45.184 76.7107 45.4824C76.8759 45.7808 77.1901 45.9661 77.5315 45.9661C80.4804 45.9661 86.6571 45.9661 90.9846 45.9661C93.5839 45.9661 95.6913 48.0734 95.6913 50.6728C95.6913 57.0745 95.6913 68.419 95.6913 74.4625C95.6913 77.1193 95.0176 79.7368 93.7333 82.0625C92.1151 84.9954 89.4894 89.1502 87.8334 92.15C86.5377 94.4995 84.0672 95.9579 81.3847 95.9579C70.4521 95.9579 42.1279 95.9579 29.5625 95.9579C28.3748 95.9579 27.2845 95.3036 26.7283 94.2511C26.1721 93.2025 26.241 91.9332 26.9076 90.9517C29.1668 87.6168 31.8792 83.6196 32.7808 82.2873ZM40.7676 79.7959C39.6839 79.7959 38.6677 80.3202 38.0433 81.2072C36.321 83.6512 32.8009 88.6456 31.0293 91.1567C30.8224 91.4523 30.7964 91.8347 30.9619 92.154C31.1271 92.4733 31.4563 92.6743 31.8158 92.6743C39.7486 92.6743 70.5242 92.6743 80.1868 92.6743C81.9681 92.6743 83.6131 91.7204 84.5012 90.1751C85.7658 87.9794 87.9378 84.7786 89.2403 82.5159C89.5631 81.9561 89.5623 81.2623 89.2375 80.7026C88.9131 80.1389 88.3139 79.7959 87.6654 79.7959C77.8965 79.7959 48.2482 79.7959 40.7676 79.7959ZM27.1284 65.9411C25.3064 65.9474 23.5881 66.7887 22.4658 68.2243C20.8646 70.273 18.4982 73.2996 16.7413 75.5465C16.3037 76.1063 16.2237 76.8671 16.5352 77.5057C16.8466 78.1443 17.495 78.5503 18.2057 78.5503C24.1427 78.5503 34.9252 78.5503 34.9252 78.5503C35.5157 77.3046 36.7712 76.5083 38.1501 76.5083C44.7627 76.5083 64.0208 76.5083 70.4635 76.5083C71.7857 76.5083 73.0124 75.8224 73.7026 74.695C74.9286 72.6925 76.8881 69.4913 78.0987 67.514C78.3155 67.1596 78.3238 66.7153 78.12 66.3535C77.9162 65.9912 77.5326 65.7673 77.1168 65.7689C68.7101 65.7981 36.9163 65.9072 27.1284 65.9411ZM78.4846 73.8396C78.1496 74.3758 78.1326 75.0577 78.4409 75.6096C78.7491 76.1654 79.3337 76.5083 79.9684 76.5083C82.7325 76.5083 86.7131 76.5083 89.3447 76.5083C90.0681 76.5083 90.7622 76.2206 91.2739 75.7121C91.7852 75.1996 92.073 74.5058 92.073 73.7805C92.073 68.5401 92.073 57.1226 92.073 51.9247C92.073 50.4481 90.8758 49.2509 89.3991 49.2509C80.838 49.2509 54.1643 49.2509 45.6591 49.2509C44.0185 49.2509 42.4918 50.0894 41.6115 51.4742C40.06 53.915 38.2534 57.8069 36.7255 60.2107C36.4543 60.6376 36.4369 61.1785 36.6805 61.6223C36.9241 62.0658 37.3901 62.3413 37.8958 62.3413C45.5823 62.3413 68.1866 62.3413 79.4287 62.3413C80.6819 62.3413 81.8361 63.0206 82.4447 64.116C83.0533 65.2111 83.0198 66.5502 82.358 67.6141C81.039 69.7341 79.5754 72.0855 78.4846 73.8396ZM70.8471 45.9661C71.2062 45.9661 71.5409 45.7847 71.7372 45.4839C72.7743 43.8957 76.1218 38.7692 77.9509 35.9685C78.1933 35.5967 78.213 35.1225 78.0017 34.7323C77.7904 34.342 77.3825 34.0988 76.9386 34.0988C68.8785 34.0988 41.1535 34.0988 29.6201 34.0988C28.2684 34.0988 26.9719 34.6357 26.0164 35.5916C25.0604 36.5471 24.5235 37.8436 24.5235 39.195C24.5235 44.2679 24.5235 52.0268 24.5235 57.218C24.5235 58.6371 25.105 59.9947 26.1323 60.9739C27.1591 61.9535 28.5428 62.4695 29.9603 62.402C29.9607 62.402 30.628 62.402 30.628 62.402C30.6458 62.2578 36.0218 52.9764 38.9893 48.4266C39.9906 46.8916 41.6994 45.9661 43.532 45.9661C50.462 45.9661 67.5008 45.9661 70.8471 45.9661Z" fill="#E27152"/>
</svg>
