<svg width="600" height="600" viewBox="0 0 600 600" fill="none" xmlns="http://www.w3.org/2000/svg">
<rect width="600" height="600" fill="#E27152"/>
<path fill-rule="evenodd" clip-rule="evenodd" d="M201.967 393.528C202.26 393.106 202.291 392.55 202.045 392.071C201.8 391.611 201.319 391.324 200.796 391.324C189.703 391.324 146.487 391.324 117.968 391.324C111.077 391.324 104.468 388.583 99.5979 383.714C94.7275 378.846 91.9943 372.233 92 365.333C92.0288 329.446 92.0805 266.65 92.0997 244.774C92.1035 239.678 93.4395 234.671 95.9754 230.251C105.122 214.31 128.203 174.083 140.221 153.137C144.885 145.01 153.537 140 162.906 140H431.392C437.04 140 442.246 143.067 444.983 148.008C447.722 152.951 447.562 158.989 444.566 163.781C434.601 179.711 422.163 199.595 415.694 209.938C414.814 211.345 414.766 213.118 415.571 214.568C416.374 216.019 417.902 216.92 419.562 216.92C433.901 216.92 463.934 216.92 484.976 216.92C497.615 216.92 507.862 227.167 507.862 239.806C507.862 270.934 507.862 326.095 507.862 355.481C507.862 368.399 504.586 381.127 498.341 392.435C490.473 406.696 477.706 426.898 469.654 441.485C463.353 452.908 451.341 460 438.298 460C385.139 460 247.416 460 186.319 460C180.543 460 175.242 456.818 172.537 451.701C169.833 446.602 170.168 440.43 173.409 435.658C184.394 419.442 197.583 400.006 201.967 393.528ZM240.802 381.414C235.533 381.414 230.591 383.963 227.555 388.276C219.181 400.16 202.065 424.445 193.451 436.654C192.444 438.092 192.318 439.951 193.123 441.504C193.926 443.056 195.527 444.034 197.275 444.034C235.847 444.034 385.49 444.034 432.473 444.034C441.135 444.034 449.133 439.395 453.452 431.882C459.6 421.206 470.162 405.642 476.495 394.64C478.064 391.918 478.061 388.544 476.481 385.823C474.904 383.082 471.99 381.414 468.837 381.414C421.337 381.414 277.175 381.414 240.802 381.414ZM174.483 314.047C165.624 314.077 157.269 318.168 151.812 325.149C144.026 335.11 132.52 349.826 123.977 360.752C121.849 363.473 121.46 367.173 122.974 370.278C124.489 373.383 127.642 375.357 131.098 375.357C159.965 375.357 212.394 375.357 212.394 375.357C215.265 369.3 221.37 365.429 228.075 365.429C260.228 365.429 353.868 365.429 385.195 365.429C391.624 365.429 397.588 362.093 400.945 356.612C406.906 346.875 416.434 331.309 422.32 321.695C423.374 319.971 423.415 317.811 422.424 316.052C421.433 314.29 419.568 313.202 417.545 313.209C376.669 313.351 222.075 313.882 174.483 314.047ZM424.197 352.452C422.567 355.059 422.485 358.375 423.984 361.058C425.483 363.761 428.325 365.429 431.411 365.429C444.851 365.429 464.206 365.429 477.002 365.429C480.52 365.429 483.895 364.029 486.383 361.557C488.869 359.065 490.268 355.692 490.268 352.165C490.268 326.684 490.268 271.168 490.268 245.894C490.268 238.714 484.447 232.892 477.267 232.892C435.639 232.892 305.942 232.892 264.586 232.892C256.609 232.892 249.185 236.969 244.905 243.703C237.361 255.571 228.577 274.495 221.148 286.183C219.829 288.259 219.744 290.889 220.929 293.047C222.114 295.203 224.379 296.543 226.838 296.543C264.213 296.543 374.124 296.543 428.787 296.543C434.88 296.543 440.493 299.846 443.452 305.172C446.411 310.497 446.249 317.008 443.03 322.181C436.617 332.49 429.5 343.923 424.197 352.452ZM387.06 216.92C388.806 216.92 390.433 216.039 391.388 214.576C396.431 206.854 412.708 181.927 421.601 168.308C422.78 166.501 422.876 164.195 421.848 162.297C420.821 160.4 418.837 159.217 416.679 159.217C377.488 159.217 242.678 159.217 186.598 159.217C180.026 159.217 173.722 161.828 169.076 166.476C164.428 171.122 161.817 177.426 161.817 183.997C161.817 208.663 161.817 246.39 161.817 271.631C161.817 278.532 164.644 285.133 169.639 289.894C174.632 294.657 181.36 297.166 188.253 296.838C188.255 296.838 191.5 296.838 191.5 296.838C191.586 296.137 217.726 251.007 232.155 228.885C237.024 221.421 245.333 216.92 254.244 216.92C287.94 216.92 370.789 216.92 387.06 216.92Z" fill="white"/>
</svg>
