<svg width="600" height="600" viewBox="0 0 600 600" fill="none" xmlns="http://www.w3.org/2000/svg">
<rect width="600" height="600" fill="#E27152"/>
<path fill-rule="evenodd" clip-rule="evenodd" d="M213.311 393.528C213.57 393.106 213.597 392.55 213.38 392.071C213.163 391.611 212.737 391.324 212.274 391.324C202.459 391.324 164.216 391.324 138.979 391.324C132.882 391.324 127.033 388.583 122.723 383.714C118.414 378.846 115.995 372.233 116 365.333C116.025 329.446 116.071 266.65 116.088 244.774C116.092 239.678 117.274 234.671 119.518 230.251C127.612 214.31 148.037 174.083 158.671 153.137C162.798 145.01 170.454 140 178.745 140H416.331C421.33 140 425.936 143.067 428.358 148.008C430.782 152.951 430.64 158.989 427.989 163.781C419.17 179.711 408.164 199.595 402.44 209.938C401.661 211.345 401.619 213.118 402.331 214.568C403.042 216.019 404.394 216.92 405.863 216.92C418.551 216.92 445.128 216.92 463.748 216.92C474.932 216.92 484 227.167 484 239.806C484 270.934 484 326.095 484 355.481C484 368.399 481.101 381.127 475.575 392.435C468.613 406.696 457.315 426.898 450.189 441.485C444.614 452.908 433.984 460 422.442 460C375.402 460 253.529 460 199.463 460C194.353 460 189.661 456.818 187.268 451.701C184.875 446.602 185.172 440.43 188.04 435.658C197.76 419.442 209.432 400.006 213.311 393.528ZM247.676 381.414C243.013 381.414 238.641 383.963 235.954 388.276C228.544 400.16 213.397 424.445 205.775 436.654C204.884 438.092 204.772 439.951 205.485 441.504C206.195 443.056 207.612 444.034 209.158 444.034C243.291 444.034 375.712 444.034 417.288 444.034C424.953 444.034 432.031 439.395 435.852 431.882C441.293 421.206 450.639 405.642 456.243 394.64C457.632 391.918 457.629 388.544 456.231 385.823C454.835 383.082 452.257 381.414 449.467 381.414C407.433 381.414 279.864 381.414 247.676 381.414ZM188.99 314.047C181.15 314.077 173.757 318.168 168.928 325.149C162.038 335.11 151.856 349.826 144.297 360.752C142.414 363.473 142.07 367.173 143.41 370.278C144.75 373.383 147.54 375.357 150.598 375.357C176.143 375.357 222.538 375.357 222.538 375.357C225.078 369.3 230.481 365.429 236.414 365.429C264.866 365.429 347.729 365.429 375.451 365.429C381.14 365.429 386.418 362.093 389.388 356.612C394.663 346.875 403.094 331.309 408.303 321.695C409.236 319.971 409.272 317.811 408.395 316.052C407.518 314.29 405.868 313.202 404.078 313.209C367.906 313.351 231.105 313.882 188.99 314.047ZM409.964 352.452C408.522 355.059 408.449 358.375 409.775 361.058C411.102 363.761 413.617 365.429 416.348 365.429C428.241 365.429 445.369 365.429 456.692 365.429C459.805 365.429 462.792 364.029 464.993 361.557C467.193 359.065 468.431 355.692 468.431 352.165C468.431 326.684 468.431 271.168 468.431 245.894C468.431 238.714 463.28 232.892 456.926 232.892C420.09 232.892 305.319 232.892 268.723 232.892C261.664 232.892 255.095 236.969 251.307 243.703C244.631 255.571 236.858 274.495 230.284 286.183C229.117 288.259 229.042 290.889 230.09 293.047C231.139 295.203 233.144 296.543 235.32 296.543C268.393 296.543 365.654 296.543 414.026 296.543C419.418 296.543 424.384 299.846 427.003 305.172C429.622 310.497 429.478 317.008 426.63 322.181C420.955 332.49 414.657 343.923 409.964 352.452ZM377.101 216.92C378.646 216.92 380.086 216.039 380.931 214.576C385.394 206.854 399.797 181.927 407.667 168.308C408.71 166.501 408.795 164.195 407.886 162.297C406.977 160.4 405.221 159.217 403.312 159.217C368.631 159.217 249.336 159.217 199.711 159.217C193.895 159.217 188.316 161.828 184.205 166.476C180.092 171.122 177.782 177.426 177.782 183.997C177.782 208.663 177.782 246.39 177.782 271.631C177.782 278.532 180.284 285.133 184.704 289.894C189.122 294.657 195.076 297.166 201.175 296.838C201.177 296.838 204.048 296.838 204.048 296.838C204.124 296.137 227.256 251.007 240.025 228.885C244.333 221.421 251.686 216.92 259.571 216.92C289.389 216.92 362.703 216.92 377.101 216.92Z" fill="white"/>
</svg>
