<svg width="82" height="71" viewBox="0 0 82 71" fill="none" xmlns="http://www.w3.org/2000/svg">
<path fill-rule="evenodd" clip-rule="evenodd" d="M21.6833 55.5454C21.7412 55.453 21.7472 55.3312 21.6988 55.2263C21.6505 55.1255 21.5556 55.0625 21.4524 55.0625C19.2653 55.0625 10.7438 55.0625 5.12039 55.0625C3.76168 55.0625 2.45852 54.462 1.49816 53.3953C0.537811 52.3287 -0.00113204 50.8799 1.7854e-06 49.3681C0.00567093 41.5057 0.0158761 27.7477 0.0196556 22.955C0.0204114 21.8384 0.28385 20.7415 0.783869 19.7731C2.58741 16.2805 7.13859 7.46731 9.5083 2.87825C10.4278 1.09772 12.1339 0 13.9813 0H66.9216C68.0354 0 69.0619 0.671889 69.6016 1.75449C70.1417 2.8375 70.1099 4.1603 69.5192 5.21014C67.5543 8.70024 65.1018 13.0567 63.8262 15.3226C63.6528 15.6309 63.6433 16.0193 63.8021 16.3372C63.9604 16.6551 64.2616 16.8525 64.5889 16.8525C67.4163 16.8525 73.3383 16.8525 77.4874 16.8525C79.9795 16.8525 82 19.0974 82 21.8665C82 28.6863 82 40.7716 82 47.2097C82 50.04 81.3541 52.8284 80.1228 55.306C78.5713 58.4303 76.0538 62.8565 74.4661 66.0522C73.2238 68.5551 70.8552 70.1088 68.2833 70.1088C57.8015 70.1088 30.6451 70.1088 18.5978 70.1088C17.4591 70.1088 16.4137 69.4117 15.8804 68.2905C15.3471 67.1734 15.4133 65.8212 16.0524 64.7756C18.2184 61.2229 20.819 56.9648 21.6833 55.5454ZM29.3408 52.8914C28.3019 52.8914 27.3275 53.4499 26.7289 54.3948C25.0776 56.9984 21.7026 62.319 20.0041 64.994C19.8057 65.3089 19.7808 65.7163 19.9395 66.0564C20.0979 66.3966 20.4135 66.6107 20.7581 66.6107C28.3639 66.6107 57.8706 66.6107 67.1348 66.6107C68.8427 66.6107 70.4198 65.5945 71.2713 63.9483C72.4838 61.6093 74.5662 58.1994 75.815 55.789C76.1245 55.1926 76.1238 54.4536 75.8123 53.8573C75.5013 53.2568 74.9268 52.8914 74.3051 52.8914C64.9389 52.8914 36.5131 52.8914 29.3408 52.8914ZM16.264 38.1319C14.5172 38.1386 12.8697 39.0348 11.7937 40.5642C10.2585 42.7466 7.98971 45.9708 6.30522 48.3645C5.8857 48.9608 5.809 49.7713 6.10757 50.4516C6.40615 51.1319 7.02785 51.5644 7.70928 51.5644C13.4015 51.5644 23.7394 51.5644 23.7394 51.5644C24.3055 50.2374 25.5093 49.3891 26.8313 49.3891C33.1713 49.3891 51.6353 49.3891 57.8124 49.3891C59.08 49.3891 60.2562 48.6585 60.918 47.4574C62.0934 45.3242 63.9721 41.9139 65.1328 39.8075C65.3407 39.4299 65.3486 38.9567 65.1532 38.5712C64.9578 38.1852 64.5901 37.9467 64.1913 37.9484C56.1313 37.9795 25.6483 38.0958 16.264 38.1319ZM65.5028 46.5462C65.1816 47.1173 65.1653 47.8438 65.4608 48.4317C65.7564 49.0238 66.3169 49.3891 66.9254 49.3891C69.5755 49.3891 73.392 49.3891 75.9151 49.3891C76.6087 49.3891 77.2742 49.0826 77.7648 48.5409C78.255 47.995 78.5309 47.2559 78.5309 46.4832C78.5309 40.9005 78.5309 28.7375 78.5309 23.2002C78.5309 21.6272 77.3831 20.3518 75.9673 20.3518C67.7591 20.3518 42.1852 20.3518 34.0307 20.3518C32.4577 20.3518 30.994 21.245 30.15 22.7202C28.6624 25.3205 26.9303 29.4665 25.4654 32.0273C25.2054 32.4821 25.1888 33.0582 25.4223 33.5311C25.6559 34.0035 26.1026 34.297 26.5875 34.297C33.957 34.297 55.6294 34.297 66.408 34.297C67.6094 34.297 68.7161 35.0206 69.2996 36.1876C69.8831 37.3542 69.851 38.7807 69.2165 39.9141C67.9519 42.1725 66.5486 44.6775 65.5028 46.5462ZM58.1802 16.8525C58.5245 16.8525 58.8453 16.6593 59.0336 16.3389C60.0279 14.6469 63.2374 9.18568 64.9911 6.20203C65.2235 5.80603 65.2424 5.30086 65.0398 4.88512C64.8372 4.46938 64.4461 4.21028 64.0205 4.21028C56.2927 4.21028 29.7108 4.21028 18.653 4.21028C17.357 4.21028 16.114 4.78223 15.1979 5.80058C14.2813 6.8185 13.7666 8.19967 13.7666 9.63921C13.7666 15.0434 13.7666 23.309 13.7666 28.8391C13.7666 30.3509 14.3241 31.7972 15.309 32.8403C16.2935 33.8838 17.6201 34.4335 18.9792 34.3617C18.9796 34.3617 19.6194 34.3617 19.6194 34.3617C19.6364 34.208 24.7908 24.3206 27.6359 19.4737C28.5959 17.8385 30.2343 16.8525 31.9914 16.8525C38.6356 16.8525 54.9718 16.8525 58.1802 16.8525Z" fill="white"/>
</svg>
