<svg width="640" height="320" viewBox="0 0 640 320" fill="none" xmlns="http://www.w3.org/2000/svg">
<rect width="640" height="320" fill="#E27152"/>
<path fill-rule="evenodd" clip-rule="evenodd" d="M581.988 142.052C581.988 141.813 581.89 141.584 581.721 141.418C581.548 141.248 581.321 141.155 581.077 141.155C576.937 141.167 560.033 141.205 560.033 141.205C556.87 141.205 553.625 139.666 553.625 136.549C553.625 135.493 553.543 126.16 553.543 125.835C553.543 120.645 556.615 118.475 560.123 118.475H585.935C593.579 118.475 593.564 125.085 593.564 127.08C593.564 128.376 592.763 129.699 588.788 129.699C584.813 129.699 583.251 128.956 583.251 128.365C583.251 127.777 582.851 127.866 582.439 127.866C582.027 127.866 569.855 127.881 566.009 127.881C565.723 127.881 565.452 127.993 565.248 128.194C565.048 128.392 564.934 128.662 564.934 128.945C564.934 129.498 564.934 130.588 564.934 131.145C564.934 131.424 565.048 131.695 565.248 131.896C565.452 132.097 565.723 132.209 566.009 132.209C570.604 132.209 588.372 132.209 588.372 132.209C591.535 132.209 593.564 133.748 593.564 136.862V150.952C593.564 153.717 591.397 155.353 587.889 155.353H560.676C555.556 155.353 553.625 152.387 553.625 148.678V145.498C553.625 144.822 554.213 143.313 559.244 143.313C564.275 143.313 564.51 143.986 564.789 144.535C565.059 145.077 565.487 145.498 566.009 145.498C566.531 145.498 577.534 145.506 581.081 145.506C581.321 145.506 581.552 145.413 581.721 145.243C581.89 145.077 581.988 144.849 581.988 144.609C581.988 143.862 581.988 142.799 581.988 142.052Z" fill="white"/>
<path fill-rule="evenodd" clip-rule="evenodd" d="M535.63 142.052C535.63 141.813 535.532 141.584 535.363 141.418C535.19 141.248 534.963 141.155 534.719 141.155C530.58 141.167 513.675 141.205 513.675 141.205C510.512 141.205 507.267 139.666 507.267 136.549C507.267 135.493 507.185 126.16 507.185 125.835C507.185 120.645 510.257 118.475 513.765 118.475H539.577C547.221 118.475 547.206 125.085 547.206 127.08C547.206 128.376 546.405 129.699 542.43 129.699C538.455 129.699 536.893 128.956 536.893 128.365C536.893 127.777 536.493 127.866 536.081 127.866C535.669 127.866 523.497 127.881 519.651 127.881C519.365 127.881 519.094 127.993 518.89 128.194C518.69 128.392 518.576 128.662 518.576 128.945C518.576 129.498 518.576 130.588 518.576 131.145C518.576 131.424 518.69 131.695 518.89 131.896C519.094 132.097 519.365 132.209 519.651 132.209C524.246 132.209 542.014 132.209 542.014 132.209C545.177 132.209 547.206 133.748 547.206 136.862V150.952C547.206 153.717 545.04 155.353 541.531 155.353H514.318C509.198 155.353 507.267 152.387 507.267 148.678V145.498C507.267 144.822 507.855 143.313 512.886 143.313C517.917 143.313 518.152 143.986 518.431 144.535C518.702 145.077 519.129 145.498 519.651 145.498C520.173 145.498 531.176 145.506 534.723 145.506C534.963 145.506 535.194 145.413 535.363 145.243C535.532 145.077 535.63 144.849 535.63 144.609C535.63 143.862 535.63 142.799 535.63 142.052Z" fill="white"/>
<path fill-rule="evenodd" clip-rule="evenodd" d="M498.085 155.384L469.024 155.353C463.656 155.353 460.995 153.355 460.995 148.038C460.995 127.795 460.866 125.988 460.866 125.988C460.866 123.702 461.878 118.579 467.976 118.579H493.423C498.215 118.579 500.95 121.242 500.95 125.988C500.95 125.988 500.95 136.797 500.95 139.125C500.95 140.738 499.733 141.209 498.709 141.209H472.571V143.082C472.571 145.022 473.215 146.2 476.448 146.2C479.172 146.2 498.085 146.223 498.085 146.223C499.314 146.223 500.95 146.479 500.95 150.565C500.95 154.646 499.231 155.384 498.085 155.384ZM487.541 128.09C488.095 128.09 489.331 128.378 489.331 129.882V132.354C489.327 132.354 472.155 132.354 472.151 132.354V129.882C472.151 128.378 473.387 128.09 473.941 128.09H487.541Z" fill="white"/>
<path d="M438.729 151.44L438.662 104.948C438.662 103.729 439.11 102.88 444.631 102.88C450.073 102.88 450.246 103.784 450.25 104.898C450.25 104.898 450.262 130.141 450.262 143.503C450.262 145.497 451.984 145.446 451.984 145.446C453.213 145.446 454.068 145.197 454.068 150.186C454.068 155.178 453.13 155.268 451.984 155.268C451.984 155.268 443.736 155.268 441.574 155.268C438.384 155.268 438.729 152.888 438.729 151.44Z" fill="white"/>
<path d="M407.87 155.572C407.473 155.572 407.148 155.253 407.148 154.861C407.14 149.831 407.097 119.948 407.097 119.948C407.097 118.732 408.019 117.885 413.049 117.885C418.08 117.885 418.111 118.81 418.111 119.948L418.115 124.041L418.119 124.1C418.119 124.1 420.893 118.332 430.711 118.332C432.885 118.332 432.795 119.505 432.795 124.457C432.795 129.413 431.857 130.253 430.711 130.253L427.725 130.257C421.674 130.358 418.68 131.916 418.68 133.016V154.857C418.68 155.253 418.359 155.572 417.958 155.572C415.886 155.572 409.942 155.572 407.87 155.572Z" fill="white"/>
<path fill-rule="evenodd" clip-rule="evenodd" d="M396.306 155.384L367.244 155.353C361.876 155.353 359.216 153.355 359.216 148.038C359.216 127.795 359.086 125.988 359.086 125.988C359.086 123.702 360.099 118.579 366.197 118.579H391.644C396.435 118.579 399.17 121.242 399.17 125.988C399.17 125.988 399.17 136.797 399.17 139.125C399.17 140.738 397.954 141.209 396.929 141.209H370.792V143.082C370.792 145.022 371.435 146.2 374.669 146.2C377.392 146.2 396.306 146.223 396.306 146.223C397.534 146.223 399.17 146.479 399.17 150.565C399.17 154.646 397.451 155.384 396.306 155.384ZM385.762 128.09C386.315 128.09 387.551 128.378 387.551 129.882V132.354C387.547 132.354 370.376 132.354 370.372 132.354V129.882C370.372 128.378 371.608 128.09 372.161 128.09H385.762Z" fill="white"/>
<path fill-rule="evenodd" clip-rule="evenodd" d="M274.807 155.384L245.746 155.353C240.378 155.353 237.717 153.355 237.717 148.038C237.717 127.795 237.588 125.988 237.588 125.988C237.588 123.702 238.6 118.579 244.698 118.579H270.145C274.937 118.579 277.672 121.242 277.672 125.988C277.672 125.988 277.672 136.797 277.672 139.125C277.672 140.738 276.455 141.209 275.431 141.209H249.293V143.082C249.293 145.022 249.937 146.2 253.17 146.2C255.893 146.2 274.807 146.223 274.807 146.223C276.035 146.223 277.672 146.479 277.672 150.565C277.672 154.646 275.953 155.384 274.807 155.384ZM264.263 128.09C264.817 128.09 266.053 128.378 266.053 129.882V132.354C266.049 132.354 248.877 132.354 248.873 132.354V129.882C248.873 128.378 250.109 128.09 250.663 128.09H264.263Z" fill="white"/>
<path d="M285.552 155.572C285.155 155.572 284.83 155.253 284.83 154.861C284.822 149.831 284.779 119.948 284.779 119.948C284.779 118.732 285.701 117.885 290.731 117.885C295.762 117.885 295.793 118.81 295.793 119.948L295.797 124.041L295.801 124.1C295.801 124.1 298.575 118.332 308.393 118.332C310.567 118.332 310.477 119.505 310.477 124.457C310.477 129.413 309.539 130.253 308.393 130.253L305.407 130.257C299.356 130.358 296.362 131.916 296.362 133.016V154.857C296.362 155.253 296.041 155.572 295.64 155.572C293.568 155.572 287.624 155.572 285.552 155.572Z" fill="white"/>
<path d="M239.058 176.576L238.991 171.659C238.991 170.442 239.074 169.288 244.595 169.288C250.037 169.288 250.575 170.496 250.579 171.608L250.591 176.576L254.844 176.509C256.073 176.509 256.928 176.257 256.928 181.24C256.928 185.698 256.178 186.238 255.197 186.301V186.308H250.591V201.588C250.591 203.578 251.733 203.594 251.733 203.594L253.883 203.527C255.111 203.527 255.967 203.279 255.967 208.258C255.967 213.241 255.029 213.33 253.883 213.33C253.883 213.33 244.065 213.33 241.903 213.33C238.713 213.33 239.058 210.955 239.058 209.509V186.308L237.41 186.312C236.182 186.312 235.326 186.565 235.326 181.582C235.326 176.603 236.264 176.509 237.41 176.509L239.058 176.576Z" fill="white"/>
<path d="M393.643 174.609L378.579 192.517C378.579 192.517 391.795 207.885 396.296 212.118C396.535 212.344 396.614 212.694 396.492 213.001C396.367 213.308 396.068 213.51 395.735 213.51C392.078 213.51 384.618 213.51 382.88 213.51C382.648 213.51 382.425 213.409 382.272 213.234C380.561 211.314 370.405 199.494 370.405 199.494V212.701C370.405 213.148 370.04 213.51 369.593 213.51C367.462 213.51 361.757 213.51 359.63 213.51C359.414 213.51 359.206 213.424 359.053 213.273C358.9 213.121 358.814 212.915 358.814 212.701C358.814 206.715 358.806 166.536 358.814 166.373V166.365H358.818C358.818 165.293 359.489 164.877 364.413 164.877C369.287 164.877 370.382 165.444 370.382 166.365L370.405 186.616L380.349 174.291C381.251 173.094 382.931 172.67 387.157 172.67C391.681 172.67 394.106 173.883 393.643 174.609Z" fill="white"/>
<path d="M275.709 176.512H298.888C303.345 176.512 303.424 179.521 303.424 180.828V212.931C303.424 213.331 303.098 213.654 302.694 213.654C300.599 213.654 294.595 213.654 292.503 213.654C292.099 213.654 291.773 213.331 291.773 212.931C291.773 212.653 291.773 212.4 291.773 212.4C290.004 213.047 288.054 213.309 286.127 213.309H277.117C269.968 213.309 262.426 211.256 262.426 196.168V192.777C262.426 179.419 267.829 176.512 275.709 176.512ZM291.699 198.452V191.392C291.699 187.793 290.18 186.478 285.452 186.478H279.872C275.371 186.478 273.233 188.001 273.233 191.877V196.583C273.233 201.151 275.595 202.535 278.973 202.535H285.903C288.944 202.535 291.699 201.704 291.699 198.452Z" fill="white"/>
<path d="M347.232 197.548C351.517 197.548 352.976 198.361 352.976 200.498C352.976 212.097 346.176 213.135 339.611 213.135H325.744C318.166 213.135 310.173 211.46 310.173 196.254V192.833C310.173 179.373 315.902 176.442 324.253 176.442H339.313C347.106 176.442 352.878 181.083 352.878 186.358L352.961 188.589C352.961 189.953 351.98 191.244 347.616 191.244C343.253 191.244 341.879 190.886 341.879 188.589C341.879 186.296 336.754 186.486 335.259 186.486H328.667C323.896 186.486 321.628 188.022 321.628 191.928V196.67C321.628 201.276 325.088 202.671 328.667 202.671H335.734C337.559 202.671 341.879 203.328 341.879 200.498C341.879 200.495 341.593 197.548 347.232 197.548Z" fill="white"/>
<path fill-rule="evenodd" clip-rule="evenodd" d="M218.931 200.159C218.931 199.919 218.832 199.691 218.664 199.524C218.491 199.354 218.263 199.261 218.02 199.261C213.88 199.273 196.976 199.312 196.976 199.312C193.813 199.312 190.568 197.772 190.568 194.655C190.568 193.599 190.485 184.266 190.485 183.941C190.485 178.751 193.558 176.581 197.066 176.581H222.878C230.522 176.581 230.506 183.191 230.506 185.187C230.506 186.482 230.761 188.223 225.731 188.223C220.7 188.223 220.194 187.48 220.194 186.892C220.194 186.301 219.794 185.972 219.382 185.972C218.97 185.972 206.797 185.987 202.952 185.987C202.666 185.987 202.395 186.1 202.191 186.301C201.991 186.498 201.877 186.769 201.877 187.051C201.877 187.604 201.877 188.695 201.877 189.252C201.877 189.53 201.991 189.801 202.191 190.002C202.395 190.203 202.666 190.315 202.952 190.315C207.547 190.315 225.315 190.315 225.315 190.315C228.478 190.315 230.506 191.855 230.506 194.968V209.058C230.506 211.824 228.34 213.46 224.832 213.46H197.619C192.498 213.46 190.568 210.493 190.568 206.784V203.605C190.568 202.928 191.156 201.42 196.187 201.42C201.217 201.42 201.453 202.093 201.732 202.642C202.002 203.183 202.43 203.605 202.952 203.605C203.474 203.605 214.477 203.613 218.024 203.613C218.263 203.613 218.495 203.52 218.664 203.35C218.832 203.183 218.931 202.955 218.931 202.715C218.931 201.969 218.931 200.905 218.931 200.159Z" fill="white"/>
<path d="M335.176 144.512L342.789 119.869C343.369 118.601 344.947 118.197 349.228 118.197C353.921 118.197 356.099 119.099 355.675 120.261C355.675 120.261 344.966 147.847 342.573 154.011C342.29 154.742 341.58 155.228 340.791 155.228C338.135 155.228 332.158 155.228 329.521 155.228C328.741 155.228 328.038 154.758 327.748 154.038C325.272 147.92 314.069 120.261 314.069 120.261C313.645 119.099 315.827 118.197 320.52 118.197C324.801 118.197 326.378 118.601 326.959 119.869L335.176 144.512Z" fill="white"/>
<path fill-rule="evenodd" clip-rule="evenodd" d="M218.671 142.4C218.671 142.16 218.573 141.932 218.405 141.765C218.232 141.595 218.004 141.502 217.761 141.502C213.621 141.514 196.717 141.553 196.717 141.553C193.554 141.553 190.309 140.013 190.309 136.896C190.309 135.84 190.226 126.507 190.226 126.183C190.226 120.992 193.299 118.822 196.807 118.822H222.619C230.263 118.822 230.247 125.432 230.247 127.428C230.247 128.724 229.447 130.046 225.472 130.046C221.497 130.046 219.935 128.886 219.935 128.294C219.935 127.706 219.535 127.795 219.123 127.795C218.711 127.795 206.538 127.811 202.693 127.811C202.406 127.811 202.136 127.923 201.932 128.12C201.731 128.321 201.618 128.592 201.618 128.874C201.618 129.427 201.618 130.518 201.618 131.071C201.618 131.354 201.731 131.624 201.932 131.825C202.136 132.023 202.406 132.135 202.693 132.135C207.288 132.135 225.056 132.135 225.056 132.135C228.219 132.135 230.247 133.678 230.247 136.792V151.299C230.247 154.065 228.081 155.701 224.573 155.701H197.36C192.239 155.701 190.309 152.734 190.309 149.025V145.846C190.309 145.169 190.897 143.661 195.928 143.661C200.958 143.661 201.194 144.751 201.472 145.301C201.743 145.842 202.171 146.264 202.693 146.264C203.215 146.264 214.218 146.271 217.765 146.271C218.004 146.271 218.236 146.179 218.405 146.008C218.573 145.842 218.671 145.614 218.671 145.378C218.671 144.628 218.671 143.146 218.671 142.4Z" fill="white"/>
<path fill-rule="evenodd" clip-rule="evenodd" d="M74.1115 182.013C74.1885 181.903 74.1966 181.759 74.1322 181.634C74.0678 181.514 73.9414 181.44 73.8041 181.44C70.8918 181.44 59.5454 181.44 52.0578 181.44C50.2486 181.44 48.5135 180.727 47.2347 179.461C45.956 178.194 45.2384 176.475 45.2399 174.68C45.2475 165.347 45.261 149.016 45.2661 143.327C45.2671 142.001 45.6179 140.699 46.2836 139.55C48.6851 135.404 54.745 124.942 57.9003 119.495C59.1247 117.382 61.3963 116.078 63.8561 116.078H134.347C135.83 116.078 137.197 116.876 137.915 118.161C138.634 119.447 138.592 121.017 137.806 122.263C135.189 126.406 131.924 131.577 130.225 134.267C129.994 134.633 129.982 135.094 130.193 135.471C130.404 135.849 130.805 136.083 131.241 136.083C135.006 136.083 142.891 136.083 148.415 136.083C151.734 136.083 154.424 138.748 154.424 142.035C154.424 150.13 154.424 164.476 154.424 172.118C154.424 175.478 153.564 178.788 151.924 181.729C149.859 185.437 146.507 190.691 144.392 194.485C142.738 197.456 139.584 199.3 136.16 199.3C122.203 199.3 86.0443 199.3 70.0031 199.3C68.4869 199.3 67.0949 198.473 66.3849 197.142C65.6748 195.816 65.7629 194.211 66.6138 192.969C69.4979 188.752 72.9606 183.698 74.1115 182.013ZM84.3076 178.862C82.9242 178.862 81.6268 179.525 80.8297 180.647C78.6311 183.738 74.1372 190.053 71.8757 193.229C71.6115 193.602 71.5782 194.086 71.7896 194.49C72.0005 194.893 72.4207 195.148 72.8796 195.148C83.0067 195.148 122.295 195.148 134.631 195.148C136.905 195.148 139.005 193.941 140.139 191.987C141.753 189.211 144.526 185.163 146.188 182.302C146.601 181.594 146.6 180.717 146.185 180.009C145.771 179.296 145.006 178.862 144.178 178.862C131.707 178.862 93.8575 178.862 84.3076 178.862ZM66.8957 161.342C64.5697 161.35 62.3761 162.414 60.9434 164.23C58.8992 166.82 55.8783 170.647 53.6354 173.489C53.0768 174.197 52.9747 175.159 53.3722 175.966C53.7698 176.774 54.5976 177.287 55.5049 177.287C63.0841 177.287 76.8491 177.287 76.8491 177.287C77.603 175.712 79.2058 174.705 80.9661 174.705C89.4079 174.705 113.993 174.705 122.218 174.705C123.906 174.705 125.472 173.838 126.353 172.412C127.918 169.88 130.42 165.832 131.965 163.331C132.242 162.883 132.252 162.321 131.992 161.864C131.732 161.406 131.242 161.123 130.711 161.125C119.979 161.161 79.391 161.299 66.8957 161.342ZM132.458 171.33C132.03 172.008 132.008 172.871 132.402 173.569C132.795 174.271 133.542 174.705 134.352 174.705C137.881 174.705 142.962 174.705 146.322 174.705C147.245 174.705 148.131 174.341 148.785 173.698C149.437 173.05 149.805 172.173 149.805 171.256C149.805 164.629 149.805 150.191 149.805 143.618C149.805 141.751 148.276 140.237 146.391 140.237C135.462 140.237 101.41 140.237 90.5522 140.237C88.4578 140.237 86.5087 141.297 85.385 143.048C83.4043 146.135 81.098 151.056 79.1474 154.096C78.8012 154.636 78.7791 155.32 79.0901 155.881C79.4011 156.442 79.9959 156.79 80.6415 156.79C90.4541 156.79 119.311 156.79 133.663 156.79C135.263 156.79 136.736 157.649 137.513 159.034C138.29 160.419 138.247 162.112 137.402 163.458C135.719 166.139 133.85 169.112 132.458 171.33ZM122.707 136.083C123.166 136.083 123.593 135.854 123.844 135.473C125.168 133.465 129.441 126.982 131.776 123.441C132.086 122.97 132.111 122.371 131.841 121.877C131.571 121.384 131.051 121.076 130.484 121.076C120.194 121.076 84.8003 121.076 70.0766 121.076C68.351 121.076 66.6959 121.755 65.476 122.964C64.2557 124.172 63.5703 125.812 63.5703 127.521C63.5703 133.935 63.5703 143.747 63.5703 150.312C63.5703 152.106 64.3126 153.823 65.624 155.061C66.9349 156.3 68.7013 156.952 70.5109 156.867C70.5114 156.867 71.3634 156.867 71.3634 156.867C71.386 156.685 78.2491 144.948 82.0375 139.194C83.3157 137.253 85.4972 136.083 87.8368 136.083C96.6837 136.083 118.436 136.083 122.707 136.083Z" fill="white"/>
</svg>
