<svg width="433" height="107" viewBox="0 0 433 107" fill="none" xmlns="http://www.w3.org/2000/svg">
<path fill-rule="evenodd" clip-rule="evenodd" d="M300.304 12.3882C302.461 8.59421 304.527 4.98721 305.496 3.36421C306.038 2.45821 306.456 1.80921 306.666 1.54621C306.875 1.28521 307.067 1.15621 307.171 1.09721C308.078 0.581208 309.854 0.107208 313.187 0.107208C315.414 0.107208 316.731 0.319208 317.515 0.582208C318.759 0.999208 319.351 1.64621 319.718 2.25321C320.102 2.88821 320.245 3.58721 320.248 4.35321C320.248 4.35621 320.248 4.35821 320.248 4.36121C320.248 4.36121 320.252 14.2372 320.255 23.7712C322.651 19.6682 324.922 15.8082 325.36 15.2282C326.297 13.9882 328.68 12.8442 331.75 12.8442H351.201C353.899 12.8442 355.982 13.7132 357.428 15.1602C358.24 15.9732 358.872 16.9882 359.272 18.2042C360.399 16.2962 361.211 14.9312 361.344 14.7362C362.33 13.2832 364.717 12.5212 366.837 12.5212C368.957 12.5212 383.838 12.5932 387.126 12.5932C390.544 12.5932 392.536 13.7182 393.763 15.0212C394.701 16.0172 395.202 17.1972 395.467 18.2952C396.622 16.3392 397.457 14.9342 397.592 14.7362C398.579 13.2832 400.966 12.5212 403.086 12.5212C405.206 12.5212 420.086 12.5932 423.375 12.5932C426.793 12.5932 428.784 13.7182 430.012 15.0212C431.865 16.9892 432.011 19.6722 432.011 21.0292C432.011 22.3372 431.898 23.7032 431.161 24.7802C430.974 25.0532 430.746 25.3252 430.462 25.5812C431.418 26.6132 432.011 28.0232 432.011 29.8692C432.011 31.7182 431.888 39.0702 431.828 42.6012C431.808 43.8512 431.356 45.0272 430.708 46.0962C428.81 49.2282 422.937 59.3612 422.921 59.3822C422.921 59.3822 422.188 60.7762 418.203 60.7762C413.978 60.7762 394.676 60.6632 390.264 60.6632C388.864 60.6632 387.747 60.1772 386.965 59.3822C386.687 59.1002 386.449 58.7762 386.259 58.4132C385.845 59.0172 385.598 59.3782 385.595 59.3822C385.595 59.3822 384.861 60.7762 380.877 60.7762C376.652 60.7762 358.428 60.6632 354.015 60.6632C352.616 60.6632 351.498 60.1772 350.716 59.3822C350.6 59.2642 350.491 59.1392 350.389 59.0062L350.254 59.2422C350.254 59.2422 349.521 60.6672 345.536 60.6672H317.394C315.995 60.6672 314.877 60.1712 314.095 59.3582C313.417 58.6542 312.977 57.6922 312.878 56.5232C311.55 58.0932 310.625 59.1732 310.597 59.1962C310.597 59.1962 308.846 60.6722 306.632 60.6722H298.228C297.017 60.6722 295.531 60.2772 294.521 59.1592C293.85 58.4152 293.355 57.3452 293.355 55.7992C293.355 55.0472 293.342 52.4882 293.324 49.1512L287.311 60.0042C287.066 60.4372 286.61 60.7032 286.116 60.7032H276.17C276.049 60.7032 275.926 60.7002 275.801 60.6912C275.729 60.8562 275.643 61.0172 275.543 61.1752C275.518 61.2152 267.707 70.6072 265.124 73.7122L278.965 89.3742C279.417 89.8122 279.516 90.5012 279.204 91.0482L270.887 105.66C270.641 106.089 270.185 106.355 269.69 106.355C269.69 106.355 269.667 106.425 268.213 106.425C267.906 106.425 267.168 106.308 266.474 105.567C265.529 104.559 255.352 92.8722 255.352 92.8722L250.935 105.66C250.715 106.16 250.22 106.484 249.673 106.484H239.983C238.772 106.484 237.285 106.088 236.276 104.97C235.794 104.436 235.403 103.734 235.221 102.809C234.457 104.135 233.971 104.986 233.971 104.986C233.879 105.167 233.092 106.46 229.544 106.46H202.665C199.711 106.46 198.139 105.713 197.311 104.723C197.004 104.356 196.78 103.943 196.631 103.486L195.255 105.853C195 106.242 194.567 106.476 194.102 106.476H189.123C188.781 106.476 187.144 106.352 186.904 106.145C186.175 106.312 185.265 106.476 184.507 106.476H162.017C160.618 106.476 159.5 105.985 158.718 105.181C158.63 105.09 158.546 104.995 158.466 104.896C158.403 104.995 158.365 105.051 158.357 105.058C158.357 105.058 156.606 106.534 154.393 106.534H144.378C143.167 106.534 141.681 106.138 140.671 105.02C140 104.276 139.505 103.207 139.505 101.661V101.594C138.091 103.606 137.021 105.108 137.015 105.117C137.015 105.117 136.281 106.51 132.297 106.51H105.45C104.051 106.51 102.933 106.025 102.151 105.23C101.378 104.445 100.914 103.331 100.914 101.965C100.914 96.9242 100.899 82.3292 100.9 82.3612C100.9 82.3612 100.903 80.8462 101.851 79.3112C102.661 77.9982 112.276 61.5632 112.764 60.8452C112.8 60.7922 112.838 60.7402 112.878 60.6892C109.7 60.6742 107.022 60.6632 105.66 60.6632C104.261 60.6632 103.143 60.1772 102.361 59.3822C101.589 58.5972 101.124 57.4842 101.124 56.1172C101.124 51.0762 101.124 36.2202 101.124 36.2522C101.124 36.2522 101.128 34.7372 102.076 33.2022C102.886 31.8882 112.501 15.4542 112.989 14.7362C113.975 13.2832 116.362 12.5212 118.482 12.5212C120.602 12.5212 135.483 12.5932 138.771 12.5932C142.189 12.5932 144.181 13.7182 145.408 15.0212C146.982 16.6932 147.325 18.8812 147.392 20.3342C148.939 17.7032 150.173 15.6392 150.483 15.2282C151.42 13.9882 153.804 12.8442 156.874 12.8442H176.324C179.022 12.8442 181.106 13.7132 182.551 15.1602C182.914 15.5232 183.241 15.9272 183.528 16.3712C184.31 15.0672 185.552 13.3092 187.066 12.6562C187.926 12.2842 189.403 11.9802 191.919 11.9802C194.457 11.9802 195.935 12.3112 196.79 12.6962C197.679 13.0962 198.253 13.5802 198.617 14.1152C200.449 13.1242 202.978 12.3352 206.415 12.3352C207.789 12.3352 208.674 12.7532 209.323 13.3582C209.345 13.3792 209.367 13.4002 209.389 13.4212C209.727 13.2012 210.13 13.0022 210.607 12.8362C211.636 12.4782 213.269 12.2172 215.507 12.2172C217.497 12.2172 218.856 12.3452 219.787 12.5892C221.586 13.0602 222.451 13.9552 222.972 15.1092C223 15.1702 223.025 15.2312 223.048 15.2942L226.049 23.5262C226.049 23.5262 231.703 14.0152 231.836 13.9102C231.836 13.9102 233.101 12.9232 234.376 12.5892C235.307 12.3452 236.666 12.2172 238.656 12.2172C242.184 12.2172 244.326 13.0022 245.175 13.7242C245.529 14.0242 245.803 14.3412 246.004 14.6692C247.157 13.6652 249.264 12.8442 251.865 12.8442H271.316C274.014 12.8442 276.097 13.7132 277.543 15.1602C278.045 15.6632 278.479 16.2432 278.831 16.9002C279.789 15.3092 281.4 12.8312 282.458 12.6562C283.382 12.5032 284.796 11.9802 287.311 11.9802C289.849 11.9802 291.327 12.3112 292.183 12.6962C293.072 13.0962 293.646 13.5802 294.009 14.1152C295.563 13.2742 297.618 12.5792 300.304 12.3882ZM180.696 60.9282H198.852C202.343 60.9282 202.405 63.3082 202.405 64.3422V89.7292C202.405 90.0452 202.149 90.3012 201.833 90.3012C200.194 90.3012 195.491 90.3012 193.851 90.3012C193.536 90.3012 193.279 90.0452 193.279 89.7292V89.3092C191.892 89.8202 190.365 90.0272 188.855 90.0272H181.798C176.199 90.0272 170.292 88.4042 170.292 76.4722V73.7902C170.292 63.2272 174.524 60.9282 180.696 60.9282ZM273.077 59.4212L261.277 73.5822C261.277 73.5822 271.63 85.7352 275.154 89.0832C275.343 89.2632 275.404 89.5392 275.307 89.7822C275.21 90.0242 274.975 90.1832 274.714 90.1832C271.849 90.1832 266.007 90.1832 264.646 90.1832C264.463 90.1832 264.288 90.1042 264.167 89.9672C262.828 88.4482 254.874 79.0992 254.874 79.0992V89.5452C254.874 89.8982 254.589 90.1832 254.237 90.1832C252.57 90.1832 248.099 90.1832 246.433 90.1832C246.264 90.1832 246.102 90.1162 245.982 89.9962C245.862 89.8772 245.795 89.7142 245.795 89.5452C245.794 84.8122 245.786 53.0372 245.795 52.9092L245.796 52.9032C245.796 52.0552 246.324 51.7242 250.181 51.7242C253.999 51.7242 254.856 52.1732 254.856 52.9032L254.874 68.9182L262.662 59.1712C263.369 58.2242 264.685 57.8872 267.995 57.8872C271.54 57.8872 273.439 58.8482 273.077 59.4212ZM136.221 79.6362C136.221 79.4482 136.146 79.2672 136.012 79.1342C135.879 79.0012 135.698 78.9272 135.51 78.9272C132.267 78.9352 119.024 78.9682 119.024 78.9682C116.548 78.9682 114.004 77.7502 114.004 75.2852C114.004 74.4482 113.939 67.0692 113.939 66.8132C113.939 62.7072 116.348 60.9902 119.096 60.9902H139.313C145.302 60.9902 145.29 66.2192 145.29 67.7972C145.29 68.8232 145.489 70.1992 141.549 70.1992C137.61 70.1992 137.213 69.6122 137.213 69.1452C137.213 68.6782 136.898 68.4182 136.575 68.4182C136.252 68.4182 126.719 68.4302 123.705 68.4302C123.482 68.4302 123.268 68.5192 123.111 68.6772C122.953 68.8342 122.864 69.0482 122.864 69.2712C122.864 69.7092 122.864 70.5732 122.864 71.0102C122.864 71.2332 122.953 71.4472 123.111 71.6052C123.268 71.7632 123.482 71.8512 123.705 71.8512C127.304 71.8512 141.224 71.8512 141.224 71.8512C143.701 71.8512 145.29 73.0692 145.29 75.5342V86.6732C145.29 88.8612 143.594 90.1562 140.846 90.1562H119.529C115.517 90.1562 114.004 87.8102 114.004 84.8772V82.3632C114.004 81.8262 114.467 80.6332 118.407 80.6332C122.346 80.6332 122.532 81.1672 122.749 81.6002C122.963 82.0282 123.297 82.3632 123.705 82.3632C124.114 82.3632 132.735 82.3672 135.512 82.3682C135.7 82.3692 135.88 82.2942 136.013 82.1612C136.146 82.0282 136.221 81.8482 136.221 81.6602C136.221 81.0682 136.221 80.2282 136.221 79.6362ZM151.988 60.9882L151.935 57.0972C151.935 56.1352 152 55.2222 156.324 55.2222C160.587 55.2222 161.008 56.1782 161.011 57.0592L161.02 60.9882L164.353 60.9332C165.314 60.9332 165.984 60.7342 165.984 64.6742C165.984 68.2012 165.397 68.6282 164.629 68.6782V68.6832H161.02V80.7652C161.02 82.3412 161.915 82.3522 161.915 82.3522L163.6 82.3002C164.561 82.3002 165.231 82.1022 165.231 86.0412C165.231 89.9812 164.499 90.0522 163.6 90.0522C163.6 90.0522 155.911 90.0532 154.215 90.0532C151.716 90.0532 151.988 88.1732 151.988 87.0302V68.6832L150.696 68.6872C149.735 68.6872 149.065 68.8862 149.065 64.9462C149.065 61.0062 149.797 60.9352 150.696 60.9352L151.988 60.9882ZM236.72 77.5752C240.077 77.5752 241.221 78.2182 241.221 79.9072C241.221 89.0792 235.893 89.8992 230.753 89.8992H219.89C213.955 89.8992 207.693 88.5752 207.693 76.5502V73.8472C207.693 63.2012 212.179 60.8842 218.721 60.8842H230.519C236.624 60.8842 241.143 64.5522 241.143 68.7252L241.208 70.4892C241.208 71.5682 240.441 72.5882 237.023 72.5882C233.606 72.5882 232.529 72.3052 232.529 70.4892C232.529 68.6742 228.515 68.8282 227.342 68.8282H222.179C218.441 68.8282 216.665 70.0412 216.665 73.1302V76.8812C216.665 80.5222 219.376 81.6252 222.179 81.6252H227.715C229.143 81.6252 232.529 82.1442 232.529 79.9072C232.529 79.9052 232.303 77.5752 236.72 77.5752ZM193.222 78.2782V72.6962C193.222 69.8502 192.032 68.8102 188.328 68.8102H183.958C180.431 68.8102 178.756 70.0142 178.756 73.0792V76.8012C178.756 80.4132 180.607 81.5082 183.253 81.5082H188.681C191.062 81.5082 193.222 80.8512 193.222 78.2782ZM218.695 78.0212C218.749 78.1552 218.817 78.2692 218.901 78.3582C219.478 78.9652 220.431 79.0332 221.355 79.0332H228.876C229.058 79.0332 229.278 79.0452 229.52 79.0582L229.516 79.0342C229.516 79.0342 229.408 78.0402 228.415 78.0402L218.695 78.0212ZM185.114 77.9362C185.04 77.5442 184.926 77.2292 184.703 77.0232C184.499 76.8352 184.21 76.7832 183.858 76.7862H180.605V76.8672C180.605 77.6922 180.633 78.2812 180.996 78.6132C181.342 78.9292 181.866 78.9152 182.443 78.9152H185.114V77.9362ZM199.942 40.8382C199.954 43.2262 199.951 45.5092 199.895 45.6092L192.621 58.7382H198.042C200.425 58.7382 201.818 59.5432 202.696 60.4362C204.058 61.8202 204.254 63.7162 204.254 64.8102V67.3892C205.115 66.0412 205.829 64.9492 206.225 64.4032C206.754 63.4372 207.373 62.6272 208.064 61.9482C208.559 61.4592 209.096 61.0342 209.67 60.6672C208.203 60.3562 206.981 59.2032 205.837 56.3942C204.893 54.0782 201.735 45.6462 199.942 40.8382ZM172.22 60.5832C171.765 60.6362 171.248 60.6672 170.66 60.6672H167.982C168.043 60.8202 168.099 60.9852 168.15 61.1642C168.346 61.8532 168.494 62.9582 168.494 64.7402C168.494 64.9592 168.492 65.1692 168.487 65.3692C169.661 63.3712 170.449 62.0272 170.456 62.0202C170.995 61.4622 171.584 60.9852 172.22 60.5832ZM233.047 48.8442C231.241 52.0122 228.699 56.4612 227.423 58.6942H231.679C232.396 58.6942 233.093 58.7342 233.766 58.8102C233.263 58.0672 232.972 57.1242 232.972 56.0202C232.972 54.2932 233.004 51.6262 233.047 48.8442ZM136.016 33.9092C136.016 33.7202 135.941 33.5402 135.808 33.4072C135.674 33.2742 135.494 33.2002 135.306 33.2002C132.062 33.2082 118.82 33.2402 118.82 33.2402C116.343 33.2402 113.8 32.0232 113.8 29.5582C113.8 28.7212 113.734 21.3412 113.734 21.0862C113.734 16.9802 116.144 15.2632 118.892 15.2632H139.109C145.097 15.2632 145.086 20.4912 145.086 22.0692C145.086 23.0962 144.459 24.1412 141.345 24.1412C138.23 24.1412 137.008 23.2232 137.008 22.7562C137.008 22.2892 136.694 22.3602 136.37 22.3602C136.047 22.3602 126.514 22.3722 123.501 22.3722C123.278 22.3722 123.064 22.4612 122.906 22.6192C122.748 22.7762 122.66 22.9902 122.66 23.2132C122.66 23.6512 122.66 24.5152 122.66 24.9522C122.66 25.1752 122.748 25.3892 122.906 25.5472C123.064 25.7052 123.278 25.7932 123.501 25.7932C127.1 25.7932 141.019 25.7932 141.019 25.7932C143.496 25.7932 145.086 27.0112 145.086 29.4762V40.9462C145.086 43.1342 143.39 44.4292 140.642 44.4292H119.324C115.313 44.4292 113.8 42.0822 113.8 39.1502V36.6362C113.8 36.0992 114.263 34.9062 118.202 34.9062C122.142 34.9062 122.327 35.7712 122.544 36.2042C122.758 36.6312 123.092 36.9672 123.501 36.9672C123.909 36.9672 132.53 36.9712 135.307 36.9722C135.495 36.9722 135.675 36.8972 135.808 36.7652C135.941 36.6322 136.016 36.4512 136.016 36.2632C136.016 35.6712 136.016 34.5012 136.016 33.9092ZM284.222 44.3762C283.91 44.3762 283.657 44.1242 283.656 43.8122C283.651 39.8352 283.615 16.2032 283.615 16.2032C283.615 15.2422 284.339 14.5722 288.279 14.5722C292.218 14.5722 292.243 15.3042 292.243 16.2032L292.246 19.4402L292.249 19.4882C292.249 19.4882 294.423 14.9242 302.114 14.9242C303.818 14.9242 303.745 15.8522 303.745 19.7702C303.745 23.6882 303.013 24.3512 302.114 24.3512L299.775 24.3562C295.034 24.4342 292.69 25.6672 292.69 26.5382V43.8112C292.69 44.1232 292.436 44.3762 292.124 44.3762C290.502 44.3762 285.843 44.3762 284.222 44.3762ZM188.407 44.3762C188.095 44.3762 187.842 44.1242 187.841 43.8122C187.835 39.8352 187.8 16.2032 187.8 16.2032C187.8 15.2422 188.524 14.5722 192.464 14.5722C196.403 14.5722 196.428 15.3042 196.428 16.2032L196.431 19.4402L196.433 19.4882C196.433 19.4882 198.608 14.9242 206.298 14.9242C208.003 14.9242 207.929 15.8522 207.929 19.7702C207.929 23.6882 207.197 24.3512 206.298 24.3512L203.959 24.3562C199.219 24.4342 196.874 25.6672 196.874 26.5382V43.8112C196.874 44.1232 196.621 44.3762 196.309 44.3762C194.686 44.3762 190.028 44.3762 188.407 44.3762ZM179.989 44.2102L157.226 44.1842C153.021 44.1842 150.936 42.6042 150.936 38.3992C150.936 22.3902 150.835 20.9612 150.835 20.9612C150.835 19.1562 151.627 15.1032 156.404 15.1032H176.337C180.09 15.1032 182.235 17.2082 182.235 20.9612V31.3532C182.235 32.6262 181.281 32.9982 180.479 32.9982H160.005V34.4792C160.005 36.0132 160.508 36.9442 163.041 36.9442C165.174 36.9442 179.989 36.9632 179.989 36.9632C180.95 36.9632 182.235 37.1672 182.235 40.3962C182.235 43.6262 180.888 44.2102 179.989 44.2102ZM275.16 44.2102L252.397 44.1842C248.192 44.1842 246.107 42.6042 246.107 38.3992C246.107 22.3902 246.006 20.9612 246.006 20.9612C246.006 19.1562 246.798 15.1032 251.575 15.1032H271.508C275.26 15.1032 277.406 17.2082 277.406 20.9612V31.3532C277.406 32.6262 276.452 32.9982 275.65 32.9982H255.176V34.4792C255.176 36.0132 255.679 36.9442 258.212 36.9442C260.345 36.9442 275.16 36.9632 275.16 36.9632C276.121 36.9632 277.406 37.1672 277.406 40.3962C277.406 43.6262 276.059 44.2102 275.16 44.2102ZM354.889 44.2102L332.126 44.1842C327.921 44.1842 325.836 42.6042 325.836 38.3992C325.836 22.3902 325.735 20.9612 325.735 20.9612C325.735 19.1562 326.527 15.1032 331.304 15.1032H351.237C354.99 15.1032 357.135 17.2082 357.135 20.9612V31.3532C357.135 32.6262 356.181 32.9982 355.379 32.9982H334.905V34.4792C334.905 36.0132 335.408 36.9442 337.941 36.9442C340.074 36.9442 354.889 36.9632 354.889 36.9632C355.85 36.9632 357.135 37.1672 357.135 40.3962C357.135 43.6262 355.788 44.2102 354.889 44.2102ZM384.296 33.6732C384.296 33.4842 384.221 33.3042 384.088 33.1712C383.955 33.0382 383.774 32.9642 383.586 32.9642C380.342 32.9722 367.1 33.0042 367.1 33.0042C364.623 33.0042 362.08 31.7872 362.08 29.3222C362.08 28.4852 362.015 21.1052 362.015 20.8502C362.015 16.7442 364.424 15.0272 367.172 15.0272H387.389C393.377 15.0272 393.366 20.2552 393.366 21.8332C393.366 22.8602 392.739 23.9052 389.625 23.9052C386.511 23.9052 385.288 23.3182 385.288 22.8512C385.288 22.3842 384.974 22.4552 384.65 22.4552C384.327 22.4552 374.794 22.4672 371.781 22.4672C371.558 22.4672 371.344 22.5562 371.186 22.7132C371.028 22.8712 370.94 23.0852 370.94 23.3082C370.94 23.7462 370.94 24.6102 370.94 25.0472C370.94 25.2702 371.028 25.4842 371.186 25.6422C371.344 25.7992 371.558 25.8882 371.781 25.8882C375.38 25.8882 389.299 25.8882 389.299 25.8882C391.776 25.8882 393.366 27.1062 393.366 29.5702V40.7102C393.366 42.8982 391.67 44.1932 388.922 44.1932H367.604C363.593 44.1932 362.08 41.8462 362.08 38.9142V36.4002C362.08 35.8632 362.543 34.6702 366.482 34.6702C370.422 34.6702 370.608 35.2042 370.824 35.6372C371.038 36.0652 371.372 36.4002 371.781 36.4002C372.19 36.4002 380.81 36.4042 383.587 36.4052C383.775 36.4052 383.955 36.3312 384.088 36.1982C384.221 36.0652 384.296 35.8852 384.296 35.6972C384.296 35.1052 384.296 34.2652 384.296 33.6732ZM420.611 33.6732C420.611 33.4842 420.536 33.3042 420.403 33.1712C420.269 33.0382 420.089 32.9642 419.9 32.9642C416.657 32.9722 403.415 33.0042 403.415 33.0042C400.938 33.0042 398.394 31.7872 398.394 29.3222C398.394 28.4852 398.329 21.1052 398.329 20.8502C398.329 16.7442 400.738 15.0272 403.487 15.0272H423.704C429.692 15.0272 429.681 20.2552 429.681 21.8332C429.681 22.8602 429.054 23.9052 425.94 23.9052C422.825 23.9052 421.603 23.3182 421.603 22.8512C421.603 22.3842 421.288 22.4552 420.965 22.4552C420.642 22.4552 411.109 22.4672 408.096 22.4672C407.873 22.4672 407.659 22.5562 407.501 22.7132C407.343 22.8712 407.255 23.0852 407.255 23.3082C407.255 23.7462 407.255 24.6102 407.255 25.0472C407.255 25.2702 407.343 25.4842 407.501 25.6422C407.659 25.7992 407.873 25.8882 408.096 25.8882C411.694 25.8882 425.614 25.8882 425.614 25.8882C428.091 25.8882 429.681 27.1062 429.681 29.5702V40.7102C429.681 42.8982 427.985 44.1932 425.236 44.1932H403.919C399.908 44.1932 398.394 41.8462 398.394 38.9142V36.4002C398.394 35.8632 398.858 34.6702 402.797 34.6702C406.737 34.6702 406.922 35.2042 407.139 35.6372C407.353 36.0652 407.687 36.4002 408.096 36.4002C408.504 36.4002 417.125 36.4042 419.902 36.4052C420.09 36.4052 420.27 36.3312 420.403 36.1982C420.536 36.0652 420.611 35.8852 420.611 35.6972C420.611 35.1052 420.611 34.2652 420.611 33.6732ZM308.396 41.1002L308.343 4.33421C308.343 3.37021 308.693 2.69921 313.017 2.69921C317.28 2.69921 317.417 3.41221 317.42 4.29621C317.42 4.29621 317.429 24.2572 317.429 34.8222C317.429 36.4012 318.779 36.3602 318.779 36.3602C319.74 36.3602 320.41 36.1622 320.41 40.1092C320.41 44.0562 319.678 44.1282 318.779 44.1282C318.779 44.1282 312.319 44.1282 310.624 44.1282C308.124 44.1282 308.396 42.2452 308.396 41.1002ZM227.276 35.6172L233.24 16.1312C233.695 15.1272 234.93 14.8092 238.284 14.8092C241.96 14.8092 243.667 15.5212 243.336 16.4402C243.336 16.4402 234.947 38.2552 233.072 43.1322C232.85 43.7102 232.294 44.0912 231.675 44.0912C229.596 44.0912 224.914 44.0912 222.848 44.0912C222.236 44.0912 221.687 43.7192 221.459 43.1522C219.519 38.3152 210.743 16.4402 210.743 16.4402C210.413 15.5212 212.12 14.8092 215.796 14.8092C219.149 14.8092 220.385 15.1272 220.84 16.1312L227.276 35.6172ZM346.63 22.6262C347.065 22.6262 348.032 22.8532 348.032 24.0412V25.9962C348.03 25.9952 334.577 25.9952 334.574 25.9962V24.0412C334.574 22.8532 335.542 22.6262 335.976 22.6262H346.63ZM171.73 22.6262C172.164 22.6262 173.132 22.8532 173.132 24.0412V25.9962C173.13 25.9952 159.677 25.9952 159.674 25.9962V24.0412C159.674 22.8532 160.642 22.6262 161.076 22.6262H171.73ZM266.901 22.6262C267.335 22.6262 268.303 22.8532 268.303 24.0412V25.9962C268.301 25.9952 254.847 25.9952 254.845 25.9962V24.0412C254.845 22.8532 255.813 22.6262 256.247 22.6262H266.901Z" fill="white"/>
<path fill-rule="evenodd" clip-rule="evenodd" d="M22.7808 65.2873C22.8411 65.2005 22.8474 65.0862 22.7969 64.9877C22.7465 64.8931 22.6475 64.8339 22.5399 64.8339C20.2587 64.8339 11.3708 64.8339 5.50552 64.8339C4.08838 64.8339 2.72917 64.2702 1.72752 63.269C0.725871 62.2677 0.163752 60.9077 0.164934 59.4886C0.170847 52.1081 0.181491 39.1935 0.185433 34.6945C0.186221 33.6463 0.460989 32.6167 0.982511 31.7077C2.86361 28.4292 7.61052 20.1562 10.0821 15.8484C11.0412 14.177 12.8206 13.1466 14.7474 13.1466H69.9644C71.1261 13.1466 72.1968 13.7773 72.7597 14.7935C73.323 15.8102 73.2899 17.0519 72.6738 18.0374C70.6243 21.3135 68.0664 25.4029 66.736 27.53C66.555 27.8194 66.5452 28.184 66.7107 28.4824C66.8759 28.7808 67.1901 28.9661 67.5315 28.9661C70.4804 28.9661 76.6571 28.9661 80.9846 28.9661C83.5839 28.9661 85.6913 31.0734 85.6913 33.6728C85.6913 40.0745 85.6913 51.4191 85.6913 57.4625C85.6913 60.1194 85.0176 62.7368 83.7333 65.0626C82.1151 67.9954 79.4894 72.1502 77.8334 75.1501C76.5377 77.4995 74.0672 78.958 71.3847 78.958C60.4521 78.958 32.1279 78.958 19.5625 78.958C18.3748 78.958 17.2845 78.3036 16.7283 77.2511C16.1721 76.2025 16.241 74.9332 16.9076 73.9517C19.1668 70.6168 21.8792 66.6197 22.7808 65.2873ZM30.7676 62.796C29.6839 62.796 28.6677 63.3202 28.0433 64.2072C26.321 66.6512 22.8009 71.6457 21.0293 74.1567C20.8224 74.4523 20.7964 74.8347 20.9619 75.154C21.1271 75.4733 21.4563 75.6743 21.8158 75.6743C29.7486 75.6743 60.5242 75.6743 70.1868 75.6743C71.9681 75.6743 73.6131 74.7204 74.5012 73.1751C75.7658 70.9795 77.9378 67.7786 79.2403 65.5159C79.5631 64.9561 79.5623 64.2624 79.2375 63.7026C78.9131 63.1389 78.3139 62.796 77.6654 62.796C67.8965 62.796 38.2482 62.796 30.7676 62.796ZM17.1284 48.9411C15.3064 48.9474 13.5881 49.7887 12.4658 51.2243C10.8646 53.273 8.49823 56.2996 6.7413 58.5465C6.30374 59.1063 6.22374 59.8671 6.53515 60.5057C6.84657 61.1443 7.49501 61.5503 8.20575 61.5503C14.1427 61.5503 24.9252 61.5503 24.9252 61.5503C25.5157 60.3046 26.7712 59.5083 28.1501 59.5083C34.7627 59.5083 54.0208 59.5083 60.4635 59.5083C61.7857 59.5083 63.0124 58.8225 63.7026 57.6951C64.9286 55.6925 66.8881 52.4913 68.0987 50.514C68.3155 50.1596 68.3238 49.7153 68.12 49.3535C67.9162 48.9912 67.5326 48.7673 67.1168 48.7689C58.7101 48.7981 26.9163 48.9072 17.1284 48.9411ZM68.4846 56.8397C68.1496 57.3758 68.1326 58.0577 68.4409 58.6096C68.7491 59.1654 69.3337 59.5083 69.9684 59.5083C72.7325 59.5083 76.7131 59.5083 79.3447 59.5083C80.0681 59.5083 80.7622 59.2206 81.2739 58.7121C81.7852 58.1996 82.073 57.5058 82.073 56.7805C82.073 51.5401 82.073 40.1226 82.073 34.9247C82.073 33.4481 80.8758 32.2509 79.3991 32.2509C70.838 32.2509 44.1643 32.2509 35.6591 32.2509C34.0185 32.2509 32.4918 33.0894 31.6115 34.4742C30.06 36.915 28.2534 40.8069 26.7255 43.2107C26.4543 43.6376 26.4369 44.1785 26.6805 44.6223C26.9241 45.0658 27.3901 45.3414 27.8958 45.3414C35.5823 45.3414 58.1866 45.3414 69.4287 45.3414C70.6819 45.3414 71.8361 46.0206 72.4447 47.116C73.0533 48.2111 73.0198 49.5502 72.358 50.6141C71.039 52.7341 69.5754 55.0855 68.4846 56.8397ZM60.8471 28.9661C61.2062 28.9661 61.5409 28.7847 61.7372 28.484C62.7743 26.8957 66.1218 21.7692 67.9509 18.9685C68.1933 18.5967 68.213 18.1225 68.0017 17.7323C67.7904 17.342 67.3825 17.0988 66.9386 17.0988C58.8785 17.0988 31.1535 17.0988 19.6201 17.0988C18.2684 17.0988 16.9719 17.6357 16.0164 18.5916C15.0604 19.5472 14.5235 20.8437 14.5235 22.195C14.5235 27.2679 14.5235 35.0268 14.5235 40.218C14.5235 41.6371 15.105 42.9947 16.1323 43.9739C17.1591 44.9535 18.5428 45.4695 19.9603 45.4021C19.9607 45.4021 20.628 45.4021 20.628 45.4021C20.6458 45.2578 26.0218 35.9764 28.9893 31.4266C29.9906 29.8916 31.6994 28.9661 33.532 28.9661C40.462 28.9661 57.5008 28.9661 60.8471 28.9661Z" fill="white"/>
</svg>
