<svg width="433" height="92" viewBox="0 0 433 92" fill="none" xmlns="http://www.w3.org/2000/svg">
<path fill-rule="evenodd" clip-rule="evenodd" d="M422.028 32.2806C422.028 32.092 421.951 31.9125 421.819 31.7818C421.684 31.6479 421.506 31.575 421.316 31.575C418.074 31.5841 404.838 31.6145 404.838 31.6145C402.361 31.6145 399.82 30.4041 399.82 27.9528C399.82 27.1226 399.756 19.784 399.756 19.5285C399.756 15.4471 402.161 13.741 404.908 13.741H425.119C431.104 13.741 431.092 18.9385 431.092 20.5078C431.092 21.5266 430.465 22.5667 427.353 22.5667C424.241 22.5667 423.018 21.9828 423.018 21.5175C423.018 21.0552 422.704 21.1252 422.382 21.1252C422.059 21.1252 412.528 21.1374 409.517 21.1374C409.293 21.1374 409.081 21.2255 408.921 21.3837C408.764 21.5388 408.675 21.7517 408.675 21.9737C408.675 22.4086 408.675 23.2662 408.675 23.7042C408.675 23.9231 408.764 24.136 408.921 24.2942C409.081 24.4523 409.293 24.5405 409.517 24.5405C413.115 24.5405 427.027 24.5405 427.027 24.5405C429.504 24.5405 431.092 25.7509 431.092 28.1992V39.2785C431.092 41.453 429.396 42.7394 426.649 42.7394H405.342C401.332 42.7394 399.82 40.4068 399.82 37.4902V34.9903C399.82 34.4581 400.281 33.272 404.22 33.272C408.159 33.272 408.343 33.8012 408.561 34.233C408.774 34.6588 409.108 34.9903 409.517 34.9903C409.926 34.9903 418.541 34.9964 421.319 34.9964C421.506 34.9964 421.687 34.9234 421.819 34.7896C421.951 34.6588 422.028 34.4794 422.028 34.2908C422.028 33.7038 422.028 32.8675 422.028 32.2806Z" fill="#E27152"/>
<path fill-rule="evenodd" clip-rule="evenodd" d="M385.73 32.2806C385.73 32.092 385.653 31.9125 385.521 31.7818C385.386 31.6479 385.208 31.575 385.017 31.575C381.776 31.5841 368.539 31.6145 368.539 31.6145C366.063 31.6145 363.522 30.4041 363.522 27.9528C363.522 27.1226 363.457 19.784 363.457 19.5285C363.457 15.4471 365.863 13.741 368.61 13.741H388.821C394.806 13.741 394.794 18.9385 394.794 20.5078C394.794 21.5266 394.167 22.5667 391.055 22.5667C387.942 22.5667 386.719 21.9828 386.719 21.5175C386.719 21.0552 386.406 21.1252 386.083 21.1252C385.761 21.1252 376.23 21.1374 373.219 21.1374C372.994 21.1374 372.782 21.2255 372.623 21.3837C372.466 21.5388 372.377 21.7517 372.377 21.9737C372.377 22.4086 372.377 23.2662 372.377 23.7042C372.377 23.9231 372.466 24.136 372.623 24.2942C372.782 24.4523 372.994 24.5405 373.219 24.5405C376.817 24.5405 390.729 24.5405 390.729 24.5405C393.205 24.5405 394.794 25.7509 394.794 28.1992V39.2785C394.794 41.453 393.098 42.7394 390.351 42.7394H369.043C365.034 42.7394 363.522 40.4068 363.522 37.4902V34.9903C363.522 34.4581 363.983 33.272 367.922 33.272C371.861 33.272 372.045 33.8012 372.263 34.233C372.475 34.6588 372.81 34.9903 373.219 34.9903C373.627 34.9903 382.243 34.9964 385.02 34.9964C385.208 34.9964 385.389 34.9234 385.521 34.7896C385.653 34.6588 385.73 34.4794 385.73 34.2908C385.73 33.7038 385.73 32.8675 385.73 32.2806Z" fill="#E27152"/>
<path fill-rule="evenodd" clip-rule="evenodd" d="M356.333 42.7637L333.578 42.7393C329.374 42.7393 327.291 41.1683 327.291 36.9872C327.291 21.0696 327.19 19.6483 327.19 19.6483C327.19 17.8512 327.983 13.8229 332.757 13.8229H352.682C356.434 13.8229 358.576 15.9165 358.576 19.6483C358.576 19.6483 358.576 28.1481 358.576 29.9789C358.576 31.2473 357.623 31.6171 356.821 31.6171H336.355V33.0903C336.355 34.6155 336.859 35.5416 339.391 35.5416C341.523 35.5416 356.333 35.5598 356.333 35.5598C357.294 35.5598 358.576 35.7616 358.576 38.9739C358.576 42.1831 357.23 42.7637 356.333 42.7637ZM348.077 21.3018C348.51 21.3018 349.478 21.528 349.478 22.7108V24.6547C349.475 24.6547 336.029 24.6547 336.026 24.6547V22.7108C336.026 21.528 336.994 21.3018 337.427 21.3018H348.077Z" fill="#E27152"/>
<path d="M309.857 39.6619L309.804 3.10465C309.804 2.14617 310.155 1.47858 314.478 1.47858C318.739 1.47858 318.874 2.18904 318.877 3.06484C318.877 3.06484 318.887 22.9144 318.887 33.421C318.887 34.9889 320.236 34.9491 320.236 34.9491C321.197 34.9491 321.867 34.7531 321.867 38.6758C321.867 42.6017 321.133 42.6721 320.236 42.6721C320.236 42.6721 313.777 42.6721 312.084 42.6721C309.586 42.6721 309.857 40.801 309.857 39.6619Z" fill="#E27152"/>
<path d="M285.694 42.9114C285.383 42.9114 285.128 42.6608 285.128 42.3521C285.122 38.3971 285.088 14.8997 285.088 14.8997C285.088 13.943 285.81 13.2767 289.749 13.2767C293.688 13.2767 293.713 14.0042 293.713 14.8997L293.716 18.1181L293.719 18.1639C293.719 18.1639 295.891 13.6282 303.579 13.6282C305.281 13.6282 305.21 14.5513 305.21 18.4451C305.21 22.342 304.476 23.0022 303.579 23.0022L301.24 23.0052C296.503 23.0847 294.158 24.3103 294.158 25.1752V42.349C294.158 42.6608 293.906 42.9114 293.593 42.9114C291.971 42.9114 287.316 42.9114 285.694 42.9114Z" fill="#E27152"/>
<path fill-rule="evenodd" clip-rule="evenodd" d="M276.639 42.7637L253.884 42.7393C249.681 42.7393 247.597 41.1683 247.597 36.9872C247.597 21.0696 247.496 19.6483 247.496 19.6483C247.496 17.8512 248.289 13.8229 253.063 13.8229H272.989C276.74 13.8229 278.882 15.9165 278.882 19.6483C278.882 19.6483 278.882 28.1481 278.882 29.9789C278.882 31.2473 277.929 31.6171 277.127 31.6171H256.661V33.0903C256.661 34.6155 257.165 35.5416 259.697 35.5416C261.829 35.5416 276.639 35.5598 276.639 35.5598C277.601 35.5598 278.882 35.7616 278.882 38.9739C278.882 42.1831 277.536 42.7637 276.639 42.7637ZM268.383 21.3018C268.816 21.3018 269.784 21.528 269.784 22.7108V24.6547C269.781 24.6547 256.336 24.6547 256.333 24.6547V22.7108C256.333 21.528 257.3 21.3018 257.734 21.3018H268.383Z" fill="#E27152"/>
<path fill-rule="evenodd" clip-rule="evenodd" d="M181.505 42.7637L158.75 42.7393C154.547 42.7393 152.464 41.1683 152.464 36.9872C152.464 21.0696 152.363 19.6483 152.363 19.6483C152.363 17.8512 153.155 13.8229 157.93 13.8229H177.855C181.607 13.8229 183.748 15.9165 183.748 19.6483C183.748 19.6483 183.748 28.1481 183.748 29.9789C183.748 31.2473 182.796 31.6171 181.994 31.6171H161.528V33.0903C161.528 34.6155 162.032 35.5416 164.564 35.5416C166.696 35.5416 181.505 35.5598 181.505 35.5598C182.467 35.5598 183.748 35.7616 183.748 38.9739C183.748 42.1831 182.403 42.7637 181.505 42.7637ZM173.25 21.3018C173.683 21.3018 174.651 21.528 174.651 22.7108V24.6547C174.648 24.6547 161.202 24.6547 161.199 24.6547V22.7108C161.199 21.528 162.167 21.3018 162.6 21.3018H173.25Z" fill="#E27152"/>
<path d="M189.918 42.9114C189.608 42.9114 189.353 42.6608 189.353 42.3521C189.347 38.3971 189.313 14.8997 189.313 14.8997C189.313 13.943 190.035 13.2767 193.974 13.2767C197.913 13.2767 197.938 14.0042 197.938 14.8997L197.941 18.1181L197.944 18.1639C197.944 18.1639 200.116 13.6282 207.803 13.6282C209.506 13.6282 209.435 14.5513 209.435 18.4451C209.435 22.342 208.701 23.0022 207.803 23.0022L205.465 23.0052C200.727 23.0847 198.383 24.3103 198.383 25.1752V42.349C198.383 42.6608 198.131 42.9114 197.818 42.9114C196.196 42.9114 191.541 42.9114 189.918 42.9114Z" fill="#E27152"/>
<path d="M153.514 59.4269L153.462 55.5606C153.462 54.6039 153.526 53.6962 157.849 53.6962C162.111 53.6962 162.532 54.6467 162.535 55.5208L162.544 59.4269L165.875 59.3749C166.836 59.3749 167.506 59.1763 167.506 63.0945C167.506 66.6002 166.919 67.025 166.151 67.0739V67.08H162.544V79.0947C162.544 80.6596 163.438 80.6718 163.438 80.6718L165.122 80.6198C166.083 80.6198 166.753 80.4242 166.753 84.3394C166.753 88.2577 166.019 88.328 165.122 88.328C165.122 88.328 157.434 88.328 155.741 88.328C153.243 88.328 153.514 86.4605 153.514 85.3236V67.08L152.223 67.0831C151.262 67.0831 150.592 67.2818 150.592 63.3635C150.592 59.4483 151.326 59.3749 152.223 59.3749L153.514 59.4269Z" fill="#E27152"/>
<path d="M274.554 57.8809L262.759 71.9617C262.759 71.9617 273.107 84.0466 276.631 87.375C276.819 87.5523 276.88 87.8274 276.785 88.0688C276.687 88.3103 276.453 88.4692 276.192 88.4692C273.328 88.4692 267.488 88.4692 266.126 88.4692C265.945 88.4692 265.77 88.3898 265.65 88.2522C264.311 86.7424 256.359 77.4479 256.359 77.4479V87.8335C256.359 88.185 256.073 88.4692 255.723 88.4692C254.055 88.4692 249.587 88.4692 247.922 88.4692C247.753 88.4692 247.59 88.402 247.47 88.2828C247.35 88.1636 247.283 88.0016 247.283 87.8335C247.283 83.1266 247.277 51.5328 247.283 51.4045V51.3983H247.286C247.286 50.5548 247.811 50.2277 251.667 50.2277C255.483 50.2277 256.34 50.674 256.34 51.3983L256.359 67.3221L264.145 57.6303C264.851 56.6889 266.166 56.3558 269.475 56.3558C273.018 56.3558 274.917 57.3094 274.554 57.8809Z" fill="#E27152"/>
<path d="M182.211 59.3768H200.361C203.851 59.3768 203.912 61.743 203.912 62.7707V88.0141C203.912 88.3284 203.657 88.5829 203.341 88.5829C201.7 88.5829 196.999 88.5829 195.362 88.5829C195.045 88.5829 194.79 88.3284 194.79 88.0141C194.79 87.7952 194.79 87.5968 194.79 87.5968C193.404 88.1054 191.877 88.3111 190.369 88.3111H183.314C177.716 88.3111 171.811 86.697 171.811 74.8327V72.1662C171.811 61.6626 176.042 59.3768 182.211 59.3768ZM194.732 76.6289V71.0776C194.732 68.2477 193.543 67.2135 189.84 67.2135H185.471C181.947 67.2135 180.272 68.4108 180.272 71.4586V75.1593C180.272 78.7513 182.122 79.8396 184.768 79.8396H190.194C192.575 79.8396 194.732 79.1865 194.732 76.6289Z" fill="#E27152"/>
<path d="M238.214 75.9183C241.569 75.9183 242.712 76.5571 242.712 78.2381C242.712 87.3583 237.387 88.1744 232.247 88.1744H221.389C215.456 88.1744 209.197 86.8571 209.197 74.9005V72.2109C209.197 61.6266 213.683 59.3221 220.221 59.3221H232.014C238.116 59.3221 242.635 62.9715 242.635 67.119L242.7 68.8733C242.7 69.9461 241.932 70.9609 238.515 70.9609C235.098 70.9609 234.023 70.6797 234.023 68.8733C234.023 67.0701 230.01 67.2199 228.84 67.2199H223.678C219.942 67.2199 218.166 68.4271 218.166 71.4988V75.2276C218.166 78.8494 220.876 79.9466 223.678 79.9466H229.211C230.64 79.9466 234.023 80.4631 234.023 78.2381C234.023 78.235 233.799 75.9183 238.214 75.9183Z" fill="#E27152"/>
<path fill-rule="evenodd" clip-rule="evenodd" d="M137.754 77.971C137.754 77.7824 137.677 77.6029 137.545 77.4722C137.409 77.3384 137.231 77.2654 137.041 77.2654C133.799 77.2745 120.563 77.305 120.563 77.305C118.086 77.305 115.545 76.0945 115.545 73.6433C115.545 72.813 115.481 65.4744 115.481 65.2189C115.481 61.1376 117.887 59.4314 120.634 59.4314H140.844C146.83 59.4314 146.817 64.6289 146.817 66.1982C146.817 67.217 147.017 68.5856 143.078 68.5856C139.139 68.5856 138.743 68.0017 138.743 67.5394C138.743 67.0741 138.429 66.8156 138.107 66.8156C137.784 66.8156 128.253 66.8278 125.242 66.8278C125.018 66.8278 124.806 66.916 124.646 67.0741C124.489 67.2292 124.4 67.4421 124.4 67.6641C124.4 68.099 124.4 68.9566 124.4 69.3946C124.4 69.6136 124.489 69.8265 124.646 69.9846C124.806 70.1428 125.018 70.2309 125.242 70.2309C128.84 70.2309 142.753 70.2309 142.753 70.2309C145.229 70.2309 146.817 71.4414 146.817 73.8896V84.9689C146.817 87.1434 145.121 88.4299 142.375 88.4299H121.067C117.057 88.4299 115.545 86.0972 115.545 83.1806V80.6807C115.545 80.1485 116.006 78.9624 119.945 78.9624C123.884 78.9624 124.069 79.4916 124.287 79.9235C124.499 80.3492 124.834 80.6807 125.242 80.6807C125.651 80.6807 134.266 80.6868 137.044 80.6868C137.231 80.6868 137.412 80.6138 137.545 80.48C137.677 80.3493 137.754 80.1698 137.754 79.9812C137.754 79.3943 137.754 78.5579 137.754 77.971Z" fill="#E27152"/>
<path d="M228.774 34.2142L234.735 14.8367C235.19 13.8403 236.425 13.5225 239.777 13.5225C243.452 13.5225 245.157 14.2316 244.825 15.1454C244.825 15.1454 236.44 36.8366 234.566 41.684C234.345 42.2586 233.789 42.6407 233.171 42.6407C231.091 42.6407 226.412 42.6407 224.347 42.6407C223.735 42.6407 223.185 42.2708 222.958 41.7054C221.019 36.8946 212.247 15.1454 212.247 15.1454C211.915 14.2316 213.624 13.5225 217.298 13.5225C220.651 13.5225 221.886 13.8403 222.34 14.8367L228.774 34.2142Z" fill="#E27152"/>
<path fill-rule="evenodd" clip-rule="evenodd" d="M137.551 32.5536C137.551 32.3651 137.474 32.1856 137.342 32.0548C137.207 31.921 137.029 31.848 136.838 31.848C133.597 31.8572 120.36 31.8876 120.36 31.8876C117.884 31.8876 115.343 30.6772 115.343 28.2259C115.343 27.3957 115.278 20.057 115.278 19.8016C115.278 15.7202 117.684 14.014 120.431 14.014H140.642C146.627 14.014 146.615 19.2116 146.615 20.7809C146.615 21.7997 145.988 22.8398 142.876 22.8398C139.763 22.8398 138.54 21.9274 138.54 21.4621C138.54 20.9998 138.227 21.0698 137.904 21.0698C137.582 21.0698 128.051 21.0819 125.04 21.0819C124.816 21.0819 124.603 21.1702 124.444 21.3253C124.287 21.4834 124.198 21.6963 124.198 21.9183C124.198 22.3532 124.198 23.2108 124.198 23.6458C124.198 23.8678 124.287 24.0806 124.444 24.2388C124.603 24.3939 124.816 24.4821 125.04 24.4821C128.638 24.4821 142.55 24.4821 142.55 24.4821C145.026 24.4821 146.615 25.6956 146.615 28.1438V39.5516C146.615 41.7261 144.919 43.0125 142.172 43.0125H120.864C116.855 43.0125 115.343 40.6799 115.343 37.7633V35.2634C115.343 34.7312 115.804 33.5451 119.743 33.5451C123.682 33.5451 123.866 34.4027 124.084 34.8346C124.296 35.2604 124.631 35.5919 125.04 35.5919C125.448 35.5919 134.064 35.598 136.841 35.598C137.029 35.598 137.21 35.525 137.342 35.3912C137.474 35.2604 137.551 35.0809 137.551 34.8954C137.551 34.3054 137.551 33.1406 137.551 32.5536Z" fill="#E27152"/>
<path fill-rule="evenodd" clip-rule="evenodd" d="M24.3604 63.7023C24.4207 63.6161 24.427 63.5024 24.3766 63.4044C24.3261 63.3103 24.2272 63.2515 24.1196 63.2515C21.8394 63.2515 12.9551 63.2515 7.09224 63.2515C5.67568 63.2515 4.31704 62.691 3.3158 61.6955C2.31455 60.6999 1.75266 59.3476 1.75385 57.9365C1.75976 50.5977 1.7704 37.7561 1.77434 33.2826C1.77513 32.2404 2.04978 31.2166 2.57109 30.3127C4.45142 27.0527 9.19638 18.8265 11.667 14.5431C12.6257 12.8812 14.4043 11.8566 16.3304 11.8566H71.5247C72.6859 11.8566 73.7561 12.4837 74.3188 13.4942C74.8819 14.5051 74.8488 15.7398 74.2329 16.7197C72.1844 19.9773 69.6274 24.0436 68.2976 26.1586C68.1167 26.4463 68.1069 26.8089 68.2724 27.1056C68.4375 27.4023 68.7515 27.5866 69.0927 27.5866C72.0405 27.5866 78.2146 27.5866 82.5403 27.5866C85.1386 27.5866 87.2451 29.682 87.2451 32.2666C87.2451 38.6322 87.2451 49.9125 87.2451 55.9218C87.2451 58.5636 86.5717 61.1663 85.288 63.4789C83.6704 66.3951 81.0458 70.5265 79.3905 73.5093C78.0953 75.8454 75.6258 77.2957 72.9444 77.2957C62.0163 77.2957 33.7037 77.2957 21.1435 77.2957C19.9563 77.2957 18.8664 76.645 18.3104 75.5985C17.7544 74.5559 17.8234 73.2937 18.4897 72.3177C20.7479 69.0017 23.4592 65.0272 24.3604 63.7023ZM32.3439 61.2251C31.2607 61.2251 30.2449 61.7464 29.6207 62.6283C27.8992 65.0585 24.3805 70.0247 22.6097 72.5216C22.4028 72.8155 22.3768 73.1957 22.5423 73.5132C22.7074 73.8307 23.0364 74.0306 23.3958 74.0306C31.3253 74.0306 62.0884 74.0306 71.747 74.0306C73.5276 74.0306 75.1719 73.0821 76.0597 71.5456C77.3237 69.3623 79.4949 66.1795 80.7967 63.9296C81.1195 63.373 81.1187 62.6832 80.794 62.1266C80.4697 61.5661 79.8708 61.2251 79.2226 61.2251C69.4576 61.2251 39.8215 61.2251 32.3439 61.2251ZM18.7103 47.4486C16.8891 47.4549 15.1715 48.2914 14.0497 49.7189C12.4491 51.756 10.0837 54.7655 8.32752 56.9997C7.89014 57.5563 7.81017 58.3128 8.12146 58.9478C8.43274 59.5828 9.08092 59.9865 9.79136 59.9865C15.7259 59.9865 26.5039 59.9865 26.5039 59.9865C27.0942 58.7479 28.3492 57.9561 29.7275 57.9561C36.3375 57.9561 55.5876 57.9561 62.0277 57.9561C63.3493 57.9561 64.5755 57.2741 65.2655 56.153C66.4909 54.1619 68.4497 50.9787 69.6598 49.0126C69.8765 48.6602 69.8848 48.2185 69.6811 47.8586C69.4773 47.4984 69.0939 47.2758 68.6782 47.2774C60.275 47.3064 28.4942 47.4149 18.7103 47.4486ZM70.0455 55.3025C69.7106 55.8356 69.6936 56.5137 70.0018 57.0624C70.3099 57.6151 70.8943 57.9561 71.5287 57.9561C74.2916 57.9561 78.2706 57.9561 80.9012 57.9561C81.6242 57.9561 82.3181 57.67 82.8296 57.1643C83.3406 56.6548 83.6283 55.9649 83.6283 55.2437C83.6283 50.0329 83.6283 38.68 83.6283 33.5115C83.6283 32.0432 82.4316 30.8528 80.9556 30.8528C72.3979 30.8528 45.7352 30.8528 37.2335 30.8528C35.5935 30.8528 34.0674 31.6865 33.1875 33.0635C31.6366 35.4906 29.8308 39.3604 28.3035 41.7506C28.0324 42.1751 28.0151 42.7129 28.2586 43.1543C28.5021 43.5952 28.9678 43.8692 29.4734 43.8692C37.1567 43.8692 59.7518 43.8692 70.9892 43.8692C72.2419 43.8692 73.3956 44.5446 74.004 45.6339C74.6124 46.7227 74.5789 48.0542 73.9173 49.1122C72.5989 51.2201 71.1358 53.5582 70.0455 55.3025ZM62.4111 27.5866C62.7701 27.5866 63.1046 27.4062 63.3008 27.1072C64.3375 25.5279 67.6837 20.4304 69.512 17.6455C69.7543 17.2759 69.774 16.8044 69.5628 16.4163C69.3516 16.0283 68.9438 15.7864 68.5001 15.7864C60.4433 15.7864 32.7297 15.7864 21.201 15.7864C19.8499 15.7864 18.5539 16.3203 17.5988 17.2708C16.6432 18.2209 16.1065 19.5101 16.1065 20.8537C16.1065 25.898 16.1065 33.613 16.1065 38.7748C16.1065 40.1859 16.6878 41.5359 17.7146 42.5095C18.7411 43.4835 20.1241 43.9966 21.5411 43.9296C21.5415 43.9296 22.2086 43.9296 22.2086 43.9296C22.2263 43.7861 27.6001 34.5573 30.5664 30.0332C31.5673 28.5069 33.2754 27.5866 35.1073 27.5866C42.0344 27.5866 59.0662 27.5866 62.4111 27.5866Z" fill="#E27152"/>
</svg>
