<svg width="640" height="320" viewBox="0 0 640 320" fill="none" xmlns="http://www.w3.org/2000/svg">
<rect width="640" height="320" fill="#E27152"/>
<path fill-rule="evenodd" clip-rule="evenodd" d="M418.519 97.543C424.145 85.3827 432.847 66.6001 433.243 65.9847C434.65 63.8457 436.847 61.6189 440.993 60.0805C444.085 58.9231 449.066 58 457.168 58C466.882 58 472.537 59.4212 475.833 61.0182C483.042 64.5051 484.36 69.4863 484.375 73.8963L484.39 78.2769L486.792 78.2331C490.543 78.2331 493.605 78.8777 496.198 80.9582C497.898 82.3061 499.685 84.3865 500.784 88.2543C501.473 90.6864 502 94.6129 502 100.927C502 107.139 501.473 111.139 500.769 113.762C500.447 114.934 500.066 115.959 499.641 116.853C499.597 117.703 499.334 118.552 498.836 119.3L484.404 141.247V153.993C488.023 154.023 490.997 154.667 493.532 156.704C495.231 158.066 497.019 160.132 498.118 164C498.806 166.432 499.334 170.358 499.334 176.673C499.334 184.277 498.498 188.716 497.502 191.353C496.477 194.064 474.837 230.164 474.383 230.559C474.383 230.559 468.171 235.79 460.318 235.79H430.533C426.24 235.79 420.965 234.383 417.391 230.428C415.002 227.79 413.259 223.996 413.259 218.516V201.946C405.816 213.037 394.345 230.911 394.286 230.984C394.286 230.984 391.693 235.922 377.569 235.922H284.067C279.1 235.922 275.144 234.207 272.36 231.38C270.309 229.299 268.874 226.56 268.288 223.293C265.372 227.776 263.336 230.955 263.321 230.984C263.321 230.984 260.713 235.922 246.589 235.922H153.087C148.12 235.922 144.164 234.207 141.395 231.38C138.656 228.596 137 224.655 137 219.806C137 201.931 137 143.767 137 143.884C137 143.884 137.015 138.507 140.384 133.072C143.256 128.413 165.526 89.8366 167.254 87.2873C170.756 82.1448 179.21 79.4344 186.726 79.4344C194.241 79.4344 247 79.6982 258.647 79.6982C270.764 79.6982 277.825 83.6833 282.177 88.2983C286.455 92.8548 288.169 98.4806 288.843 103.169C293.56 95.0962 297.531 88.3129 298.219 87.2873C301.721 82.1448 310.189 79.4344 317.705 79.4344C325.221 79.4344 377.965 79.6982 389.627 79.6982C401.743 79.6982 408.805 83.6833 413.157 88.2983C415.808 91.126 417.478 94.3637 418.519 97.543ZM249.476 154.11C249.476 153.437 249.212 152.792 248.743 152.323C248.274 151.854 247.63 151.591 246.97 151.591C235.469 151.62 188.528 151.737 188.528 151.737C179.737 151.737 170.727 147.415 170.727 138.683C170.727 135.724 170.492 109.557 170.492 108.649C170.492 94.1001 179.034 88.0052 188.777 88.0052H260.449C281.678 88.0052 281.635 106.539 281.635 112.135C281.635 115.769 282.338 120.648 268.375 120.648C254.413 120.648 253.007 118.567 253.007 116.912C253.007 115.256 251.878 114.333 250.736 114.333C249.593 114.333 215.793 114.377 205.113 114.377C204.321 114.377 203.574 114.699 203.003 115.256C202.446 115.813 202.138 116.575 202.138 117.366C202.138 118.919 202.138 121.981 202.138 123.534C202.138 124.325 202.446 125.072 203.003 125.629C203.574 126.2 204.321 126.508 205.113 126.508C217.874 126.508 267.218 126.508 267.218 126.508C275.994 126.508 281.635 130.83 281.635 139.562V179.061C281.635 186.812 275.628 191.397 265.885 191.397H190.315C176.089 191.397 170.727 183.076 170.727 172.688V163.78C170.727 161.875 172.368 157.641 186.33 157.641C200.292 157.641 200.952 159.531 201.728 161.07C202.49 162.579 203.662 163.78 205.113 163.78C206.563 163.78 237.125 163.795 246.97 163.795C247.63 163.795 248.274 163.531 248.743 163.062C249.212 162.593 249.476 161.949 249.476 161.275C249.476 159.18 249.476 156.206 249.476 154.11ZM380.455 154.11C380.455 153.437 380.192 152.792 379.723 152.323C379.239 151.854 378.61 151.591 377.936 151.591C366.435 151.62 319.493 151.737 319.493 151.737C310.717 151.737 301.706 147.415 301.706 138.683C301.706 135.724 301.472 109.557 301.472 108.649C301.472 94.1001 310.014 88.0052 319.757 88.0052H391.414C412.644 88.0052 412.615 106.539 412.615 112.135C412.615 115.769 413.318 120.648 399.341 120.648C385.378 120.648 383.972 118.567 383.972 116.912C383.972 115.256 382.858 114.333 381.715 114.333C380.573 114.333 346.773 114.377 336.092 114.377C335.301 114.377 334.539 114.699 333.983 115.256C333.426 115.813 333.104 116.575 333.104 117.366C333.104 118.919 333.104 121.981 333.104 123.534C333.104 124.325 333.426 125.072 333.983 125.629C334.539 126.2 335.301 126.508 336.092 126.508C348.853 126.508 398.198 126.508 398.198 126.508C406.974 126.508 412.615 130.83 412.615 139.562V179.061C412.615 186.812 406.593 191.397 396.85 191.397H321.28C307.069 191.397 301.706 183.076 301.706 172.688V163.78C301.706 161.875 303.347 157.641 317.31 157.641C331.272 157.641 331.931 159.531 332.693 161.07C333.455 162.579 334.642 163.78 336.092 163.78C337.543 163.78 368.105 163.795 377.936 163.795C378.61 163.795 379.254 163.531 379.723 163.062C380.192 162.593 380.455 161.949 380.455 161.275C380.455 159.18 380.455 156.206 380.455 154.11ZM442.942 87.7709L442.751 73.9696C442.751 70.5706 442.986 67.3327 458.311 67.3327C473.431 67.3327 474.925 70.7171 474.925 73.8378L474.969 87.7709L486.778 87.5658C490.191 87.5658 492.565 86.8624 492.565 100.839C492.565 113.337 490.47 114.846 487.759 115.036V115.051H474.969V157.876C474.969 163.473 478.134 163.502 478.134 163.502L484.111 163.326C487.51 163.326 489.884 162.608 489.884 176.585C489.884 190.548 487.29 190.797 484.111 190.797C484.111 190.797 456.846 190.797 450.839 190.797C441.975 190.797 442.942 184.145 442.942 180.087V115.051L438.356 115.066C434.957 115.066 432.584 115.769 432.584 101.806C432.584 87.8295 435.177 87.5804 438.356 87.5804L442.942 87.7709Z" fill="white"/>
</svg>
