<svg width="702" height="93" viewBox="0 0 702 93" fill="none" xmlns="http://www.w3.org/2000/svg">
<path d="M150.999 72.9653C148.334 74.0386 145.577 74.8343 142.727 75.3524C139.878 75.8705 136.898 76.1296 133.79 76.1296C129.312 76.1296 125.296 75.5189 121.743 74.2976C118.191 73.0763 115.174 71.2629 112.695 68.8574C110.215 66.4518 108.309 63.4726 106.977 59.9198C105.682 56.367 105.034 52.259 105.034 47.5959C105.034 43.0809 105.737 38.9914 107.144 35.3276C108.587 31.6637 110.604 28.5365 113.194 25.9459C115.785 23.3553 118.894 21.3568 122.521 19.9505C126.184 18.5442 130.255 17.841 134.733 17.841C138.397 17.841 141.469 18.0445 143.949 18.4516C146.465 18.8217 148.723 19.3028 150.721 19.895V33.0515C148.427 31.9043 145.929 31.0161 143.227 30.3869C140.562 29.7578 138.027 29.4432 135.622 29.4432C133.105 29.4432 130.848 29.8688 128.849 30.72C126.851 31.5712 125.167 32.7555 123.797 34.2728C122.428 35.7902 121.373 37.6406 120.633 39.8241C119.93 41.9706 119.578 44.3392 119.578 46.9298C119.578 49.6314 119.967 52.0555 120.744 54.202C121.521 56.3485 122.613 58.1804 124.019 59.6977C125.463 61.1781 127.184 62.3253 129.182 63.1395C131.181 63.9167 133.401 64.3053 135.844 64.3053C137.028 64.3053 138.268 64.2313 139.563 64.0833C140.895 63.8982 142.209 63.6577 143.505 63.3616C144.837 63.0285 146.132 62.6584 147.39 62.2513C148.686 61.8442 149.888 61.4001 150.999 60.919V72.9653Z" fill="#16143D"/>
<path d="M207.591 40.6568C207.665 38.5473 207.554 36.7524 207.258 35.272C206.999 33.7917 206.555 32.5704 205.925 31.6082C205.333 30.646 204.593 29.9428 203.705 29.4987C202.817 29.0546 201.799 28.8326 200.652 28.8326C198.653 28.8326 196.581 29.6652 194.434 31.3306C192.325 32.959 189.993 35.6606 187.44 39.4355V75.1303H173.561V18.7292H185.83L186.329 26.9451C187.255 25.5018 188.291 24.2065 189.438 23.0592C190.622 21.9119 191.918 20.9312 193.324 20.117C194.767 19.2658 196.359 18.6182 198.098 18.1741C199.838 17.73 201.743 17.5079 203.816 17.5079C206.666 17.5079 209.182 18.0075 211.366 19.0068C213.586 19.969 215.437 21.4123 216.917 23.3368C218.434 25.2612 219.545 27.6853 220.248 30.609C220.988 33.4956 221.303 36.8449 221.192 40.6568H207.591Z" fill="#16143D"/>
<path d="M286.333 42.5998C286.333 43.525 286.296 44.7277 286.222 46.2081C286.185 47.6884 286.111 49.0763 286 50.3716H248.917C248.917 52.8511 249.287 55.0346 250.027 56.9221C250.804 58.8095 251.878 60.4009 253.247 61.6962C254.653 62.9545 256.319 63.9167 258.243 64.5829C260.204 65.249 262.37 65.5821 264.738 65.5821C267.477 65.5821 270.4 65.3786 273.509 64.9715C276.655 64.5274 279.912 63.8242 283.279 62.862V73.6315C281.836 74.0386 280.263 74.4087 278.561 74.7417C276.858 75.0748 275.119 75.3709 273.343 75.6299C271.566 75.889 269.771 76.074 267.958 76.1851C266.144 76.3331 264.386 76.4071 262.684 76.4071C258.391 76.4071 254.542 75.7965 251.137 74.5752C247.733 73.3539 244.846 71.559 242.477 69.1904C240.109 66.7849 238.295 63.8242 237.037 60.3084C235.779 56.7926 235.15 52.7216 235.15 48.0955C235.15 43.5065 235.779 39.343 237.037 35.6051C238.295 31.8302 240.072 28.6105 242.366 25.9459C244.661 23.2442 247.437 21.1718 250.693 19.7284C253.987 18.2481 257.651 17.5079 261.685 17.5079C265.682 17.5079 269.216 18.1371 272.288 19.3954C275.36 20.6166 277.932 22.3375 280.004 24.5581C282.077 26.7786 283.649 29.4247 284.723 32.4964C285.796 35.5681 286.333 38.9359 286.333 42.5998ZM272.565 40.6568C272.602 38.4363 272.325 36.5118 271.733 34.8835C271.141 33.2181 270.326 31.8488 269.29 30.7755C268.291 29.7023 267.107 28.9066 265.737 28.3884C264.405 27.8703 262.962 27.6113 261.407 27.6113C258.002 27.6113 255.208 28.7585 253.025 31.0531C250.841 33.3106 249.546 36.5118 249.139 40.6568H272.565Z" fill="#16143D"/>
<path d="M338.484 75.1303L338.151 67.7471C336.966 69.0054 335.726 70.1712 334.431 71.2444C333.136 72.2807 331.711 73.1874 330.157 73.9646C328.602 74.7417 326.9 75.3339 325.049 75.741C323.236 76.1851 321.238 76.4071 319.054 76.4071C316.167 76.4071 313.632 75.9815 311.449 75.1303C309.265 74.2791 307.433 73.0949 305.953 71.5775C304.473 70.0601 303.344 68.2282 302.567 66.0817C301.827 63.9352 301.457 61.5667 301.457 58.9761C301.457 56.3114 302.012 53.8504 303.122 51.5928C304.269 49.3353 305.99 47.3924 308.285 45.764C310.616 44.1356 313.503 42.8588 316.945 41.9336C320.423 41.0084 324.494 40.5458 329.157 40.5458H336.541V37.1595C336.541 35.7162 336.337 34.4209 335.93 33.2736C335.523 32.0893 334.857 31.0901 333.932 30.2759C333.043 29.4617 331.878 28.8325 330.434 28.3884C328.991 27.9443 327.215 27.7223 325.105 27.7223C321.774 27.7223 318.48 28.1109 315.224 28.8881C312.004 29.6282 308.877 30.683 305.842 32.0523V21.2273C308.544 20.154 311.652 19.2658 315.168 18.5627C318.721 17.8595 322.403 17.5079 326.215 17.5079C330.397 17.5079 333.987 17.915 336.985 18.7292C339.982 19.5064 342.444 20.6907 344.368 22.282C346.329 23.8734 347.773 25.8719 348.698 28.2774C349.623 30.646 350.086 33.4216 350.086 36.6044V75.1303H338.484ZM336.541 50.205H328.269C325.975 50.205 324.032 50.4271 322.44 50.8712C320.849 51.3153 319.554 51.9259 318.554 52.7031C317.555 53.4803 316.815 54.387 316.334 55.4232C315.89 56.4225 315.668 57.4957 315.668 58.643C315.668 60.9375 316.408 62.6954 317.888 63.9167C319.369 65.101 321.386 65.6931 323.939 65.6931C325.827 65.6931 327.788 65.0085 329.824 63.6391C331.859 62.2698 334.098 60.3084 336.541 57.7548V50.205Z" fill="#16143D"/>
<path d="M415.56 74.5752C413.117 75.1303 410.656 75.5744 408.177 75.9075C405.697 76.2406 403.347 76.4071 401.127 76.4071C397.426 76.4071 394.225 76.0185 391.523 75.2413C388.858 74.4642 386.638 73.2799 384.861 71.6885C383.122 70.0972 381.827 68.0802 380.975 65.6376C380.161 63.158 379.754 60.2159 379.754 56.8111V29.2767H364.599V18.7292H379.754V4.29584L393.632 0.6875V18.7292H415.56V29.2767H393.632V55.8118C393.632 59.0316 394.373 61.4741 395.853 63.1395C397.333 64.7679 399.813 65.5821 403.292 65.5821C405.512 65.5821 407.677 65.3971 409.787 65.027C411.896 64.6569 413.821 64.2313 415.56 63.7502V74.5752Z" fill="#16143D"/>
<path d="M484.087 42.5998C484.087 43.525 484.05 44.7277 483.976 46.2081C483.939 47.6884 483.865 49.0763 483.754 50.3716H446.672C446.672 52.8511 447.042 55.0346 447.782 56.9221C448.559 58.8095 449.632 60.4009 451.002 61.6962C452.408 62.9545 454.073 63.9167 455.998 64.5829C457.959 65.249 460.124 65.5821 462.493 65.5821C465.231 65.5821 468.155 65.3786 471.264 64.9715C474.41 64.5274 477.666 63.8242 481.034 62.862V73.6315C479.591 74.0386 478.018 74.4087 476.316 74.7417C474.613 75.0748 472.874 75.3709 471.097 75.6299C469.321 75.889 467.526 76.074 465.713 76.1851C463.899 76.3331 462.141 76.4071 460.439 76.4071C456.146 76.4071 452.297 75.7965 448.892 74.5752C445.487 73.3539 442.601 71.559 440.232 69.1904C437.864 66.7849 436.05 63.8242 434.792 60.3084C433.534 56.7926 432.904 52.7216 432.904 48.0955C432.904 43.5065 433.534 39.343 434.792 35.6051C436.05 31.8302 437.827 28.6105 440.121 25.9459C442.416 23.2442 445.191 21.1718 448.448 19.7284C451.742 18.2481 455.406 17.5079 459.44 17.5079C463.437 17.5079 466.971 18.1371 470.043 19.3954C473.114 20.6166 475.686 22.3375 477.759 24.5581C479.831 26.7786 481.404 29.4247 482.477 32.4964C483.551 35.5681 484.087 38.9359 484.087 42.5998ZM470.32 40.6568C470.357 38.4363 470.08 36.5118 469.487 34.8835C468.895 33.2181 468.081 31.8488 467.045 30.7755C466.046 29.7023 464.861 28.9066 463.492 28.3884C462.16 27.8703 460.716 27.6113 459.162 27.6113C455.757 27.6113 452.963 28.7585 450.78 31.0531C448.596 33.3106 447.301 36.5118 446.894 40.6568H470.32Z" fill="#16143D"/>
<path d="M12.4781 1.06714L66.7375 46.7127L12.4781 92.4387L0 79.7191L39.8493 46.8737L0 13.7867L12.4781 1.06714Z" fill="#16143D"/>
<path d="M567.427 58.532C567.427 61.7517 566.705 64.5088 565.262 66.8034C563.856 69.0609 561.968 70.9113 559.6 72.3547C557.268 73.761 554.603 74.7787 551.606 75.4079C548.645 76.074 545.61 76.4071 542.502 76.4071C538.357 76.4071 534.619 76.2036 531.288 75.7965C527.957 75.4264 524.812 74.8713 521.851 74.1311V61.9182C525.33 63.3616 528.79 64.4163 532.232 65.0825C535.711 65.7116 538.986 66.0262 542.058 66.0262C545.61 66.0262 548.256 65.4711 549.996 64.3608C551.772 63.2136 552.66 61.7332 552.66 59.9198C552.66 59.0686 552.475 58.2914 552.105 57.5882C551.735 56.8851 551.032 56.2189 549.996 55.5898C548.997 54.9236 547.572 54.2575 545.721 53.5913C543.871 52.8881 541.447 52.111 538.449 51.2598C535.674 50.4826 533.231 49.6129 531.121 48.6507C529.049 47.6514 527.328 46.4857 525.959 45.1533C524.589 43.821 523.553 42.2852 522.85 40.5458C522.184 38.7694 521.851 36.6969 521.851 34.3283C521.851 32.0338 522.369 29.8688 523.405 27.8333C524.441 25.7978 525.977 24.0214 528.013 22.5041C530.085 20.9497 532.657 19.7284 535.729 18.8402C538.801 17.952 542.391 17.5079 546.499 17.5079C550.051 17.5079 553.197 17.693 555.936 18.063C558.674 18.4331 561.098 18.8402 563.208 19.2843V30.3314C559.988 29.2952 556.953 28.5735 554.104 28.1664C551.291 27.7223 548.497 27.5002 545.721 27.5002C542.946 27.5002 540.707 27.9999 539.004 28.9991C537.339 29.9983 536.506 31.3861 536.506 33.1626C536.506 34.0138 536.673 34.7724 537.006 35.4386C537.339 36.1047 537.987 36.7524 538.949 37.3815C539.948 38.0107 541.317 38.6768 543.057 39.38C544.833 40.0462 547.165 40.7863 550.051 41.6005C553.308 42.5257 556.047 43.525 558.267 44.5982C560.488 45.6345 562.264 46.8187 563.597 48.151C564.966 49.4834 565.947 51.0007 566.539 52.7031C567.131 54.4055 567.427 56.3485 567.427 58.532Z" fill="url(#paint0_linear_132_353)"/>
<path d="M633.345 58.532C633.345 61.7517 632.624 64.5088 631.18 66.8034C629.774 69.0609 627.886 70.9113 625.518 72.3547C623.186 73.761 620.522 74.7787 617.524 75.4079C614.563 76.074 611.529 76.4071 608.42 76.4071C604.275 76.4071 600.537 76.2036 597.206 75.7965C593.875 75.4264 590.73 74.8713 587.769 74.1311V61.9182C591.248 63.3616 594.708 64.4163 598.15 65.0825C601.629 65.7116 604.904 66.0262 607.976 66.0262C611.529 66.0262 614.175 65.4711 615.914 64.3608C617.691 63.2136 618.579 61.7332 618.579 59.9198C618.579 59.0686 618.394 58.2914 618.024 57.5882C617.654 56.8851 616.95 56.2189 615.914 55.5898C614.915 54.9236 613.49 54.2575 611.64 53.5913C609.789 52.8881 607.365 52.111 604.367 51.2598C601.592 50.4826 599.149 49.6129 597.04 48.6507C594.967 47.6514 593.246 46.4857 591.877 45.1533C590.508 43.821 589.471 42.2852 588.768 40.5458C588.102 38.7694 587.769 36.6969 587.769 34.3283C587.769 32.0338 588.287 29.8688 589.323 27.8333C590.36 25.7978 591.896 24.0214 593.931 22.5041C596.003 20.9497 598.576 19.7284 601.647 18.8402C604.719 17.952 608.309 17.5079 612.417 17.5079C615.97 17.5079 619.115 17.693 621.854 18.063C624.593 18.4331 627.017 18.8402 629.126 19.2843V30.3314C625.906 29.2952 622.872 28.5735 620.022 28.1664C617.209 27.7223 614.415 27.5002 611.64 27.5002C608.864 27.5002 606.625 27.9999 604.923 28.9991C603.257 29.9983 602.424 31.3861 602.424 33.1626C602.424 34.0138 602.591 34.7724 602.924 35.4386C603.257 36.1047 603.905 36.7524 604.867 37.3815C605.866 38.0107 607.236 38.6768 608.975 39.38C610.751 40.0462 613.083 40.7863 615.97 41.6005C619.226 42.5257 621.965 43.525 624.186 44.5982C626.406 45.6345 628.182 46.8187 629.515 48.151C630.884 49.4834 631.865 51.0007 632.457 52.7031C633.049 54.4055 633.345 56.3485 633.345 58.532Z" fill="url(#paint1_linear_132_353)"/>
<path d="M699.263 74.5752C696.821 75.1303 694.36 75.5744 691.88 75.9075C689.401 76.2406 687.051 76.4071 684.83 76.4071C681.129 76.4071 677.928 76.0185 675.226 75.2413C672.562 74.4642 670.341 73.2799 668.565 71.6885C666.825 70.0972 665.53 68.0802 664.679 65.6376C663.865 63.158 663.458 60.2159 663.458 56.8111V29.2767H648.303V18.7292H663.458V4.29584L677.336 0.6875V18.7292H699.263V29.2767H677.336V55.8118C677.336 59.0316 678.076 61.4741 679.556 63.1395C681.037 64.7679 683.516 65.5821 686.995 65.5821C689.216 65.5821 691.381 65.3971 693.49 65.027C695.6 64.6569 697.524 64.2313 699.263 63.7502V74.5752Z" fill="url(#paint2_linear_132_353)"/>
<defs>
<linearGradient id="paint0_linear_132_353" x1="532.047" y1="58.7392" x2="704.583" y2="56.6276" gradientUnits="userSpaceOnUse">
<stop stop-color="#E27152"/>
<stop offset="1" stop-color="#EFAA2C"/>
</linearGradient>
<linearGradient id="paint1_linear_132_353" x1="532.047" y1="58.7392" x2="704.583" y2="56.6276" gradientUnits="userSpaceOnUse">
<stop stop-color="#E27152"/>
<stop offset="1" stop-color="#EFAA2C"/>
</linearGradient>
<linearGradient id="paint2_linear_132_353" x1="532.047" y1="58.7392" x2="704.583" y2="56.6276" gradientUnits="userSpaceOnUse">
<stop stop-color="#E27152"/>
<stop offset="1" stop-color="#EFAA2C"/>
</linearGradient>
</defs>
</svg>
