<svg width="524" height="69" viewBox="0 0 524 69" fill="none" xmlns="http://www.w3.org/2000/svg">
<path d="M112.686 54.3813C110.697 55.1823 108.64 55.7761 106.513 56.1627C104.386 56.5494 102.163 56.7427 99.8431 56.7427C96.5013 56.7427 93.5047 56.287 90.8533 55.3756C88.202 54.4642 85.9511 53.1109 84.1006 51.3157C82.2502 49.5205 80.8279 47.2972 79.8336 44.6459C78.867 41.9945 78.3836 38.9289 78.3836 35.449C78.3836 32.0795 78.9084 29.0277 79.9579 26.2935C81.035 23.5593 82.5402 21.2255 84.4735 19.2922C86.4068 17.3589 88.7267 15.8675 91.4333 14.818C94.1675 13.7685 97.2056 13.2438 100.547 13.2438C103.282 13.2438 105.574 13.3957 107.424 13.6995C109.302 13.9757 110.987 14.3347 112.479 14.7766V24.5949C110.766 23.7388 108.902 23.0759 106.886 22.6064C104.897 22.1369 103.005 21.9022 101.21 21.9022C99.3322 21.9022 97.6474 22.2198 96.1561 22.855C94.6647 23.4902 93.408 24.374 92.3861 25.5064C91.3643 26.6387 90.5771 28.0196 90.0248 29.6491C89.5 31.251 89.2377 33.0185 89.2377 34.9518C89.2377 36.968 89.5276 38.777 90.1076 40.3788C90.6876 41.9807 91.5024 43.3478 92.5519 44.4802C93.629 45.5849 94.9132 46.4411 96.4046 47.0487C97.896 47.6287 99.5531 47.9187 101.376 47.9187C102.26 47.9187 103.185 47.8634 104.152 47.7529C105.146 47.6149 106.126 47.4353 107.093 47.2144C108.087 46.9658 109.054 46.6896 109.993 46.3858C110.959 46.082 111.857 45.7506 112.686 45.3916V54.3813Z" fill="#16143D"/>
<path d="M154.919 30.2705C154.974 28.6963 154.891 27.3568 154.67 26.252C154.477 25.1473 154.145 24.2359 153.676 23.5178C153.234 22.7998 152.681 22.275 152.019 21.9436C151.356 21.6122 150.596 21.4465 149.74 21.4465C148.249 21.4465 146.702 22.0679 145.1 23.3107C143.526 24.5259 141.786 26.542 139.88 29.3591V55.997H129.523V13.9066H138.679L139.052 20.0379C139.742 18.9608 140.516 17.9942 141.372 17.138C142.256 16.2818 143.222 15.5499 144.272 14.9423C145.349 14.3071 146.536 13.8238 147.834 13.4924C149.132 13.1609 150.555 12.9952 152.101 12.9952C154.228 12.9952 156.106 13.3681 157.736 14.1138C159.393 14.8319 160.774 15.909 161.878 17.3451C163.011 18.7813 163.839 20.5903 164.364 22.7721C164.916 24.9264 165.151 27.4258 165.068 30.2705H154.919Z" fill="#16143D"/>
<path d="M213.681 31.7205C213.681 32.4109 213.653 33.3085 213.598 34.4133C213.571 35.518 213.515 36.5537 213.432 37.5203H185.759C185.759 39.3708 186.035 41.0003 186.587 42.4088C187.167 43.8173 187.968 45.0049 188.99 45.9716C190.04 46.9106 191.283 47.6287 192.719 48.1258C194.182 48.6229 195.798 48.8715 197.566 48.8715C199.609 48.8715 201.791 48.7196 204.111 48.4158C206.459 48.0844 208.889 47.5596 211.403 46.8415V54.8785C210.325 55.1823 209.152 55.4585 207.881 55.707C206.611 55.9556 205.313 56.1765 203.987 56.3699C202.661 56.5632 201.322 56.7013 199.969 56.7841C198.615 56.8946 197.303 56.9499 196.033 56.9499C192.829 56.9499 189.957 56.4942 187.416 55.5827C184.875 54.6713 182.721 53.3319 180.953 51.5643C179.186 49.7691 177.832 47.5596 176.893 44.9359C175.954 42.3121 175.485 39.2741 175.485 35.8218C175.485 32.3971 175.954 29.2901 176.893 26.5006C177.832 23.6835 179.158 21.2807 180.87 19.2922C182.583 17.2761 184.654 15.7295 187.085 14.6523C189.543 13.5476 192.277 12.9952 195.287 12.9952C198.27 12.9952 200.908 13.4647 203.2 14.4038C205.492 15.3152 207.412 16.5994 208.958 18.2565C210.505 19.9136 211.679 21.8883 212.48 24.1807C213.281 26.473 213.681 28.9863 213.681 31.7205ZM203.407 30.2705C203.435 28.6134 203.227 27.1773 202.786 25.9621C202.344 24.7192 201.736 23.6973 200.963 22.8964C200.217 22.0955 199.333 21.5017 198.311 21.115C197.317 20.7284 196.24 20.535 195.08 20.535C192.539 20.535 190.454 21.3912 188.824 23.1036C187.195 24.7883 186.228 27.1773 185.925 30.2705H203.407Z" fill="#16143D"/>
<path d="M252.6 55.997L252.351 50.4872C251.467 51.4262 250.542 52.2962 249.576 53.0971C248.609 53.8704 247.546 54.5471 246.386 55.127C245.226 55.707 243.955 56.1489 242.574 56.4527C241.221 56.7841 239.73 56.9499 238.1 56.9499C235.946 56.9499 234.054 56.6322 232.424 55.997C230.795 55.3618 229.428 54.478 228.323 53.3457C227.218 52.2133 226.376 50.8462 225.796 49.2443C225.244 47.6425 224.968 45.8749 224.968 43.9416C224.968 41.9531 225.382 40.1165 226.21 38.4317C227.067 36.747 228.351 35.2971 230.063 34.0819C231.803 32.8666 233.957 31.9138 236.526 31.2234C239.122 30.5329 242.16 30.1877 245.64 30.1877H251.15V27.6606C251.15 26.5835 250.998 25.6168 250.694 24.7607C250.39 23.8769 249.893 23.1312 249.203 22.5236C248.54 21.916 247.67 21.4465 246.593 21.115C245.516 20.7836 244.19 20.6179 242.616 20.6179C240.13 20.6179 237.672 20.9079 235.242 21.4879C232.839 22.0402 230.505 22.8274 228.24 23.8492V15.7709C230.256 14.9699 232.576 14.3071 235.2 13.7824C237.852 13.2576 240.6 12.9952 243.444 12.9952C246.565 12.9952 249.244 13.299 251.481 13.9066C253.718 14.4866 255.555 15.3704 256.991 16.558C258.455 17.7456 259.532 19.237 260.222 21.0322C260.913 22.7998 261.258 24.8711 261.258 27.2463V55.997H252.6ZM251.15 37.3961H244.977C243.265 37.3961 241.815 37.5618 240.627 37.8932C239.44 38.2246 238.473 38.6803 237.727 39.2603C236.982 39.8403 236.429 40.5169 236.07 41.2902C235.739 42.0359 235.573 42.8369 235.573 43.693C235.573 45.4054 236.125 46.7173 237.23 47.6287C238.335 48.5124 239.84 48.9543 241.746 48.9543C243.154 48.9543 244.618 48.4434 246.137 47.4215C247.656 46.3996 249.327 44.9359 251.15 43.0302V37.3961Z" fill="#16143D"/>
<path d="M310.119 55.5827C308.297 55.997 306.46 56.3284 304.61 56.577C302.759 56.8256 301.005 56.9499 299.348 56.9499C296.586 56.9499 294.197 56.6599 292.181 56.0799C290.193 55.4999 288.536 54.6161 287.21 53.4285C285.912 52.2409 284.945 50.7357 284.31 48.9129C283.702 47.0625 283.399 44.8668 283.399 42.3259V21.7779H272.089V13.9066H283.399V3.13548L293.755 0.442688V13.9066H310.119V21.7779H293.755V41.5802C293.755 43.983 294.308 45.8058 295.413 47.0487C296.517 48.2639 298.368 48.8715 300.964 48.8715C302.621 48.8715 304.237 48.7334 305.811 48.4572C307.385 48.181 308.821 47.8634 310.119 47.5044V55.5827Z" fill="#16143D"/>
<path d="M361.259 31.7205C361.259 32.4109 361.232 33.3085 361.176 34.4133C361.149 35.518 361.093 36.5537 361.011 37.5203H333.337C333.337 39.3708 333.613 41.0003 334.166 42.4088C334.746 43.8173 335.547 45.0049 336.568 45.9716C337.618 46.9106 338.861 47.6287 340.297 48.1258C341.761 48.6229 343.376 48.8715 345.144 48.8715C347.188 48.8715 349.369 48.7196 351.689 48.4158C354.037 48.0844 356.467 47.5596 358.981 46.8415V54.8785C357.904 55.1823 356.73 55.4585 355.459 55.707C354.189 55.9556 352.891 56.1765 351.565 56.3699C350.239 56.5632 348.9 56.7013 347.547 56.7841C346.193 56.8946 344.882 56.9499 343.611 56.9499C340.407 56.9499 337.535 56.4942 334.994 55.5827C332.453 54.6713 330.299 53.3319 328.531 51.5643C326.764 49.7691 325.411 47.5596 324.472 44.9359C323.533 42.3121 323.063 39.2741 323.063 35.8218C323.063 32.3971 323.533 29.2901 324.472 26.5006C325.411 23.6835 326.736 21.2807 328.449 19.2922C330.161 17.2761 332.232 15.7295 334.663 14.6523C337.121 13.5476 339.855 12.9952 342.865 12.9952C345.848 12.9952 348.486 13.4647 350.778 14.4038C353.07 15.3152 354.99 16.5994 356.536 18.2565C358.083 19.9136 359.257 21.8883 360.058 24.1807C360.859 26.473 361.259 28.9863 361.259 31.7205ZM350.985 30.2705C351.013 28.6134 350.806 27.1773 350.364 25.9621C349.922 24.7192 349.314 23.6973 348.541 22.8964C347.795 22.0955 346.911 21.5017 345.89 21.115C344.895 20.7284 343.818 20.535 342.658 20.535C340.117 20.535 338.032 21.3912 336.403 23.1036C334.773 24.7883 333.807 27.1773 333.503 30.2705H350.985Z" fill="#16143D"/>
<path d="M9.31199 0.725891L49.8041 34.7897L9.31199 68.9136L7.62939e-06 59.4214L29.7383 34.9099L7.62939e-06 10.2181L9.31199 0.725891Z" fill="url(#paint0_linear_131_322)"/>
<path d="M423.453 43.6102C423.453 46.013 422.914 48.0705 421.837 49.7829C420.788 51.4676 419.379 52.8485 417.612 53.9256C415.872 54.9751 413.883 55.7346 411.646 56.2042C409.437 56.7013 407.172 56.9499 404.852 56.9499C401.759 56.9499 398.969 56.798 396.484 56.4942C393.998 56.218 391.651 55.8037 389.441 55.2513V46.1373C392.037 47.2144 394.619 48.0015 397.188 48.4986C399.784 48.9682 402.228 49.2029 404.521 49.2029C407.172 49.2029 409.147 48.7886 410.445 47.9601C411.77 47.1039 412.433 45.9992 412.433 44.6459C412.433 44.0107 412.295 43.4307 412.019 42.9059C411.743 42.3812 411.218 41.884 410.445 41.4145C409.699 40.9174 408.636 40.4203 407.255 39.9231C405.874 39.3984 404.065 38.8184 401.828 38.1832C399.756 37.6032 397.934 36.9542 396.359 36.2361C394.813 35.4904 393.529 34.6204 392.507 33.6261C391.485 32.6319 390.711 31.4857 390.187 30.1877C389.69 28.862 389.441 27.3154 389.441 25.5478C389.441 23.8354 389.828 22.2198 390.601 20.7008C391.374 19.1817 392.52 17.8561 394.039 16.7237C395.586 15.5637 397.506 14.6523 399.798 13.9895C402.09 13.3267 404.769 12.9952 407.835 12.9952C410.486 12.9952 412.834 13.1333 414.878 13.4095C416.921 13.6857 418.73 13.9895 420.305 14.3209V22.565C417.902 21.7917 415.637 21.2531 413.51 20.9493C411.411 20.6179 409.326 20.4522 407.255 20.4522C405.184 20.4522 403.513 20.825 402.242 21.5707C400.999 22.3164 400.378 23.3521 400.378 24.6778C400.378 25.313 400.502 25.8792 400.751 26.3763C400.999 26.8735 401.483 27.3568 402.201 27.8263C402.946 28.2958 403.968 28.7929 405.266 29.3177C406.592 29.8148 408.332 30.3672 410.486 30.9748C412.917 31.6652 414.96 32.4109 416.618 33.2119C418.275 33.9852 419.6 34.869 420.595 35.8632C421.616 36.8575 422.348 37.9899 422.79 39.2603C423.232 40.5307 423.453 41.9807 423.453 43.6102Z" fill="url(#paint1_linear_131_322)"/>
<path d="M472.646 43.6102C472.646 46.013 472.107 48.0705 471.03 49.7829C469.981 51.4676 468.572 52.8485 466.804 53.9256C465.065 54.9751 463.076 55.7346 460.839 56.2042C458.629 56.7013 456.365 56.9499 454.045 56.9499C450.952 56.9499 448.162 56.798 445.676 56.4942C443.191 56.218 440.843 55.8037 438.634 55.2513V46.1373C441.23 47.2144 443.812 48.0015 446.381 48.4986C448.977 48.9682 451.421 49.2029 453.713 49.2029C456.365 49.2029 458.339 48.7886 459.638 47.9601C460.963 47.1039 461.626 45.9992 461.626 44.6459C461.626 44.0107 461.488 43.4307 461.212 42.9059C460.936 42.3812 460.411 41.884 459.638 41.4145C458.892 40.9174 457.829 40.4203 456.448 39.9231C455.067 39.3984 453.258 38.8184 451.021 38.1832C448.949 37.6032 447.126 36.9542 445.552 36.2361C444.006 35.4904 442.721 34.6204 441.699 33.6261C440.678 32.6319 439.904 31.4857 439.379 30.1877C438.882 28.862 438.634 27.3154 438.634 25.5478C438.634 23.8354 439.02 22.2198 439.794 20.7008C440.567 19.1817 441.713 17.8561 443.232 16.7237C444.779 15.5637 446.698 14.6523 448.991 13.9895C451.283 13.3267 453.962 12.9952 457.028 12.9952C459.679 12.9952 462.027 13.1333 464.07 13.4095C466.114 13.6857 467.923 13.9895 469.497 14.3209V22.565C467.094 21.7917 464.83 21.2531 462.703 20.9493C460.604 20.6179 458.519 20.4522 456.448 20.4522C454.376 20.4522 452.705 20.825 451.435 21.5707C450.192 22.3164 449.571 23.3521 449.571 24.6778C449.571 25.313 449.695 25.8792 449.943 26.3763C450.192 26.8735 450.675 27.3568 451.393 27.8263C452.139 28.2958 453.161 28.7929 454.459 29.3177C455.785 29.8148 457.525 30.3672 459.679 30.9748C462.109 31.6652 464.153 32.4109 465.81 33.2119C467.467 33.9852 468.793 34.869 469.787 35.8632C470.809 36.8575 471.541 37.9899 471.983 39.2603C472.425 40.5307 472.646 41.9807 472.646 43.6102Z" fill="url(#paint2_linear_131_322)"/>
<path d="M521.839 55.5827C520.016 55.997 518.179 56.3284 516.329 56.577C514.478 56.8256 512.724 56.9499 511.067 56.9499C508.306 56.9499 505.917 56.6599 503.9 56.0799C501.912 55.4999 500.255 54.6161 498.929 53.4285C497.631 52.2409 496.664 50.7357 496.029 48.9129C495.422 47.0625 495.118 44.8668 495.118 42.3259V21.7779H483.808V13.9066H495.118V3.13548L505.475 0.442688V13.9066H521.839V21.7779H505.475V41.5802C505.475 43.983 506.027 45.8058 507.132 47.0487C508.236 48.2639 510.087 48.8715 512.683 48.8715C514.34 48.8715 515.956 48.7334 517.53 48.4572C519.104 48.181 520.54 47.8634 521.839 47.5044V55.5827Z" fill="url(#paint3_linear_131_322)"/>
<defs>
<linearGradient id="paint0_linear_131_322" x1="2.86231" y1="53.0032" x2="51.3039" y2="52.8183" gradientUnits="userSpaceOnUse">
<stop stop-color="#E27152"/>
<stop offset="1" stop-color="#EFAA2C"/>
</linearGradient>
<linearGradient id="paint1_linear_131_322" x1="397.05" y1="43.7649" x2="525.808" y2="42.189" gradientUnits="userSpaceOnUse">
<stop stop-color="#E27152"/>
<stop offset="1" stop-color="#EFAA2C"/>
</linearGradient>
<linearGradient id="paint2_linear_131_322" x1="397.05" y1="43.7649" x2="525.808" y2="42.189" gradientUnits="userSpaceOnUse">
<stop stop-color="#E27152"/>
<stop offset="1" stop-color="#EFAA2C"/>
</linearGradient>
<linearGradient id="paint3_linear_131_322" x1="397.05" y1="43.7649" x2="525.808" y2="42.189" gradientUnits="userSpaceOnUse">
<stop stop-color="#E27152"/>
<stop offset="1" stop-color="#EFAA2C"/>
</linearGradient>
</defs>
</svg>
