<svg width="416" height="55" viewBox="0 0 416 55" fill="none" xmlns="http://www.w3.org/2000/svg">
<path d="M89.4808 42.8313C87.9017 43.4673 86.2679 43.9388 84.5792 44.2459C82.8905 44.5529 81.125 44.7064 79.2828 44.7064C76.6292 44.7064 74.2497 44.3446 72.1443 43.6208C70.0389 42.8971 68.2515 41.8225 66.7822 40.397C65.3128 38.9715 64.1833 37.206 63.3938 35.1006C62.6262 32.9953 62.2424 30.5609 62.2424 27.7976C62.2424 25.122 62.6591 22.6986 63.4925 20.5275C64.3478 18.3563 65.5431 16.5031 67.0782 14.968C68.6134 13.4328 70.4556 12.2485 72.6048 11.4151C74.776 10.5818 77.1884 10.1651 79.8421 10.1651C82.0133 10.1651 83.8335 10.2857 85.3029 10.5269C86.7942 10.7462 88.132 11.0313 89.3163 11.3822V19.1787C87.9566 18.4989 86.4762 17.9725 84.8753 17.5997C83.2962 17.2269 81.7939 17.0404 80.3684 17.0404C78.8771 17.0404 77.5393 17.2926 76.355 17.7971C75.1708 18.3015 74.1729 19.0033 73.3615 19.9024C72.55 20.8016 71.925 21.8982 71.4864 23.1921C71.0697 24.4641 70.8613 25.8677 70.8613 27.4029C70.8613 29.0038 71.0916 30.4403 71.5522 31.7123C72.0127 32.9843 72.6597 34.0699 73.493 34.9691C74.3484 35.8463 75.3682 36.5262 76.5524 37.0086C77.7367 37.4692 79.0526 37.6995 80.5 37.6995C81.2018 37.6995 81.9365 37.6556 82.7041 37.5679C83.4936 37.4582 84.2721 37.3157 85.0397 37.1402C85.8293 36.9429 86.5968 36.7235 87.3425 36.4823C88.1101 36.2411 88.8228 35.9779 89.4808 35.6928V42.8313Z" fill="white"/>
<path d="M123.017 23.6855C123.061 22.4355 122.995 21.3718 122.819 20.4946C122.666 19.6173 122.403 18.8936 122.03 18.3234C121.679 17.7532 121.24 17.3365 120.714 17.0733C120.188 16.8102 119.585 16.6786 118.905 16.6786C117.72 16.6786 116.492 17.172 115.22 18.1589C113.97 19.1239 112.589 20.7249 111.075 22.9618V44.1143H102.851V10.6914H110.121L110.417 15.5601C110.966 14.7048 111.58 13.9372 112.26 13.2573C112.961 12.5775 113.729 11.9963 114.562 11.5138C115.418 11.0094 116.361 10.6256 117.392 10.3624C118.422 10.0993 119.552 9.96768 120.78 9.96768C122.469 9.96768 123.96 10.2638 125.254 10.8559C126.57 11.4261 127.666 12.2814 128.543 13.4218C129.443 14.5622 130.101 15.9987 130.517 17.7313C130.956 19.4419 131.142 21.4266 131.076 23.6855H123.017Z" fill="white"/>
<path d="M169.679 24.8369C169.679 25.3852 169.657 26.098 169.613 26.9752C169.591 27.8524 169.547 28.6749 169.481 29.4424H147.506C147.506 30.9118 147.726 32.2057 148.164 33.3242C148.625 34.4427 149.261 35.3857 150.072 36.1533C150.906 36.899 151.893 37.4692 153.033 37.864C154.195 38.2587 155.478 38.4561 156.882 38.4561C158.505 38.4561 160.237 38.3355 162.079 38.0942C163.944 37.8311 165.874 37.4144 167.869 36.8442V43.2261C167.014 43.4673 166.082 43.6866 165.073 43.884C164.064 44.0814 163.033 44.2568 161.981 44.4104C160.928 44.5639 159.864 44.6735 158.79 44.7393C157.715 44.8271 156.673 44.8709 155.665 44.8709C153.121 44.8709 150.84 44.5091 148.822 43.7853C146.805 43.0616 145.094 41.998 143.69 40.5944C142.287 39.1689 141.212 37.4144 140.466 35.3309C139.721 33.2475 139.348 30.8351 139.348 28.0937C139.348 25.3742 139.721 22.907 140.466 20.692C141.212 18.455 142.265 16.547 143.625 14.968C144.984 13.367 146.629 12.1389 148.559 11.2835C150.511 10.4063 152.682 9.96768 155.073 9.96768C157.441 9.96768 159.535 10.3405 161.356 11.0862C163.176 11.8099 164.7 12.8297 165.928 14.1455C167.157 15.4614 168.089 17.0295 168.725 18.8498C169.361 20.67 169.679 22.6657 169.679 24.8369ZM161.52 23.6855C161.542 22.3697 161.378 21.2293 161.027 20.2643C160.676 19.2774 160.193 18.466 159.579 17.83C158.987 17.194 158.285 16.7224 157.474 16.4154C156.684 16.1084 155.829 15.9549 154.908 15.9549C152.89 15.9549 151.235 16.6347 149.941 17.9944C148.647 19.3322 147.879 21.2293 147.638 23.6855H161.52Z" fill="white"/>
<path d="M200.583 44.1143L200.386 39.7391C199.684 40.4847 198.949 41.1755 198.181 41.8115C197.414 42.4256 196.57 42.9629 195.648 43.4235C194.727 43.884 193.718 44.2349 192.622 44.4762C191.547 44.7393 190.363 44.8709 189.069 44.8709C187.359 44.8709 185.856 44.6187 184.562 44.1143C183.268 43.6099 182.183 42.9081 181.306 42.0089C180.428 41.1097 179.759 40.0242 179.299 38.7522C178.86 37.4802 178.641 36.0766 178.641 34.5414C178.641 32.9624 178.97 31.504 179.628 30.1662C180.308 28.8284 181.327 27.677 182.687 26.712C184.069 25.7471 185.779 24.9904 187.819 24.4422C189.881 23.8939 192.293 23.6197 195.056 23.6197H199.432V21.6131C199.432 20.7578 199.311 19.9902 199.07 19.3103C198.828 18.6085 198.434 18.0164 197.885 17.5339C197.359 17.0514 196.668 16.6786 195.813 16.4154C194.958 16.1522 193.905 16.0206 192.655 16.0206C190.681 16.0206 188.729 16.2509 186.799 16.7115C184.891 17.1501 183.038 17.7751 181.24 18.5866V12.1718C182.841 11.5358 184.683 11.0094 186.766 10.5927C188.872 10.176 191.054 9.96768 193.313 9.96768C195.791 9.96768 197.918 10.2089 199.695 10.6914C201.471 11.152 202.93 11.8538 204.07 12.7968C205.232 13.7398 206.088 14.9241 206.636 16.3496C207.184 17.7532 207.458 19.398 207.458 21.2841V44.1143H200.583ZM199.432 29.3437H194.53C193.17 29.3437 192.019 29.4753 191.076 29.7385C190.133 30.0017 189.365 30.3635 188.773 30.8241C188.181 31.2846 187.742 31.822 187.457 32.436C187.194 33.0282 187.062 33.6642 187.062 34.344C187.062 35.7037 187.501 36.7455 188.378 37.4692C189.256 38.171 190.451 38.5219 191.964 38.5219C193.082 38.5219 194.245 38.1162 195.451 37.3047C196.657 36.4933 197.984 35.3309 199.432 33.8177V29.3437Z" fill="white"/>
<path d="M246.258 43.7853C244.81 44.1143 243.352 44.3775 241.883 44.5748C240.413 44.7722 239.021 44.8709 237.705 44.8709C235.512 44.8709 233.615 44.6406 232.014 44.1801C230.435 43.7195 229.119 43.0177 228.066 42.0747C227.035 41.1317 226.268 39.9364 225.763 38.489C225.281 37.0196 225.04 35.2761 225.04 33.2584V16.9418H216.059V10.6914H225.04V2.13831L233.264 3.05176e-05V10.6914H246.258V16.9418H233.264V32.6663C233.264 34.5743 233.702 36.0217 234.58 37.0086C235.457 37.9736 236.926 38.4561 238.988 38.4561C240.304 38.4561 241.586 38.3464 242.837 38.1271C244.087 37.9078 245.227 37.6556 246.258 37.3705V43.7853Z" fill="white"/>
<path d="M286.867 24.8369C286.867 25.3852 286.845 26.098 286.801 26.9752C286.779 27.8524 286.735 28.6749 286.669 29.4424H264.694C264.694 30.9118 264.914 32.2057 265.352 33.3242C265.813 34.4427 266.449 35.3857 267.26 36.1533C268.094 36.899 269.081 37.4692 270.221 37.864C271.383 38.2587 272.666 38.4561 274.07 38.4561C275.693 38.4561 277.425 38.3355 279.267 38.0942C281.132 37.8311 283.062 37.4144 285.057 36.8442V43.2261C284.202 43.4673 283.27 43.6866 282.261 43.884C281.252 44.0814 280.221 44.2568 279.169 44.4104C278.116 44.5639 277.052 44.6735 275.978 44.7393C274.903 44.8271 273.861 44.8709 272.853 44.8709C270.309 44.8709 268.028 44.5091 266.01 43.7853C263.993 43.0616 262.282 41.998 260.878 40.5944C259.475 39.1689 258.4 37.4144 257.654 35.3309C256.909 33.2475 256.536 30.8351 256.536 28.0937C256.536 25.3742 256.909 22.907 257.654 20.692C258.4 18.455 259.453 16.547 260.813 14.968C262.172 13.367 263.817 12.1389 265.747 11.2835C267.699 10.4063 269.87 9.96768 272.261 9.96768C274.629 9.96768 276.723 10.3405 278.544 11.0862C280.364 11.8099 281.888 12.8297 283.116 14.1455C284.345 15.4614 285.277 17.0295 285.913 18.8498C286.549 20.67 286.867 22.6657 286.867 24.8369ZM278.708 23.6855C278.73 22.3697 278.566 21.2293 278.215 20.2643C277.864 19.2774 277.381 18.466 276.767 17.83C276.175 17.194 275.473 16.7224 274.662 16.4154C273.872 16.1084 273.017 15.9549 272.096 15.9549C270.078 15.9549 268.423 16.6347 267.129 17.9944C265.835 19.3322 265.067 21.2293 264.826 23.6855H278.708Z" fill="white"/>
<path d="M7.3944 0.224915L39.5481 27.2741L7.3944 54.371L0 46.8335L23.6144 27.3695L0 7.76243L7.3944 0.224915Z" fill="white"/>
<path d="M336.253 34.2782C336.253 36.1862 335.826 37.8201 334.97 39.1798C334.137 40.5176 333.018 41.6142 331.615 42.4695C330.233 43.3029 328.654 43.906 326.878 44.2788C325.123 44.6735 323.325 44.8709 321.483 44.8709C319.026 44.8709 316.811 44.7503 314.838 44.5091C312.864 44.2897 311 43.9608 309.245 43.5222V36.2849C311.307 37.1402 313.357 37.7653 315.397 38.16C317.458 38.5329 319.399 38.7193 321.219 38.7193C323.325 38.7193 324.893 38.3903 325.924 37.7324C326.976 37.0525 327.503 36.1753 327.503 35.1006C327.503 34.5962 327.393 34.1357 327.174 33.719C326.954 33.3023 326.538 32.9075 325.924 32.5347C325.332 32.14 324.487 31.7452 323.391 31.3504C322.294 30.9337 320.858 30.4732 319.081 29.9688C317.436 29.5082 315.989 28.9929 314.739 28.4226C313.511 27.8305 312.491 27.1397 311.679 26.3502C310.868 25.5606 310.254 24.6505 309.837 23.6197C309.442 22.5671 309.245 21.3389 309.245 19.9353C309.245 18.5756 309.552 17.2926 310.166 16.0864C310.78 14.8802 311.69 13.8275 312.897 12.9284C314.125 12.0073 315.649 11.2835 317.469 10.7572C319.29 10.2309 321.417 9.96768 323.851 9.96768C325.957 9.96768 327.821 10.0773 329.444 10.2966C331.066 10.516 332.503 10.7572 333.753 11.0204V17.5668C331.845 16.9527 330.047 16.5251 328.358 16.2838C326.691 16.0206 325.035 15.8891 323.391 15.8891C321.746 15.8891 320.419 16.1851 319.41 16.7773C318.423 17.3694 317.93 18.1918 317.93 19.2445C317.93 19.7489 318.028 20.1985 318.226 20.5933C318.423 20.988 318.807 21.3718 319.377 21.7446C319.969 22.1175 320.781 22.5122 321.812 22.9289C322.864 23.3237 324.246 23.7623 325.957 24.2448C327.886 24.7931 329.509 25.3852 330.825 26.0212C332.141 26.6353 333.194 27.3371 333.983 28.1266C334.795 28.9161 335.376 29.8153 335.727 30.8241C336.078 31.8329 336.253 32.9843 336.253 34.2782Z" fill="white"/>
<path d="M375.316 34.2782C375.316 36.1862 374.888 37.8201 374.033 39.1798C373.2 40.5176 372.081 41.6142 370.677 42.4695C369.296 43.3029 367.717 43.906 365.94 44.2788C364.186 44.6735 362.388 44.8709 360.545 44.8709C358.089 44.8709 355.874 44.7503 353.9 44.5091C351.926 44.2897 350.062 43.9608 348.308 43.5222V36.2849C350.369 37.1402 352.42 37.7653 354.459 38.16C356.521 38.5329 358.462 38.7193 360.282 38.7193C362.388 38.7193 363.956 38.3903 364.986 37.7324C366.039 37.0525 366.565 36.1753 366.565 35.1006C366.565 34.5962 366.456 34.1357 366.236 33.719C366.017 33.3023 365.6 32.9075 364.986 32.5347C364.394 32.14 363.55 31.7452 362.453 31.3504C361.357 30.9337 359.92 30.4732 358.144 29.9688C356.499 29.5082 355.052 28.9929 353.802 28.4226C352.573 27.8305 351.554 27.1397 350.742 26.3502C349.931 25.5606 349.317 24.6505 348.9 23.6197C348.505 22.5671 348.308 21.3389 348.308 19.9353C348.308 18.5756 348.615 17.2926 349.229 16.0864C349.843 14.8802 350.753 13.8275 351.959 12.9284C353.187 12.0073 354.712 11.2835 356.532 10.7572C358.352 10.2309 360.48 9.96768 362.914 9.96768C365.019 9.96768 366.883 10.0773 368.506 10.2966C370.129 10.516 371.566 10.7572 372.816 11.0204V17.5668C370.908 16.9527 369.109 16.5251 367.421 16.2838C365.754 16.0206 364.098 15.8891 362.453 15.8891C360.808 15.8891 359.482 16.1851 358.473 16.7773C357.486 17.3694 356.992 18.1918 356.992 19.2445C356.992 19.7489 357.091 20.1985 357.289 20.5933C357.486 20.988 357.87 21.3718 358.44 21.7446C359.032 22.1175 359.844 22.5122 360.874 22.9289C361.927 23.3237 363.309 23.7623 365.019 24.2448C366.949 24.7931 368.572 25.3852 369.888 26.0212C371.204 26.6353 372.256 27.3371 373.046 28.1266C373.857 28.9161 374.439 29.8153 374.789 30.8241C375.14 31.8329 375.316 32.9843 375.316 34.2782Z" fill="white"/>
<path d="M414.379 43.7853C412.931 44.1143 411.473 44.3775 410.003 44.5748C408.534 44.7722 407.141 44.8709 405.825 44.8709C403.632 44.8709 401.735 44.6406 400.134 44.1801C398.555 43.7195 397.239 43.0177 396.187 42.0747C395.156 41.1317 394.388 39.9364 393.884 38.489C393.401 37.0196 393.16 35.2761 393.16 33.2584V16.9418H384.179V10.6914H393.16V2.13831L401.384 3.05176e-05V10.6914H414.379V16.9418H401.384V32.6663C401.384 34.5743 401.823 36.0217 402.7 37.0086C403.577 37.9736 405.047 38.4561 407.108 38.4561C408.424 38.4561 409.707 38.3464 410.957 38.1271C412.207 37.9078 413.348 37.6556 414.379 37.3705V43.7853Z" fill="white"/>
</svg>
