<svg width="702" height="92" viewBox="0 0 702 92" fill="none" xmlns="http://www.w3.org/2000/svg">
<path d="M150.999 72.2779C148.334 73.3511 145.577 74.1468 142.727 74.6649C139.878 75.1831 136.899 75.4421 133.79 75.4421C129.312 75.4421 125.296 74.8315 121.744 73.6102C118.191 72.3889 115.175 70.5755 112.695 68.1699C110.215 65.7644 108.309 62.7852 106.977 59.2323C105.682 55.6795 105.034 51.5716 105.034 46.9085C105.034 42.3934 105.737 38.304 107.144 34.6401C108.587 30.9763 110.604 27.849 113.195 25.2584C115.785 22.6678 118.894 20.6694 122.521 19.263C126.185 17.8567 130.256 17.1536 134.734 17.1536C138.397 17.1536 141.469 17.3571 143.949 17.7642C146.465 18.1343 148.723 18.6154 150.721 19.2075V32.3641C148.427 31.2168 145.929 30.3286 143.227 29.6995C140.562 29.0703 138.027 28.7558 135.622 28.7558C133.105 28.7558 130.848 29.1814 128.849 30.0326C126.851 30.8837 125.167 32.068 123.798 33.5854C122.428 35.1027 121.373 36.9532 120.633 39.1367C119.93 41.2832 119.579 43.6517 119.579 46.2423C119.579 48.944 119.967 51.368 120.744 53.5145C121.522 55.661 122.613 57.4929 124.02 59.0103C125.463 60.4906 127.184 61.6379 129.182 62.4521C131.181 63.2293 133.401 63.6179 135.844 63.6179C137.028 63.6179 138.268 63.5439 139.563 63.3958C140.896 63.2108 142.209 62.9702 143.505 62.6741C144.837 62.3411 146.132 61.971 147.391 61.5639C148.686 61.1568 149.889 60.7127 150.999 60.2316V72.2779Z" fill="white"/>
<path d="M207.591 39.9694C207.665 37.8599 207.554 36.065 207.258 34.5846C206.999 33.1043 206.555 31.883 205.926 30.9208C205.333 29.9585 204.593 29.2554 203.705 28.8113C202.817 28.3672 201.799 28.1451 200.652 28.1451C198.653 28.1451 196.581 28.9778 194.434 30.6432C192.325 32.2716 189.993 34.9732 187.44 38.7481V74.4429H173.562V18.0418H185.83L186.33 26.2577C187.255 24.8143 188.291 23.519 189.438 22.3718C190.623 21.2245 191.918 20.2438 193.324 19.4296C194.767 18.5784 196.359 17.9307 198.098 17.4866C199.838 17.0425 201.744 16.8205 203.816 16.8205C206.666 16.8205 209.182 17.3201 211.366 18.3193C213.586 19.2815 215.437 20.7249 216.917 22.6493C218.434 24.5738 219.545 26.9978 220.248 29.9215C220.988 32.8082 221.303 36.1575 221.192 39.9694H207.591Z" fill="white"/>
<path d="M286.333 41.9123C286.333 42.8375 286.296 44.0403 286.222 45.5207C286.185 47.001 286.111 48.3888 286 49.6841H248.917C248.917 52.1637 249.287 54.3472 250.027 56.2346C250.804 58.1221 251.878 59.7135 253.247 61.0088C254.653 62.267 256.319 63.2293 258.243 63.8954C260.205 64.5616 262.37 64.8947 264.738 64.8947C267.477 64.8947 270.4 64.6911 273.509 64.284C276.655 63.8399 279.912 63.1368 283.279 62.1745V72.944C281.836 73.3511 280.263 73.7212 278.561 74.0543C276.858 74.3874 275.119 74.6834 273.343 74.9425C271.566 75.2016 269.771 75.3866 267.958 75.4976C266.145 75.6457 264.387 75.7197 262.684 75.7197C258.391 75.7197 254.542 75.109 251.138 73.8878C247.733 72.6665 244.846 70.8716 242.477 68.503C240.109 66.0974 238.296 63.1368 237.037 59.6209C235.779 56.1051 235.15 52.0342 235.15 47.4081C235.15 42.819 235.779 38.6556 237.037 34.9177C238.296 31.1428 240.072 27.9231 242.366 25.2584C244.661 22.5568 247.437 20.4843 250.693 19.041C253.987 17.5606 257.651 16.8205 261.685 16.8205C265.682 16.8205 269.216 17.4496 272.288 18.7079C275.36 19.9292 277.932 21.6501 280.004 23.8706C282.077 26.0911 283.65 28.7372 284.723 31.809C285.796 34.8807 286.333 38.2485 286.333 41.9123ZM272.565 39.9694C272.603 37.7488 272.325 35.8244 271.733 34.196C271.141 32.5306 270.326 31.1613 269.29 30.0881C268.291 29.0148 267.107 28.2191 265.737 27.701C264.405 27.1829 262.962 26.9238 261.407 26.9238C258.003 26.9238 255.208 28.0711 253.025 30.3656C250.841 32.6232 249.546 35.8244 249.139 39.9694H272.565Z" fill="white"/>
<path d="M338.484 74.4429L338.151 67.0597C336.966 68.318 335.727 69.4837 334.431 70.557C333.136 71.5932 331.711 72.4999 330.157 73.2771C328.602 74.0543 326.9 74.6464 325.05 75.0535C323.236 75.4976 321.238 75.7197 319.054 75.7197C316.168 75.7197 313.632 75.2941 311.449 74.4429C309.265 73.5917 307.434 72.4074 305.953 70.8901C304.473 69.3727 303.344 67.5408 302.567 65.3943C301.827 63.2478 301.457 60.8792 301.457 58.2886C301.457 55.624 302.012 53.1629 303.122 50.9054C304.269 48.6479 305.99 46.7049 308.285 45.0766C310.616 43.4482 313.503 42.1714 316.945 41.2462C320.424 40.3209 324.494 39.8583 329.158 39.8583H336.541V36.472C336.541 35.0287 336.337 33.7334 335.93 32.5861C335.523 31.4019 334.857 30.4026 333.932 29.5884C333.043 28.7743 331.878 28.1451 330.434 27.701C328.991 27.2569 327.215 27.0349 325.105 27.0349C321.774 27.0349 318.481 27.4234 315.224 28.2006C312.004 28.9408 308.877 29.9955 305.842 31.3649V20.5398C308.544 19.4666 311.653 18.5784 315.168 17.8752C318.721 17.1721 322.404 16.8205 326.215 16.8205C330.397 16.8205 333.987 17.2276 336.985 18.0418C339.983 18.8189 342.444 20.0032 344.368 21.5946C346.33 23.186 347.773 25.1844 348.698 27.59C349.623 29.9585 350.086 32.7342 350.086 35.9169V74.4429H338.484ZM336.541 49.5176H328.269C325.975 49.5176 324.032 49.7396 322.441 50.1837C320.849 50.6278 319.554 51.2385 318.555 52.0157C317.555 52.7928 316.815 53.6996 316.334 54.7358C315.89 55.735 315.668 56.8083 315.668 57.9555C315.668 60.2501 316.408 62.008 317.888 63.2293C319.369 64.4135 321.386 65.0057 323.939 65.0057C325.827 65.0057 327.788 64.321 329.824 62.9517C331.859 61.5824 334.098 59.6209 336.541 57.0673V49.5176Z" fill="white"/>
<path d="M415.56 73.8878C413.118 74.4429 410.656 74.887 408.177 75.2201C405.697 75.5531 403.347 75.7197 401.127 75.7197C397.426 75.7197 394.225 75.3311 391.523 74.5539C388.858 73.7767 386.638 72.5925 384.861 71.0011C383.122 69.4097 381.827 67.3927 380.976 64.9502C380.161 62.4706 379.754 59.5284 379.754 56.1236V28.5892H364.599V18.0418H379.754V3.6084L393.632 6.10352e-05V18.0418H415.56V28.5892H393.632V55.1244C393.632 58.3441 394.373 60.7867 395.853 62.4521C397.333 64.0805 399.813 64.8947 403.292 64.8947C405.512 64.8947 407.677 64.7096 409.787 64.3395C411.896 63.9694 413.821 63.5438 415.56 63.0627V73.8878Z" fill="white"/>
<path d="M484.087 41.9123C484.087 42.8375 484.05 44.0403 483.976 45.5207C483.939 47.001 483.865 48.3888 483.754 49.6841H446.672C446.672 52.1637 447.042 54.3472 447.782 56.2346C448.559 58.1221 449.632 59.7135 451.002 61.0088C452.408 62.267 454.073 63.2293 455.998 63.8954C457.959 64.5616 460.124 64.8947 462.493 64.8947C465.232 64.8947 468.155 64.6911 471.264 64.284C474.41 63.8399 477.666 63.1368 481.034 62.1745V72.944C479.591 73.3511 478.018 73.7212 476.316 74.0543C474.613 74.3874 472.874 74.6834 471.097 74.9425C469.321 75.2016 467.526 75.3866 465.713 75.4976C463.899 75.6457 462.141 75.7197 460.439 75.7197C456.146 75.7197 452.297 75.109 448.892 73.8878C445.487 72.6665 442.601 70.8716 440.232 68.503C437.864 66.0974 436.05 63.1368 434.792 59.6209C433.534 56.1051 432.905 52.0342 432.905 47.4081C432.905 42.819 433.534 38.6556 434.792 34.9177C436.05 31.1428 437.827 27.9231 440.121 25.2584C442.416 22.5568 445.191 20.4843 448.448 19.041C451.742 17.5606 455.406 16.8205 459.44 16.8205C463.437 16.8205 466.971 17.4496 470.043 18.7079C473.114 19.9292 475.687 21.6501 477.759 23.8706C479.831 26.0911 481.404 28.7372 482.478 31.809C483.551 34.8807 484.087 38.2485 484.087 41.9123ZM470.32 39.9694C470.357 37.7488 470.08 35.8244 469.488 34.196C468.895 32.5306 468.081 31.1613 467.045 30.0881C466.046 29.0148 464.861 28.2191 463.492 27.701C462.16 27.1829 460.717 26.9238 459.162 26.9238C455.757 26.9238 452.963 28.0711 450.78 30.3656C448.596 32.6232 447.301 35.8244 446.894 39.9694H470.32Z" fill="white"/>
<path d="M12.4781 0.379578L66.7375 46.0251L12.4781 91.7511L0 79.0316L39.8493 46.1861L0 13.0991L12.4781 0.379578Z" fill="url(#paint0_linear_132_347)"/>
<path d="M567.427 57.8445C567.427 61.0643 566.706 63.8214 565.262 66.1159C563.856 68.3735 561.969 70.2239 559.6 71.6672C557.269 73.0736 554.604 74.0913 551.606 74.7204C548.646 75.3866 545.611 75.7197 542.502 75.7197C538.357 75.7197 534.619 75.5161 531.289 75.109C527.958 74.739 524.812 74.1838 521.851 73.4437V61.2308C525.33 62.6741 528.79 63.7289 532.232 64.395C535.711 65.0242 538.986 65.3388 542.058 65.3388C545.611 65.3388 548.257 64.7836 549.996 63.6734C551.773 62.5261 552.661 61.0458 552.661 59.2323C552.661 58.3811 552.476 57.604 552.106 56.9008C551.736 56.1976 551.033 55.5315 549.996 54.9023C548.997 54.2362 547.572 53.57 545.722 52.9039C543.871 52.2007 541.447 51.4235 538.45 50.5723C535.674 49.7951 533.231 48.9254 531.122 47.9632C529.049 46.964 527.329 45.7982 525.959 44.4659C524.59 43.1336 523.554 41.5977 522.851 39.8583C522.184 38.0819 521.851 36.0094 521.851 33.6409C521.851 31.3464 522.369 29.1814 523.406 27.1459C524.442 25.1104 525.978 23.334 528.013 21.8166C530.086 20.2623 532.658 19.041 535.73 18.1528C538.801 17.2646 542.391 16.8205 546.499 16.8205C550.052 16.8205 553.198 17.0055 555.936 17.3756C558.675 17.7457 561.099 18.1528 563.208 18.5969V29.644C559.989 28.6077 556.954 27.8861 554.104 27.479C551.292 27.0349 548.498 26.8128 545.722 26.8128C542.946 26.8128 540.707 27.3124 539.005 28.3116C537.339 29.3109 536.507 30.6987 536.507 32.4751C536.507 33.3263 536.673 34.085 537.006 34.7511C537.339 35.4173 537.987 36.065 538.949 36.6941C539.949 37.3232 541.318 37.9894 543.057 38.6926C544.834 39.3587 547.165 40.0989 550.052 40.9131C553.309 41.8383 556.047 42.8375 558.268 43.9108C560.488 44.947 562.265 46.1313 563.597 47.4636C564.966 48.7959 565.947 50.3133 566.539 52.0157C567.131 53.7181 567.427 55.661 567.427 57.8445Z" fill="url(#paint1_linear_132_347)"/>
<path d="M633.346 57.8445C633.346 61.0643 632.624 63.8214 631.181 66.1159C629.774 68.3735 627.887 70.2239 625.518 71.6672C623.187 73.0736 620.522 74.0913 617.524 74.7204C614.564 75.3866 611.529 75.7197 608.42 75.7197C604.275 75.7197 600.538 75.5161 597.207 75.109C593.876 74.739 590.73 74.1838 587.77 73.4437V61.2308C591.248 62.6741 594.709 63.7289 598.15 64.395C601.629 65.0242 604.905 65.3388 607.976 65.3388C611.529 65.3388 614.175 64.7836 615.915 63.6734C617.691 62.5261 618.579 61.0458 618.579 59.2323C618.579 58.3811 618.394 57.604 618.024 56.9008C617.654 56.1976 616.951 55.5315 615.915 54.9023C614.915 54.2362 613.491 53.57 611.64 52.9039C609.79 52.2007 607.366 51.4235 604.368 50.5723C601.592 49.7951 599.15 48.9254 597.04 47.9632C594.968 46.964 593.247 45.7982 591.878 44.4659C590.508 43.1336 589.472 41.5977 588.769 39.8583C588.103 38.0819 587.77 36.0094 587.77 33.6409C587.77 31.3464 588.288 29.1814 589.324 27.1459C590.36 25.1104 591.896 23.334 593.931 21.8166C596.004 20.2623 598.576 19.041 601.648 18.1528C604.72 17.2646 608.309 16.8205 612.417 16.8205C615.97 16.8205 619.116 17.0055 621.854 17.3756C624.593 17.7457 627.017 18.1528 629.127 18.5969V29.644C625.907 28.6077 622.872 27.8861 620.023 27.479C617.21 27.0349 614.416 26.8128 611.64 26.8128C608.864 26.8128 606.625 27.3124 604.923 28.3116C603.258 29.3109 602.425 30.6987 602.425 32.4751C602.425 33.3263 602.592 34.085 602.925 34.7511C603.258 35.4173 603.905 36.065 604.868 36.6941C605.867 37.3232 607.236 37.9894 608.976 38.6926C610.752 39.3587 613.083 40.0989 615.97 40.9131C619.227 41.8383 621.966 42.8375 624.186 43.9108C626.407 44.947 628.183 46.1313 629.515 47.4636C630.885 48.7959 631.865 50.3133 632.457 52.0157C633.05 53.7181 633.346 55.661 633.346 57.8445Z" fill="url(#paint2_linear_132_347)"/>
<path d="M699.264 73.8878C696.821 74.4429 694.36 74.887 691.881 75.2201C689.401 75.5531 687.051 75.7197 684.831 75.7197C681.13 75.7197 677.928 75.3311 675.227 74.5539C672.562 73.7767 670.342 72.5925 668.565 71.0011C666.826 69.4097 665.531 67.3927 664.679 64.9502C663.865 62.4706 663.458 59.5284 663.458 56.1236V28.5892H648.303V18.0418H663.458V3.6084L677.336 6.10352e-05V18.0418H699.264V28.5892H677.336V55.1244C677.336 58.3441 678.076 60.7867 679.557 62.4521C681.037 64.0805 683.517 64.8947 686.996 64.8947C689.216 64.8947 691.381 64.7096 693.491 64.3395C695.6 63.9694 697.525 63.5438 699.264 63.0627V73.8878Z" fill="url(#paint3_linear_132_347)"/>
<defs>
<linearGradient id="paint0_linear_132_347" x1="3.83549" y1="70.4311" x2="68.7472" y2="70.1835" gradientUnits="userSpaceOnUse">
<stop stop-color="#E27152"/>
<stop offset="1" stop-color="#EFAA2C"/>
</linearGradient>
<linearGradient id="paint1_linear_132_347" x1="532.047" y1="58.0518" x2="704.583" y2="55.9402" gradientUnits="userSpaceOnUse">
<stop stop-color="#E27152"/>
<stop offset="1" stop-color="#EFAA2C"/>
</linearGradient>
<linearGradient id="paint2_linear_132_347" x1="532.047" y1="58.0518" x2="704.583" y2="55.9402" gradientUnits="userSpaceOnUse">
<stop stop-color="#E27152"/>
<stop offset="1" stop-color="#EFAA2C"/>
</linearGradient>
<linearGradient id="paint3_linear_132_347" x1="532.047" y1="58.0518" x2="704.583" y2="55.9402" gradientUnits="userSpaceOnUse">
<stop stop-color="#E27152"/>
<stop offset="1" stop-color="#EFAA2C"/>
</linearGradient>
</defs>
</svg>
